<mxfile host="app.diagrams.net" agent="Mozilla/5.0 (X11; Linux x86_64) AppleWebKit/537.36 (KHTML, like Gecko) Chrome/124.0.0.0 Safari/537.36" version="28.2.8">
  <diagram name="Page-1" id="cagTb0hPdPcRIWWmQ7pS">
    <mxGraphModel dx="848" dy="504" grid="1" gridSize="10" guides="1" tooltips="1" connect="1" arrows="1" fold="1" page="1" pageScale="1" pageWidth="850" pageHeight="1100" math="0" shadow="0">
      <root>
        <mxCell id="0" />
        <mxCell id="1" parent="0" />
        <mxCell id="m_6WRML65mC8xDF_TJw3-1" value="" style="shape=image;verticalLabelPosition=bottom;labelBackgroundColor=default;verticalAlign=top;aspect=fixed;imageAspect=0;image=data:image/png,iVBORw0KGgoAAAANSUhEUgAAAnIAAAFkCAYAAACkSdaOAAAABHNCSVQICAgIfAhkiAAAIABJREFUeF7snQeAVNXZ/t+d2QLL0nuVJoICKlIUFeyIvWGJLZbEJEajKSb5TL7k+1JMTPL9TTTFxERjjQUbFgRFFCtYQRAQUVSQpnS2zs7//b2zZxmWXdheZt6jw8zcuffce59z757nPm/LiGuTFGkpdCopMiJ+Go6AI+AIOAKOQOMikJGR0bg7bOK9RZp4/757R8ARcAQcAUfAEXAEHIFaIuBErpbA+WaOgCPgCDgCjoAj4Ag0NQJO5Jp6BHz/joAj4Ag4Ao6AI+AI1BIBJ3K1BM43cwQcAUfAEXAEHAFHoKkRcCLX1CPg+3cEHAFHwBFwBBwBR6CWCGTWcjvfzBFo8QiUSob+F9eXfioL3o5bsJMuyYjrL/zGggyJWGx3ekVCtfgB9hNogQhwj+nNxv1Wdi+2wJPwQ3YEGhUBJ3KNCrfvrLkgAEWDtBmBi8f0sErt0OISURIXlXi8VOKlMSicRDIQrpXSlfG4uJI8m2ic2DWX4fTjaKEI8LDEbRSJR+zBKTS9++wei6RZGokWOox+2E2MgBO5Jh4A333TIIAKFxUlakrSIG6lkokup3MHv4hklUYkWhLVTzrBRJhplOrpW0Kpi+nEo8QuId81zQn4Xh2BFECAh6KEBse9B3dDDRcpsYcskZwUOEc/BUegoRFwItfQCHv/zRQBpW2lJUrSIHCBxHGoaHKqDURKpSQLSodiwFSDIodKUKITTEy30bVMqfPmCDgCtUGAuyrTBDnUcb2n9D6DzJnLgz4k+d1VG1R9m3REwIlcOo66n7MiwOShapzpAaLqXGIKiUDUpFhK1eQaUyUujvKmRC+xmhle9WOpannQvcS2Dqcj4AjUEAG9v+yO0/fEc5LeS+rOwMIs3BkwteL2EPV7rIbI+uppiIC6CHmJrjQc97Q/ZayieMYxTRgl00kEghaPK4nLUDVOvxUogSvWaaVQJ5UN20skP6aqgX5OaAgJQ2zaA+kAOAI1QaBMdcP3LVMflPLaZEqu3mvt9UbMKYqpQqcf9P6LqSIej0SVx7kuVxN4fd0EAulWossVOb/y0xKBYMLJVBIX0aAGvhfppJEfyZWt+mXVthJ5b81G+WDlelm5aZtsVp+5ksxsJXhocmoSShhX0xI7P2lHoLYIxEvjUlqqD0FK5LIyI9JKtsnenTrKQd06yQH66pqtJlUlcMryJKbqeK7eb67J1RZt3y5dEHBFLl1G2s9zJwQscEGniKhOFhC5mE4emzMyZdnWmLz64Tp59eM18kUGahwBDkreVD2AwmWqchfRF/48+Ml5cwQcgRogkMzKVN2OlLbSu7BQ76vN0qN1TMb17y5HDugt/bKypLUq4JEoAUfeHIGaIZBuipwTuZpdH752iiCABadUCRlEDjPql2pCfWVVgTw+f4V8VlRA2KpkxYqkY06W9G3bTnq0yZU26q+TheVH9buYfobgeXMEHIE9IIDcXdZCipFYSYkUqCn1481xWbN1k3yhZG5rlpI2XXf/3Fy5aGh/ObB9jrQiGkIJH/6qRZrMMaqeQFnqExHHRGsPV94cgV0RcCK3KyYtZkkKufu1GMxb6oFyrZRq9CkTwnpldU9+uFaeen+9bI22Vj+5TTKgXVwO7ddTRvbsKj1zsqW9nmgmARBK5IqVypVlJGmpp+/H7Qg0DgJJJI4dWpJtvecQ5mL623p9fbk9Xxau3igzl6+TD0uyLfl239Jtcs6BA+SIXh2kDSvqg9M2jWzN0o+tlMiZSq7LMt3w2jjj2ML24kSuhQ1Y8uE6kWvBg9fYh455NFYqG6JZ8syKtfLQ+8tkU2m2dCyOy3F795EjBneVrjmZNnG01rCITFXurNZDRNUBzTuHFuC+O409aL6/Fo8AAlt5fJ2qaiWcUVwKMjPkI/VjePy9T+XV1V/KpmhEOmWLXL5ff5nQo52008cnlHNCk8gKFKPyCgETrsm1+EuiIU4g3YicBzs0xFXkfTZ/BJTIFaiX27wvtssjS1bLl5Ec6RApllOHD5TJvbtKJ3XKjuiL/FZxnUSKNZKOPAlG5vSjBUk4lWv+4+xH2PwQsCcgyx6nb3p/qQSXpzfVvvrg1GVkX+mamyWPrVgva4qz5NHFn0uP3Gw5sJ0SOEig3nWWh1u309vRTLHeHIF0R8CJXLpfAWl0/igBPKnxbiZVjXh4dOlnsjLeWjoWlsgZw/eSI/t1lvYa/BAlh5xOFOhwMV2X6g8Qt2g8aioAkwikzpsj4AjUBoHEvRPT6NRiyJy6ObTWV49oppy6T0/JL47Js59slI9KMuXFD1dJ//33ki6Jm66MyPljVG1Q921SEwEncqk5rn5WlSAQ5Hbei5SOvbl6nXywvUBipTlyePducnyfbprPqkgy1KwTj2fphAFhU/LGf2Sa17knqk5yiHOlmWqajTqRqwRmX+QIVAsBM5SqaTWi7g34nRbpvZeZUSht9YdJ+/SQzzdslte3ReWtVRtldN/ucnCXNlqyCwVPNyTi1RXxauHsK6U+Ak7kUn+M/QzLEICUhRxWm9QX7o1Pt0qRTiR9s0rkmEFdpYtOEGpNtbQkSG6YfixBKd+xAlniedS8xCKPmfNLyxGoPQKaMsFS/2RrmTw1nEqGquCl0UL9HJNuraIycZ/esuDNT2VdLFPmrdwkwzrnSjcleommDnRUXPHmCDgCfif4NZA+CAQna3S0NVuKZMVmzSZfEpORXXKlXwdV4FQeKFITamYJtR5UcctStYCV9cVbqWZHoMqq5pzXaUfXY4E3R8ARqCUCpVKUWWLVG6J6z0XU1SGmpC5TAxnaK53bt1M76d+htSzcWCKL1m2VDYUx6dqq0O4/K5tH0ATmVm+OQJoj4I80aX4BpO7pw7601I8m+aWOaon64cT0D3+OmkYLlKwt3ZIva0q0AFe8UA7s2Vs6MC/g/ZahEwt3hcpuZcKbCXI0Uo5gaEWViyDL6YRT48YmtZ176rJtjQ+0ATcI55Eq51MXqFINixqNKZp2tt4OaiSlpqpuGymPQ83QKg+aU65jK1m8YYOsLc6QVfnFMqhVK12HWyjxb12g920dgVRBwPMppspI+nlUggDP7mWNHHBK7OBQ1Fhdm79ditXHrZUm/O3SprXliFPbTmJ6ILUByUaDDVW34j++4yuXWRf/nNqSOE6jLttWgk6TLQrnkSrnUxcgUw2LGo4p/qf2yKT/c89xD0LnaFn6vU+7Nvoel3xNILxhW5EuxaSq5M9cH7w5Ao4ACDiR8+sgZRGAh5UTubK/+nxn+bb8fPOXy87KlNatUAUSApvfECl7OfiJtTAEuCfzcvUhS8t0ZSjB266BSeX3M5+cybWwEfXDbSgEfN5qKGS932aDABZQs4IaW6NGKkENZKTiqz7Z42djEaplqzBJ7Jgxms15+IE4AumGgAaQq0uD3alSohUeLI9c+b3pN2m6XQ9+vpUj4D5ylePiS1MBAUganAwip2aacmOMEraEmVVNpUwSzAc2O8DkYHs4U+s6WrSbFnLPBdKXnI/OSGDSOvalrKH4RVVN4D20iFaGaIhWHsgBQW2gfTTEcXufjkBVCHBnJSgc96Z+0nvVaqyygd2vZfdsVR34ckcgTRBwIpcmA52upxn+1DMpJGITEulDgvdcgoYlJoWyKSJB/pIAg4ht3rxZXn75ZXnttddk5cqV0rZtWxk9erRMmDBB+vXrV06eWPcPf/iD5Kvp9kc/+pGRwFmzZsm9994rP/vZz2xdSFd9kq1AFHnftGmTdOrUKaEypuug+3mnBgJ6WxI1bg9jekY8XtkjFl/KlqTGifpZOAJ1Q6Bh5IG6HZNv7QjUCwL29z60si+8mWk1weB2XSFpg6C2QcROPPFEufDCC+Wxxx6T5cuXy4svvijf/va35dRTT5WpU6dKcXGxETRUvDlz5tgrKHnLli2TRx99VDZo9N2OOpNJu67jR/ZTUFAgt9xyi/zlL3+xY/HmCLR0BOzhi5OwezdB4sL9m7iLd7rDW/rp+vE7ArVGwBW5WkPnG7YIBHY41NjhJoymOx/5zpwuMTkEwvXMM8/IV7/6VenTp4+pagcddJC0bt1aioqKZP78+fKTn/xEvv/970v79u3l6KOPLjfHlmiUXejjvPPOk0mTJkmvXr3qXY3jTFDitm3bJg8//LDss88+rsa1iAvTD7I6COygbwkjq22jN6ylH3EeVx0IfZ00QMCJXBoMcrqeIgSNjAallkYEMw3pRTT5qE4DGboMVY65IEdflhaOd11Qoj+QZuTLjV+aObRjx47yyCOP7GRCRXnDrHrTTTfJlClT5I477pBx48ZJbm5uuToXcM/JyZFu3bpJZmbmTiQLAgYhpEH6srOzzacuKHsobfyOGTb450EQ+c56ND5zLJhyeWfbrVu32nHwW8V9hmPyd0eguSPAPYmXaqn5odrdabqc3bUk49a6x553obmPoh9fYyDgptXGQNn30YQI7PrYnqB1Ow6p4nd+iejk8cILL8j7778vX/va16Rv377lplLIEi/I1ahRo+SBBx6QG2+8Udq0aWOdQp6sjzLC9c9//tMUvXfffdeWse2aNWuMBB5++OHSpUsXGT58uJlq33vvPSOC9A3RO+OMM+TSSy+VZ5991lQ9+hk8eLBce+21smrVKiNvKIPjx4+XefPmyZ133ik9e/aUJ598svw47GC8OQItEQG7OZPv0F3v55Z4Wn7MjkB9IuCKXH2i6X2lDAJxLbr6+uuvCwrYUUcdtUtwQiBaEDOCHiBnqGSFhYXl6hnL2B5iB+FiXcjZ+vXr5Yc//KH52Z177rlmmv3iiy+MhEEa//73v8vQoUPLSd+rr74qS5YskYsuukiuuOIKefPNN+X22283n7t//OMfMnDgQPnd734nv/zlL41wXnLJJTJ27FgbC/aflaW1xrw5Ao6AI+AIpCQCTuRSclj9pOqKACTsyy+/lHbt2knnzp136i6YOcM7P/KZFhS38B5MoPwOoYLI4XfH64YbbhD85wLRmjhxonzlK1+RW2+91YgZfbAdkaiYblHd+H7yyScbiUOlW7t2rZl8jznmGPnrX/8q/fv3l9NOO63cpBr2X1c8fHtHwBFwBByB5omAm1ab57j4UTUxAkFxg9AFU2k4JJbRIFrhnfVZDlEL75CosDwsQ5mbMWOGpQhBdUOdw0RKShOCKDCxkuIEgha2R3FD9eM7x9JK602yLSbYLVu2lBO+sC/ew7ZO5Jr4QvLdOwKOgCPQwAi4ItfAAHv3LRQBJUOQLQIHIFu9e/fe6USSCRo55iBMBDXQAtGreOaQOEyvH374oXz00Udy1llnlZtbQ39En+bl5RlBwyxKI2ddct+sy/dADivux787Ao6AI+AIpA8CTuTSZ6z9TGuAQDxeKgcffLD8+c9/NoVs//3332lrSBQv8rf94he/kBUrVljAA4SvKiIXTKW8kybkmmuuKY8uDUl92ZaI0x49epj6xvJk0hgOAlJIC6pgDU7NV3UEHAFHwBFIIQScyKXQYPqp1B8C1HeEyBEl+u9//9v8zrp3724kLZlYLVy40JL97rvvvuZPx+/BP46jSSZ1fCbFCGZRIkwPOeQQi0ANjd+XLl1q5A1VLpnEsU4gbWEfyf2zLHlfFfddvpMU+hDGIoVOyU/FEXAEHIEaI+BErsaQ+QbpgADluSFupPmg1BbvP/jBD2TQoEHmo0beNlKFkGeOXG+XXXaZdOjQwcyhgXAF1SyZ3BHYcPzxx8u0adPknnvukauvvtq2C2lErrzySlPr/vjHPxoxpFUkg6wLyQv+byEilnW3b99uyYH5LSiAqTJeAQfewZmAj5A/D3Jd340+wRDyzRgx7uEYXAmtb7S9P0fAEagtAk7kaoucb5fSCChXMOXt4osvttQgRIRiYj3ggAOsQsOnn35qaUCY3KnuQNQok3sgT4FIAVIgGWHypwIEqUSIRCVPHWoeBOz55583Qsc+IXGQFbYNL8hb2Adm10AQ2QcEEeI5e/Zsue6666wPFL9ARlJhsDgXMPn888/l8ccft/Qw+CeGpMr1TeaC4keevwMPPNCihftrVDBjG8YiFXD1c3AEHIGWjYATuZY9fn70DYUApkr9D6L23e9+Vw477DB57rnnLPnuW2+9ZYEQl19+uZxwwgnmPxeIFZM/5lJ855jsWQ4RgAASoADZgKT913/9lyUTpk9eJBOmr1NOOUVGjhxp60EYhgwZUt5Xcj44UqKw37CM7UkoTOTrokWLLJiCShOppByB57p168wXce7cuUZkgxqZrFrWxyUB/oGskbx58eLF9vr5z38uXbt2LVdD62Nf3ocj4Ag4AnVBIEP/AKZMquwUOpW6jKlvawgoDctQE6SW8YmUapqQSIkU65WeraV9tkQz5I9vLpWZq+PSp02x/OzgvWVwDoW7VGnJKJa4lujK1O1K4okkvkzqXFuk++AFeQhRqsnpPYIihLpGgwSyjG2IVoVsBTUnEAUIXzDHQvQw4wXfOPrATEqDoLFtUInojxeBEeEY2I7+2B/7DpGtqULmwJ1EyCRM5jOYEBQSVFBwqqjKBZwrLg/rJmNtQCc1fgNvFMCQ6Bkl9Rvf+MYuKWkqbpsq38P11hTnE9N7Z96X+XLD6x/L1pIMOX9wZ/nKsM5alSsmOVZfT+8HT6DVFEPT7PdZ2f3e7A+6DgfoilwdwPNNUxcBNWjuNFnzhwFiFNKA7O7MQ6musE7F7QKxgoBVXJdtkokXQQ/JLfyBqtgn61TWXyr9QYOgUuUCggXh/da3vmUmbc4bzCo+yPE9qKJBXUvGsmLVjeTf2DZsP2vWLPnTn/5k5BH1FH/IirkFdxqkevgSCFTyOXG8pKVBlcScHH5jjCuee10Ogb64vrj2UJ4hzGEf/JYqDwZ1wci3dQSaEwJO5JrTaPixOAKOQJUIQKTI6QepILce5m5MzIFYVCStkDfaBx98YFUwQl4+lrENJHDvvfcuVzQrbg9pYZ+HHnqo+TNS6QMSFZS6iutXeeC1/IH988IPkEog1PR94403TKXluJLVxPoicpxTOC9cAMAHk/+ZZ55p5d+cxNVyMH0zR6ABEXAi14DgeteOgCNQvwgkExYIR7JZuTJiBfEgMAUih6IXGsshKfggBlN5xSOFKNE/LxTAYAJPJjsVt6mP7+EcOa4FCxbIf//3f1sgDMshsJDXhjwG+mZfRAQTUPLyyy9bHWCCek499VSv3Vsfg+x9OAL1iIATuXoE07tyBJoCASbdykhMUxxLxX1WdWxVLa+4fcXvkJtgRk0+58rOn2Wsf9RRRwl1bCs2CFogRBUVLb7ze1Df6CeYUwPRqWyfFfdR3e/B9Btw4fucOXMsafSSJUtkwoQJcu6555oKiV8gQS4cX8Xjru7+9rQe50t6F/Ik3nvvvRYljCkbRfSSSy4xYtsQOOzpuPx3R8AR2BUBJ3K7YuJLHIEWh0BFH7BAMhpqoq8JQMmkLRwPx1fxmPfUJ9tC4lDWCCj529/+Zn5cDdXC8WHKxDeNxv5ZXt8tkM7QPxGy3/ve9yz6mKjpq666yghcaPVJIqs6FwJpqFQyfvx4mTRpkqW1+fGPf2zHQSoWcEiOpK6qH1/uCDgCDYuAE7mGxdd7dwQaHIGgKqGiYA6DdBBlGQhUU/o1BXMkx4JZkMS6QUmqKRkJqhjkgfMjIXNDnVvAjmMksCDZLNtQAxoUQPZHQmjI3JQpU4zQYU5NJsQNdQyV9UuwwxlnnCGbNm2y5Ni//OUvLbVNt27dKlvdlzkCjkAjI+BErpEB9905AvWNQCBw+FHdd999Zg4jDUlTTfzJ5xfICYSIiZ8AgwsuuED22muvGpuDIXAQQ5QgCOFvfvMbU4waooEd++G4ySNHZQ8CHRqyBbWSPIWPPPKIJXj+/ve/Lx07dizfbU1VzLoeb1BBwf7CCy+Up556yvwNOb6vf/3rde3et3cEHIF6QMCJXD2A6F04Ao2NQFCzmGhRizAzkigXvyZ+w58rrNMQpsDqnm9QzDiGZcuWWfoQCOfNN98sw4YNqxGZC0SH8+Jz+/btTeVryMZ+MOM2lPIXjj2QbnB64YUXZOPGjXLWWWdZQEZo4byTt+Ezy8NvFdepLjZh/8nrJy/jM6lyrrjiCkvBQn1hfOXApaGxqe45+HqOQLoi4EQuXUfez7tFI5A8yWJi/Mtf/mLpMUaMGGHVIYjGZB0mWd6bskEuMMtB4KZPn26RkLfddpvccMMNlri4ui2cc/J7dbet7XqBDDc0hoGMYValMgfjNnbsWAsqSG5hPAMGycQtfK4Mp+TzCJ9Dv8nrh/NkP8nrBbJGOTnSkqxYscICH0hJ4s0RcASaFgEnck2Lv+/dEag1Aky6KDjUgF25cqWZK/GtwjmdSbi2vmi1PqBKNuQYeUEEzjvvPLn++uvl1ltvNTJHDduGMo1WcijNelEgYQRWkC6FQANKvdEqKl6sG8y+gXgFnMNJJpOz5BOvSOKS1+dzMN0mb5+8Db56BDtwvWFy7tOnT41U1eRj8c+OgCNQPwg4kasfHL0XR6BJEMA/DmWECZiJn5quyVUHqpq4G+tgA4njHSXnpJNOshJbKHRbt25trMNo9vsJxAlyC0HCL65Xr17limryOLLu6tWrzUyNzyC/8Y5fJASQBonHx46gBFQ9/CYx11am8gViSB8kHKaPUO+3InAoqIMGDbIky6hyo0ePrriKf3cEHIFGRsCJXCMD7rtzBOoDgTDx01cIAIDABfUm+ff62F9t+wjHA1nghZ8V5BPiyTF6SyAQsCCgAjKHaRziW1W7++675Re/+EW5Ggae+EpSWguc6W/AgAEW/LLPPvtYUmGSC5MTDvIViCHrhX3zOwEMKLtTp06t1OxN0AP9cs2RGqW5XGdV4eTLHYF0QMCJXDqMsp9jSiIQyFGYiJnMQ0tWcJrTyYdjdRK386iE8ULlIriiX79+FsxRGVFi2ZFHHikff/yxkTeIMf6HmDsPPvhg25Z1IHCocvQN+XryySfl/vvvl/3339/yv4V9QrbxzSMidfny5WaaT05+nHykbEMABv2zLvuv6MfXnK43PxZHIB0QcCKXDqPs55jSCITJnvdkMpfSJ51iJxeILeQMUoUiF5LtVkbmUNUwf2JCxaRKahDMrd/85jfLk/VCxvgdokc+OlS8GTNmWIWG/v37G4IQM64ZlECIHDnjCJZJrhqR/FAQCCJ9E4VM394cAUegaRGINO3ufe+OgCNQHwiECTkQgvro0/toPAQYP5IcQ44Yw/3226/KnQdzNf5qEC4IH8t48Z0XKhnfAwkcOnSoHHLIIWYOnTVrli1PflFPFdMq+0WRC9dRMonjgPiO4oeJHPVw8+bNVR6n/+AIOAKNg4ATucbB2ffiCDQYAkyuYVJusJ14xw2OAMEfS5cuNZMqplBaIGIVdx7IXCBwqGoh8IFlgYDxzot8exS8p7+HH37YKoCEdfiMLx3qGhUcCLRI7iN532xPMmaijVHxCLQJx+jqXMVR8u+OQOMg4ESucXD2vTgCDY6Ak7kGh7hBd0AewFWrVlkFDPKzBYJUE3N5soIWPod+jjvuOIs4nTNnjrz99tvl5B8ljiTERD2ffvrp5QSvspOlT6JaUfgoBYefXHiQQAn05gg4Ao2PgBO5xsfc9+gINAgCHgnaILA2WqfBVEnUaIhYhYQF9a22BxK279mzp1WLwIR7xx13mILHC4WO/HWTJ0+24Ig9NSJjCXig33fffddW5zi9OQKOQNMg4ESuaXD3vToC9Y6AK3L1DmmjdcjY4b9GxCokKQQ6cADJKlttDigocvRz8sknW346KmwQWIF59IknnhAS/ULkqhOBygMDvnT0B5EjcjWock7oajNCvo0jUDcEnMjVDT/f2hFoFgiECdQn0mYxHDU+CJQxzJS0gQMHGjEKfmp1HVP6Ci9IIsEMELinn37a0pYQYEEi6VGjRlXruDme/hr1iokVFZGoWVrYR7U68ZUcAUeg3hDw9CP1BqV35Ag0LQKuyDUt/nXZO+bODz/80JLwEuhQVxUu+ViCIsc70abnnHOOTJs2zSpsQMZIJUL6Esy51SGNEExUvS5duljuOipG5OXl2S7r87jrgqdv6wikEwKuyKXTaPu5piwCTKCYvGriGJ+yYLTAEyNw4LPPPjOiRf3SuvrFVQZBMH9OmDBB9t13XyuzhWmUzwRCsM89BSwEUkgULEEZRNqSv86bI+AINB0CTuSaDnvfsyNQLwgEFcUVuXqBs0k6CTVWu3btav5qgXRxMHtSuQK5St4m+SQq9kV6k4suuqg85xwpR0gpQvqQ6ihyQdkjApbUJRDCsA9/kGiSy8d3muYIOJFL8wvAT7/lIxAmep9EW+ZYQoxQtVC3evToYaQqmVDtiVwx/hBACBpKWWWtIhk84YQTzISLiZQACJS4iutU1k9YhnqHnxyN3HdceyxrCCVxd8fhvzkCjoCI+8j5VeAIpAgCrsi13IGEyFElAWJFmayaNCJcr732WoGcjRkzplqbkqfur3/9q5UDw7SafO3sjtDxG8odhI00KbwT/coyftvdttU6MF/JEXAEaoyAE7kaQ+YbOALNEwHPI9c8x2VPRwWJIvIzKKp7UuAq9gd5IkHvsGHDqmUaZX0UuIkTJ5YraaFP9r0nMhZUt/COf583R8ARaDoE3LTadNj7nh2BekXAFbl6hbNROwtjl0zoanoA1SFhoc9QTgsyFohjdRQ1yGZYDwWxIums+L2m5+DrOwKOQM0RcCJXc8x8C0eg2SHABOpRq81uWKp9QIEAkZcNhSuMZyB4e+qoOiQs9MG6pBxJ/l7Z58r2CfGDBPIiXUpQgcP+96TmVdanL3MEHIG6IeBErm74+daOQLNBwE2rzWYoanwgECBIG8l5586du4vJs8YdNvAGn3zyibz00kue7qaBcfbuHYHqIOBErjoo+TqOQDNGAAIQiICbtprxQO3m0IJ/HGncG28MAAAgAElEQVRIbr31VquYQOkrxjOYQXezeaP9xPFQl5Vkwu+///4e/eka7cB8R45AGiPgRC6NB99PPbUQaAmm1UA6A/FMrRGo/dmEwAEqLcyePVuuv/76cjIXfmsKkh5Mu2Hf+MXdfPPNRjaJlnVTau3H3Ld0BOoLAY9arS8kvR9HoBERCEQI8sZE35IUueBP1YhwNftdQZQYx2OPPVYo1/X4448L5ssLLrhAqMTQr18/K6dFtGkgw411UqQoWbt2rZl8//Of/8j06dOF9CWTJ0+WW265pbEOw/fjCDgCVSDgRK4KYHyxI9ASEEhWtoJy05yPO5CQEP3YnI+1MY8tKF/kZiMn3G9+8xu555575LrrrpNOnTpZsl/yywUFrDHVOUy8BGCsWbPG8s6NHz9efv/731v+uD//+c+NCZPvyxFwBCpBwIlcJaD4IkeguSMQCBEKzXnnnSf777+/TfbUv2zObfjw4XL33XdbgXZqinpLIAAJD6/u3bsbUTrxxBNNAXvllVfKzayNTeTYH8dFxYhx48bJWWedJZT06tixo6xatcpNq34BOwLNAAEncs1gEPwQGhKBDOs88W9cP/HSDPS2NG7feO3cdElihYo/NKvvIcP+fvvtZ9n5aTX1WQrKTlD2khW+yk42mACDSbemZj5KSZ199tlmHoQghP2H75XtMyzj2IKS19CKXjIu7D98393x1fa35DEL+0F9O/744+XII4+UTZs2mRpGkEFDHkdVx8+xdOnSxZRBPgdTPkpdSGPCcVXErKr+ar5cg3ni3LP6rhvbpxZwf9b8PH0LR6B2CDiRqx1uvlVLQYC/+BmBqvFeqrMyMT6JSYHTiDNJUF4o8SVB4nZld83mjEOaEd7ffPNNWbx4cZ0jG5mEk4lSVSfLJB7KMaEGcgw1bWFfqIejRo2yOqHJec2q6o99hX3Sx6JFi4Qoz4Zq7I/jonxWQ0aOci7hvPCPCyZy3iFOvKjB2lxauE5KSkqEF8dOq+lDxJ7PJ/GglVgv3K/6ALDnDX0NRyCtEHAil1bD7SdbPQSaMYvTE2DChFjcfvvtFt345Zdf7nJaNVFuICtEII4ePVry8vJ26St5QUgE+9FHH+2kpu12owo/BiUuJydHjjvuOIuADCbh3ZEBCENQIYme/OlPf1pOemqy/+qsG8hmwBHC0lCNc8ZUCR6MZbLS1VD7rEu/gcgTAAEuvXv3NsILVrwCEa3LPnxbR8ARqD4CTuSqj5Wv6Qg0GwQwsxHZuHHjRjummhC35JOARLDtpEmT5LbbbpPs7OxyhaWyk2USnzVrllxyySVm8qvpfpnkg1kUx3mSyqIoVse3L5A4tsdn65vf/KaZ+xqiBULJ+/r16y1vWkPVFGUfgwYNEnzjwAIFcMCAAQ1xWvXSJ8dLKTGiWCFwPACE5iSuXiD2ThyBGiHgRK5GcPnKLR4BiIueBIZUM6W2QF+boHqQjsJOoYyM1XZs6A9CSLoLAiZ211BgPvvsM1ON2G9NTath/WT1BjLA8uqQgEAcURAPO+ww6dmzZzkGuztufoMgQYAxVUKagkmwsu3CufHOdnfddZds3bq1wfzASOdx4IEHysyZM2XOnDlC9Cr7DmPLe1M1MA/7D+NHeS5IOAScKFZaGJv6PdaEOl7TB4amwsr36wg0BQJO5JoCdd9n0yFgLE7rksZL9VXmoN10c2StcGCihIxcfPHFVu8SAlaXiQ4C9d5778n5559f7sxe1YGhiuGX1qpVK1PvatqSj7NNmzZy7rnnCpGsQanbHblinUD2AskJ3wPZ2B2J+OEPf2h4QZrIf4ZvXlUtHCfvoe+gJNYF68r2R38Q6IsuushI3E033SQHHHCAEMRSHXJbWZ/1tSz5/EOfKJS//e1vZeXKlfLd737XSGfAZnf41+6YuDkhtPrWvD0eand6vpUjUA8IOJGrBxC9i5aBQGKSScwG0QgO2iU2Sev/LapxzKhYRDVCgphQ6+LDRX/B2b66E3FlE3x1QKT/MOnjFzZw4ECB0IVj2F0fYVuOlfMNChnbhuPmc1UN0gEJ6dy5sxGn3a2b3CcqHkEIwZcQcpX8e1X7q+7ycOxHH320XHbZZUYyr7zySiNLqHT4ziWPy+6Ou7r7rMl6gWRD4j///HP51a9+JQ899JAlKibnHccWrp+a9Fudde1cwz3ahKpkdY7V13EEmgoBJ3JNhbzvt8ER2FVo0yU6GTA35GRTXiimhCAmBYVFolKUHk/C7NrgB1bHHQQiwTvqUv/+/evUI5NldRWVQGBYn8m7poQmmYSEbavbB/ujwkEwkUImJk6caOogfVRHvYI8su7ChQt3axaGnLAefnwvvviikUaIzN57723nXV3CW92B4dghtNdcc41s2LBB7r33XqvqMGXKFDnqqKMsoABTenXPs7r73dN67A9/OFTYefPmydSpU2X+/PkyduxYS1oMnoHo7amv3f8eCHhwfUgIcBDomKrnGRkawdtKCe3uO/FfHYG0RMCJXFoOezqctP7Jj0clombUxB//iFiSBJ2gW+nktFcrNQtGNsumWLGsLojpJK0qi/5XkJklrYoKdEV9RfT2QEGyHtS8Q5oSe/FV127CWSUQjUDq6jqi9FcdchLWSd5vMjmrznEE4hb6qs5+6RdTLqTm7bffNh+9Rx55xHzKqotFIEGBtO7uWOkz+O2hyIXPp5xyikX41ncL54DP2Q033CCDBw+2AAvUOYJQIEyY0wN29b3/3fUH1kQJ84JMYoL/3ve+ZwEayWNY0+uAfRbrTZQZL5ZIvMDus1hmKynR+9b0cr3PPt1cIPn6S2a0RLrm6T2s2W5KM/RXvf80+Y2u5clIdjd2/lt6IOBELj3GOU3Psiygwc5eM9TzbyRDcnSC6Nu2jeRFvpSt8Sz58IvNckTXtjqhFOoaWRKLaioF24Ksc9A7vjG1NCFz4xQqtOoSoIrbVfa9PvuqrP/kZXXZ1zHHHCPLli2Tp556SvLz8y1yFlIZiNCe9l3T3+kXJY4oWUzZ7L82hKU6+w24QNq+/e1vG2l94oknLDoUP0iiZhvqPKs6PvaH4jl06FAZOXKkYXDwwQebabriOFb8XlWfOy3nqSiD3I56b2Vw30HS9F6Nx2S7MrmlmwqU7Il0zdFXbpbdwxA+/FtVD67WLnwlRyDVEXAil+oj7Oe3EwJhEu7Voa30zcqR97eLvPv5Rvl8YDfpn1OsJK9EiVyuqgERpXQl6HBG35gy4qbuJbLKNy9Klx6DDFEgzx1pR8aMGSOzZ8+2igf4yzUUwaFfzJqQF14QuuAPVh1Tbm1HBr84Ah5GjBhhBI4XZt7QakWaankwnCe4U1aN4wpqbN0xx7dRTad6T8UEs6kSNeV0aOPccSu3bJeFG7Zyx8nAdm2km7pDCEFKETWjl+q2uprl9vbmCKQ5Ahk6saXMY00KnUqaX5YNc/rJZqmtpRny4Ptr5J6P1qmpJkMuGNJFpuzdUfKkSCeVbJ1Mssx0kyBwTCtMJwn6xr86l3hrAgSSI0chcHwPrb7JTfLfEwgM35NJTEOffjDnJl+3Db3PyvqvO2GrrFeWlUosI1994NRfNZ4tWQxlaZEUq+l6nX5+cMEn8sCq7dI+ni9fGzlATujVUbLUDFuQGZXsmGrnCHmZzuSqQjedl9f334LmjqUrcs19hPz46g2B5Js7Vx/9x/bNk1lr1suS4tYy4+ONMrhTOxnTKUdaqypHi6mPnFE3I22oBxoUUPY1odS5LmdANWILRIp3fNUa8g92MoEKJI5Tbch9JkMZFL/G2l9Vw9hwD8iYUDGnYjLVO6pU/eTUvWGT+sjNWV8kz68ulKi6QgzMzZYR6vqQpSpcqfK2uCnlzc/VoSr8fLkj0NAI+ONMQyPs/TdLBCJK1vq0yZDDB3SR9hlFonOGTJ2/St7eHJdtkWwp0QmkRCPloHSQt2BixS+H8AdvTYdAIDYNTXCS+2/ofTUdmk25Z30QUjVOQ5IsZgElbmNWa3nzy3x55N0Vsr4kKj1i+XLckN7SPUtzCKoiquK5rqr3H89Qen96cwQcARFX5PwqSEsEcJXOVVVnUr+usmbDFnl55TZ5b1NUit79RDYM7yUHdm4tmmnMnKuzdfZQHwSddPRl0XI0ZDpX5NLy4vGTrkcElJbpfVWo99g6vbNe/zxfpi/6RNYVlEonVc2P79dNDuraRnL1YUv0AQvylqnuDxYYoQ9bZXJ5PR6Pd+UItDwE3Eeu5Y2ZH3E9IBBTHoZ7VUQj5j4oLJbb3/1Y5q6LSbFODj2zC+Wo7m3kqAG9pEe7PPWYi+sLvzjzmDMyF1cv6+AzVw+H413UAIGK9DnZXbEmv1XcZXI/FX/z7w2DgLq6SbHeT0s3bpVnl38hr6wuli80HVDH7BI5tE9HOW9oT+mena9mVVS4PAt0yMjQ1EDqU5eBbx0RD94cgQoIpJuC7kTOb4G0RIAIVHW11pQj6nGjpGylPuQ/rGRu9mcb5Yuc9jpxFEnf7FIZ3Lmd+s7lSD9NV9I2W33msAbZi398EmnMiyduiftUJdVEzqii8VJSVWRKsS6LZ2rsY6mOJ95WOi6l6k/FYJXqNjGzx6lPnQVG7KB6idSzCd9HRlKrvTbm6aTFvhJ3yA7M8bfjRSBHgean+2RTkby3drMs3FYoqzWXI2bW7kVb5cTBveTYIT2kT7Z6w2mkaqIl4lkzQroSV8TT4hqqzUk6kasNas1km4Zzym0mJ+iHUW8IJIicZodjktBXkRKCNRrJ+srKjTJ9/oeyMp4j27K0nmhJsUbIFVoS4cxoRAMgSD+SIAtmbvXWaAhE1LwW10m8RDQ9jKariClZy8wotvx/WZp3LKaKDW7wolGOmVmq9WiyZx0wyYxoRQQlfbEo+g9UMBGBbH8vUHS0T94iTZnhudFQbNwd6S1lTggVmxHnmN53pap1R7N1LIslV8dxgPqtnjRiLxndVV0bIhDzRMWVitv7d0dgdwg4kdsdOs38NydyzXyAmtHhmaqmEzqJRwle4L9CVQO26A+bNRHpcx+vl1c+3ywbNJdVTDPJF2q4XImSvRL9TLoSMsx7CpJGHtDoFh0zTTkSo9i9TvCZOjaxjariaMmskjZKyNQIrqQsrgSAhGSkj4lqMt8sLcPGeBVlQeBQ3QhZwWVeRx4zuZE59X0kKVllrKORTzOVdrcjaU/SWZUpcharEC2WtnoPDmnbSg5Vf9XRvTtJtyyNY41vs1xxEs3TlXYoeqmEjZ9LwyHgRK7hsG3wnp3INTjEKbgDfG9Q5ajfoARAZxdMeNuVsG1QOWHlxu3y+eatslHdcrYWxYiX0wYB8Dm/sS+GIrWkooiq+5Rkm5m0VLYpwV66eqssXvGF9M7Ll5FD+8u2olYyf9GnWiO0WIYN6Sf9euRqwMp2ydRBs/TOlkVWxxnTq36NlfEEi4Z0ItcAw7oDVP5G2ySr/7fSkmtdVIHr27Gt9GmdI52UTKs3g0T191iZ2q3c25sjUGMEnMjVGLLms4ETueYzFs39SDLKTKpM5jah6wGbK5XZfPQf9ZEzL7rMbHXGzlI/rMSMkigixEq6nU/6jTrMieASyJaOS3GpbMnPkKdfeEemv/SG9N17sHz1hBGytyaNzVdH+LcXr5NHnnxeNm3ZKJMmHSbjxwxVB/qoZixDrEsYV1HhUOXM31FbIhq5UU8p9Xdm90jVbCwzMQKmj5qaaveimsGNcIvVe6h669SHz8+wdgg4kasdbs1iKydyzWIYWsRBGHVTQoCJDZ83c4jXxr8JS5tO8mZ2Y00MRInajgRHQALV+8qWV2yB2+36S8U1q/5eWR+VLaOHBKXc0Vfy94q/Vbb+npZVtd+qj37nY+FbMhZV9VfZsYaewm9RVUpLFXuKNr2/coNMnTZPPvt0vRx/9BiZeMgg6ZmbqT5zakLVcStQZNZuKpTHZsyR199YIvvtN1LOmzxaenXJkxwlDFmawiIKcTA2Do1Qc6spdbuOXDjmcDy7rrFnNCo778qW0VN1sEjeY2XrV1yWvK+q9rvns9ghWFYXg90lzqaPSLFSNv2gArgJpbg4JLKKcG+yNfHi1d1bdc7A10kHBJzIteBRdiLXggevCQ7dfKPMwR2iFv7lEyZUVAF8pphOmFwS018wzZXxviY46vTdZUxJ3JbCmMx8dbE8MuNVad+po5x9yhFy0KAu0jYSsv2Dj8axqrRapGbXrbFMeV2jkac+PksiShamnHasjN6vr+Sp01yO+tIl8gOixeH76FGr9X11BV/UKvtFGddm5E3N5UzAdjdqBLJFKUfRUL05AjVDwIlczfBqVms7kWtWw9GsD8bomk4apsHwxQgbUY06seAzZxKB5svWChAsR5FDuQsTvmWZd9tqLcbYwLZXwqSpk3UZmd6hcQYFJkGvUT4h1R99sUXumzZL5r+9VCYcOk5OmTxOurWPSg5Rq0raShkziACEQBMF8r00mmlBLCvXb5J/P/aiLFi0RI46fJycesxY6dkuS7K1dmeGjTNjmxh7I/jaMuy4ArlLLKvFCaf3JjaUVStq3Fm0SHgyMubH+jqOtpnjbgB5qxECTuRqBFfzWtmJXPMaj5Z5NGHiSCYTyWdS9aTUMs93d0dNzi+4UTIWdTt/1M14RolOz0zhkCSKy6CI6cSt6kyGRjDGNTqYlqEkmqz/W0qzZO7iT+T+x56XIs03dv5Zx8ghBwyUXI14zMSbSmtzxjU5bIIvJE/8iWNlCUEN6zTx8/SXF8gj01+VXt27yoWnHyHD+7XVqgGYzXWfFPLESVIjXhNmPQjeDuOg8QtvjoAj0OwRcCLX7Ieo6gN0Ilc1Nv6LI1BdBMojC3UDEreauUtfycur21fF9coDFsrN2gnFywie0buEx5ol9VWVbP2WQpn24hvyxJx3NAJ1iJx/0mHq59ZG8pS3RTVfXNTIVZZumXCyqoprQeY0PkIDV0QWLV8p9zz6kqp0xXKKBkIcO663dG2tfdneW6milygFVarKbKkmH06QOk1Wq4TRmyPgCDR/BJzINf8xqvIInchVCY3/4AhUCwHuIcjbli1b5Msvv5SioiLp3LmzdOzYUYsjaOFyfdWlocWhcZF810iXhQsrWYwUWxqQYiVl2bEiKdJcfu98tlXunj5XVq5cLWccM1qOOXiotGudZdU4slDOMHsrwbRMgNpfVE2pu0vqW6TpY7LUN44j+GxTiTz6/BJ5/pU3Zfiw3jJl8hgZ3EPNtNHWKshlmzAXV7+7mB4Xx0yFzyyNhvXmCDgCzR8BJ3LNf4yqPEInclVC4z84AntEAAJXUlIiM2fOlH/+85/y7rvvmgo3aNAgueyyy+T000+XrKysWpM5FLcSrc6glEsT9FKMCVKI7RZzqqZ70X3FtKLGF4Uiz7y+RKY+O0+6dFMT6EmHyOi+7SQ3otuqz5u5sum2vDB3QgDRzbSA2m6JHBGRGfjClaC0ZcjWkkKZt3il3P/U60ocM+Ws4w6UQw4aJG1U7cvRY7FUNKoclmr1iMQeW+0Rw5qsEBTO8HcrTD4Vlc+K32uyD1/XEUhHBJzIteBRdyLXggfPD73JEIhp9YNoNCrFWvvynnvukRtuuEEOPvhgOeyww2TTpk3y8MMPy4cffijXX3+9XHHFFZKtiVxr94dSiWJGvhGwqAYYoMkRiUq0aImSMUo2ffr5Frlzxtvy1rJVcsz4kXLG+H2kXwf1gVO1jQLpmUQ5KhmLE6Cg20Pk8H/jZfUakl3kdkIUU60mJYnkqIkVfY16rYVSpP18uLZIHp35jiyYv0zGjhooJ086SHp0bG3FoaLkFCxW5S9Te89M+O7VdqCCeZrtwdzUxLJ3/nZlav/hbxjKZ0WCV9v9+naOQLohULu/Ty0XJXVF0b8gKdJS6FRSZET8NFoCAsEPbtGiRXLeeefJySefLD/4wQ8kNzfX1LePPvpIrrrqKlmwYIERvYkTJ9bSZ45IVVXVEOHKfO7yNbqUhMuFqtC99u5H8uCTsyRbSdP5px0nowZ3k3aZWsZBlbSSiPqu6ScSMlskqTK4hL8dmp5+wo/PfquqqdoXy1dmFtUcc9qTBkdksw25BNVEu7koLi+8uVKmPfmctNVyUVPOOFr227u71v/UNCWawoSoSuIpatuSSRx9oHx+9tlnctttt8nzzz9vJO6ggw6SSy+9VPbdd1/bTSBz6TYp1RZj384RCAik2z1TN4cXv24cAUegxSPAHz2IxUsvvST5+fly9tlnS/v27cvNqP3795cbb7xRWrVqJTfffLNs3rzZzrnmD06qxcU0V79GoRIhiudZkdpFN24vldvvmyW33fW0DBzUT6674kw5dEhnJXGqWkWyddVWquBhOsWMqiEJKHBElpI7Tn3YIhoFG7EUzbsjctC8HLRAaaUF2rM0ZQm+ebjoYaTtmCNy7MF7yXe+cabktG4tN/19qkyd/o5sKI5IfqRQiaSuX4eWrK5BnOfPny9nnnmm3HTTTdKpUyczX7/66qtGpJ966inDlle6TUh1gNg3dQTSFoG62QrSFjY/cUegeSGQTBSSCUDy8nDEySQhKEWYVtevX28mVpQ4TH6oRDSWDRs2TC688EL561//KitWrJDhw4fbb5WSDUgI8hkvU7xIqKxaWkyfG4mCVRIGgdqugQ3vfbpW7nlohnyhOeIuOPNoOXLc3tJWS2mZ8qapSKBZPG2SMLbUvif6RYUjl5/to7xB5HZakPyj/oQ5V+NbtZ9EVQcNZsBkS9SrHmPraIkM6ddBrvraKfLM82/LzBkvygdLl8q55xyngRBtpV28SA2yOXZuUa0MQWAF9LJED45PFiChv5HI1k5fpccduQZ1jTJytnr1arn66qtN6fz73/9uhA7fw7Vr18qvf/1r+dWvfmWq3IABA8rJchgnJ3Y7D6l/cwQcAbNReHMEHIGWjAAKDw2iAAELn5PPKZhPWaegoEA+/fRT+eCDD2TdunXlBGPgwIGyceNGeeutt8r9t9gOEx8EYvz48eUmQb4HcrEzdonSZpTSopJpqZotMY2qMVEPsEBtoxqRqixnbWFUHnj2Pfm/Wx+U7Jws+dF3zpETDttHOmdHoEr2hymDBL+868somn63GgxKlEgFkoFGZ75y0D7ed//nLDM40EVVfou01u2zdSsNutAdRMhjor562arS9dDcJuedOE6+fdnJsi1/m/zuz1Nl5uufyuaY+hEqlSvVqFr2BR0lEAISWHaA+qYRtNqVqYYcPEvs94S6Bp6QNwJJIMpPPPGELF682Nbs1q2b+SAyBqhzobFNpYS5fA3/4Ag4AumMwO7/8qUzMn7ujkALQSAQrZAeJCg/HH5QcALJW7hwoXzjG9+QCRMmmE/WpEmT5I9//KNs27ZNxo0bJ7169ZK//e1vmvJjZbkaFMjchg0bTK3r0aNHeb87K0T4u8U0cEGJBylFlLxENZVHRoy0HZrcN7pZCpTTLPw8X37/72fl8emvyAkTxshPvn6a7NezrWZwo4ZD0zSqOGBiZf/Qwlb64YD9Bsl3v3WhjBrWT+6c+pTc/PAb8tmGfK3nquqaRmeUqm8fDn/ZpYWSqeZakhlD7xJG4wQZhYZSEQQiCo6onlOnTpUjjjjC3knxcs4558idd94phYWF0qFDB8MY/Glr1qyRV155xX5LJuxNg5Lv1RFwBJojAtGfa2uOB+bH5Ag4AtVDIEzw+Llt375dVq1apQ77bc0kCoGjsQ5K28UXXyw5OTly3XXXGYGAKNxxxx1GKE444QRprf5h999/vxGJQw45xPziIIgoeESz4i93+eWXmymQvivmlYupQkVmN0sFogEMpBqhYILqVrJNSd3T8z6Rf943XWKan+6bF06W48YNkrZZRJBCeHSbJqx3Co2LcgxmCsZOWiptWuXIyH0HW13XZ+e8LW++tUzad+4kPXuqD6HiSvQtpBX9DRKIiRWTKtStzMBqS8Gf8SD699ZbbzXljaCSU045xXL1/eEPf5ClasaFUD/22GNyxhlnmPkaEved73xH9t9/fzO1Msb0480RcASqRiDdXBDcR67qa8F/cQRaFAKkD/nv//5vefPNN+Xee+81dY0G4YIs/PKXv1QC0lNuv/12S/LL8hEjRhhJu/vuu02lO/fcc41QkEcOk9/xxx9v6+GAzx9HlqMYBdNqRYCysStqQ+GCyhQrsStQcrZ2U6n8Z+or8sL89+WIsUPlghMPkV7tiQZVUyU+aphRlQ81LUXRYy8jvphDc9TmGtNarDlZUTlx7D4yrF9vuX3qTPndPx+U044bL6dOHCWdckmNorn19OAzIX9ob/QBDOWOggkzNGZvCDDpW3jnRVAJpPrQQw+VH//4x6bSMUaQaBrkG/LWvXt3G4dkcl4ZkbaNvDkCjkBaIeCKXFoNt59sKiOAOoai8+9//1uDB76QY445ply9Wb58uTnS42SPrxukAjMraUaWLVsm//M//yOnnXaarQ+h69Onj/lpvfDCC7YeJlgiV/fZZ59ys+quWCphUfcxU+GU1BRFtU6qphd5+/3P5E9/e1TWakDDpedMlrOPP0A6tsJnTqNlMzSvm9KgqBI6Ik+JKk2woF17b4wl0E8jY2VHYf5zStKisRLpqKRt9IFDJKdNnkx96mV5d/kn0qtfT2mb21oyIyhzZSSW7e1zQmXkPfGLGAlGZSPVy4knnmjqKK13796m0DF+Rx99tBx77LFmTiW4hKhWAk0ggHZcmHaV1AXfuYqqqK3kzRFIYwRckUvjwfdTdwRaMgL88YIMzJ0711Q3EvpiPg0+dAQ5QOBIH/LII4/Ib3/7W0t78eCDD1pUKk74tCuvvNJMsJAHTK7t2rUz9Qjn/OAvVxVO8QgVSzNEM7bJ2s1FMmvOu/LszHnSr29PueSCY2Vw5zZGjEjMy3qIVxbAYN8IjEgQm6r6b8jlcSWfUDir/mCm1aS9aURrVLHrlJkjZ044QAYO7CP/un+m/CKe0X8AACAASURBVObmqXKOqotHjN1PWmcrRjoGnI9F3ZpCt3Nr06aN/OhHPzJ8v/nNb5q/IuSO1C+DBw82shwSNBPdumTJElNJ2Y5xBH9+ZznfIdZ7GpOKx+DfHQFHILUQcNNqao2nn02aIhB84SBc3/3ud+WNN94worbffvuZfxWqDvVSH3jgASN6KG0XXXSR+WrxGwrefffdZ35ZxUVqTlTfMIhb165dTQGCLPCqGNyws3qmKlxmoeRrTdJFH21U1epV+fSzVTL5+EPlxCP3V184KjNYBhLTqCKlBUp8iswvTcMLNMI11z43XUsQL8p3WQSsviVzsbgSJ6geFHR03y7S94oz5MGnX5f7nponS5avkinHj5cendtJa01orHQrSYczemgiHeNEUMnt6pf4y1/8Qn3hztSKGkXmi3jqqadaRQ3GCZzxp0OhGzNmjCml4E+ljf/85z/y+9//3sb2L3/5i5livTkCjkD6IuBELn3H3s+8hSAQFJdgSkv2kwqnECb55557znzkiH58/fXX5Xe/+50l8cUnDgf6W265xSoKEKl65JFHmmkPhYcgCUx5vXv20soKauA00qIEi3cIDcRLyQUF5GmUysrQRLymo2nJA8LfI5peZHVBVOa89b7MfPp56daxs1x7+Rmy76Aukq3Je1GpMvAnsy7w91JTIcJVokd9R8vaVcWynxuh4deXaDvI5I5PpCnBH07PWBU7Snf1bZcjV5x1uAzr310enPmG3PCPx+SiEw+Wg/YdIJmqznFi2YpYZommXcnIVdkRLDWqFzI3/hC5+577ZOGC92Tdms+lu5KxkfuPlLy8vHLTKePXpUsXU93wf8RnEcXu2WefNdPr97//fTPJJpNsiGLwXwzkPt3MTI1wqfguHIFmhYATuWY1HH4wjsCuCARFjMkcEoZKFkxtrM1ETj64n/3sZ/Lyyy+b4/xee+1l5tKnn37aymphwsNkOmvWLNm6dauRN15sS94ySkXxffLk4yUzS2NOlZlB5EJLkAGNxlQCE4/otlRTUAJnOXozCjWgIVNWaM3SB1Shev/992XiuBFy4lFjtWZpXiIIQAlG6C8hutG3EreM1uXUzSJFm7QlznfHWe98MCzP0Px11oxzxiVP3yeNGSyD+vdSZe4lueU/s+TwcQfKKRNHSO/2mnpFTbL5esI5ipnlelJg8buDHXfs3F79EQ/VbhREqyWb8H3jHWINIScxMJHEmL8h5QQ+/O///m+5uZV0JhA8TOAERDDmRCzTApGz3SZAt+XeHAFHILUQ8FqrqTWefjYpigAkC5Po9773Pfn6178uX/nKV8xvjQkagvfnP//ZHONJY4GzPA3SR6Tq7NmzLRrygAMOkBdffFGuueYaI28QPvzfqNTAuj/96U/ljNNPlyxVk6BUOO8H+sUnq6Sg+dLgdzFyqBHUoMSiQCNVX1iwQu6bMU/rkm6Rc086UnOwDZS8LE2wS1oOyymX0NoSwQypNUiWEFiJ7XoV3p6a95E89ewb0q1Nllxw6uFWr1VFTcnKKFC0VNWLa7pjInvBRMmdJU5WbCKWzETfy/zgqPowefJkG2fI2uOPP25BKIw/JlVIGoodKWFILoySRxs5cqRFwTLWIU2JB0Ok1vXmZ7NnBNLtwcWJ3J6vCV/DEWhSBEKEIjnfrr/+ejOrUdYpRDFu2bJFLrnkEvNp+8c//mHO80zi/DEjtQj1O5noUeZ4X7BggfzrX/+y1BZM8iQGZnv84yCH5iNmjv8kt4W3mZHVMKDAPCWtMlSNK9F1Pt9SIA9Nf0NemrtQhu03QM5X02Kfzm1VhVPyooZXtSbq+ihNiV52xG82KaT1tvNg9i6CzClGmE3nf/SF3Pu0+geu/kJOPPxAOfWw4dKujUa+KpqZSm1Js4JZmvxzljxZscnS6N0ETgmcqfhAsAlEG/85yDeBK3xnXPGBhNATwIKJdfTo0UJwBOlheIfYQ/jCdVBvJ+wdOQItAAEnci1gkKo6xGRTQlXr+HJHoCUigCIH6cLkhl8bkzV+cBAzKi4QuMAkjyoXTGvhjxkJZomSvPbaay1XGWSN/vLziS0VM9OGdVHhIHL6r/6CkqY+YRA7FDU1C5Zokl9IXjEVGj5aJ3c9+oKs+WK9nDZpvBw3Zj/p0BpfMpLjJkhgAmtsiYl6By0R++occ1kVWCNnpERevblAHps5V+a8/I4M3XtvVecOk37d20p2VAmdBnmYeVVVTVIhE/yRVVaOLOyLgAYIGiT7Jz/5iRx44IFG1Pkbhxn17LPPtkhXCDi1WclHx+8oeSRshthhgoXsJ/vKhXEuH2/kQG+OQIohkG5EzvPIpdgF7KeTmgjwh4kJGRJHNCPRpihxTPRM4Cg0mE1R6/CVoqEWsR2BDg8//LD5xzHBU1MVUkhfvFgnvJSDmDJUFupg/cR0v/GIKnCUaNB1v9xeIo+9vECT4z4r7du1la+dfYwcuX9/aZepFR2U5OHrBk9JtEDi+LZjafnPKfIhYYTG5EzIRlzaaQ69A4b0k64axDDnnQ9l3qsLJbdNrnTr2UGxtGR7upb6IhIogn9cEg6M85AhQ8pNq6QlSa7mQOoYlFfGGlUVEyu+dBB7SDwJnd9++22LgkXNY2y5FmwEysa64ucUGQY/DUeg/DpPJyjM/9abI+AING8EUNBQW0jsS3oKyNlNN91kwQ0obCeddJKlqrjrrrssmAEyAFnjnckc1Q3V5k9/+pOlsKiq4ctW/lKqYf2oclSiVeBR4ZZ8tk7+evfT8viTr8uEQ0bJdy89QUYP7KHJQ5SK4PNlJtmE+ka1hlJV8XAJIyA0Ucqqqj237OXkoEO4zFbClFWq6ilBDYr/+P0HyvVXnCR7791H/v2fR+Xuh5+XlV9GpVDy1AxLrBnKpfodVmiQc0zdBLYEEhZWwexKvVuikTGXEwCBGZZE0KizKHbJOf9ILTNt2jTLH5iszvG5Yt8Vj8O/OwKOQPNHwBW55j9GfoRpjgATLpMwNTdxfEeJIZEvDvDvvPOOHHXUUaayrV271kpzQdwovcU7BJB0FahxkDjqqfbt27dcmcGwVlEng8gZK+FNbYAlysQK9TX7dfWte/gl2ZRfKt8871g5cdxQ6dyKNBuaYy6C4qPKkip3RGZqchEzxVo+NtP4Eia8VPORM5A4Q0zQKKCU9VKlrVhJLOlasjUlS8fWpdJ/6EBp27m7vDDnPZm/4DPp0K6b9OhGRG++IrRd8aFqA5ijjhL0kFBJ6TsEQCT2JFarldx/+MiRQ47xpzG+c+bMkXnz5lmJLypHMP6kmiHfHPkEuZZCxLMHQQRE/T3VEHDTaqqNqJ+PI9ACEAhm0IoKSfiDxIQMcfvkk09MfaOEFgobNVLZhskc53YUO6o6YGol0AEzHI7vOMpfcMEFNvFHtfqCsgPNcIY/l6YSMX84dDQ4GaWzSlQxikghJjldtnHLNrlDlaQHZn8gB+zTX645V6Mx9+oirXCX098hLKZA6X8QtQQdCbSknJ6U/dICBqM2hwj7MvKrGOi7VXjQr1HFhfJdeapWDurXXQYN3UcWfbxSpr/4khRp2a+99uqjqUnIw6fBD5raJUNfornmgroZQ9XUReZTV9YYWwJWqPhAahKCWzCxkzgYwg7Z/+EPf2jkfsaMGVZ/F39IkkATDJGcZJgu023Sq83w+jYtC4F0u6ZdkWtZ16cfbQoiEMyggcwlm78gcPhH8YLEoa5RExVFZm91oifo4f7777fPVAyA0GF6pU4qKUdI8ksOOcpBJep6YnJN+LBlWE4zXmU+caqsFennfKVcquVJvDguc5eukd/eOVM++GStXH7mRPnKpP2lc5scIxYJf6sdRC3xKQUHqFqntIO+JhPZgE7UFDaRjm2z5KAD9la9skimz5glC5askt7995ZOea101Uz1sUuYo0nZQpI+akRAj1VIK1fmMKuivBKxOnbsWDOtY15FgSXpM2llUOS4NoKKi0/lpZdeKp9//rmZWckzCKln22T/u2qdqq/kCDRzBNKNyHn6kWZ+QfrhpQcCgbzxDvliwu3Xr1/55I0ZDH848oqhsFFTlXU//vhjSy/CZyb3AQMGGGBFRUXlfnJELkISLbUIips626tmpERBzaA4sNEixUoZSjQdhmheuGzJV3/86bMXyoPT5kifvXrJ1ZcfJ3u1y5BcIyRKOrSxz3T7g5kAq+b/UhEjCjmLaaSwjmWRYvzux2vlptunydb8DPnqaZNkwri9pE1msZpjSxNpSmBv0XwNNlEyl5FnZC7gjjoLQe/fv78FOpAUGP84FDfKfKHA/eAHP7ByXvhSot5xDbHOypUrzQxL7sBHH33UFD1vjkAqIZBuf5dckUulq9fPpcUiEEyqTMC/0BqcV199tRE6zKX4NEGaUE5QUzCporrwHfWtV69eRuKYpA8//HAzt+HsHtQW/qiFwAdCEYhmMBMoZbZ44RSHqVXXK9HyU8tXbZQ/3vucPDd3kZx+wiFy7XkTpWcr3UZLd5WqakQ+tKAitljAG/nAiWY14zPkN6YpSNTc2rFTBxk9bn8lckXyyPTXZd0Xa2Vg/87SLidbLauUjohITNVTAkgyNO1LmJwYSxRYyDzJnCH4jAcpSfCLY+xRY/GNIxXJt7/9bbsW2C7kGKRKBNdNIHiNDIfvzhFoUATSjci5Itegl5N37ghUjkBQs3gPjT8+EDqUEnKDkTKEdCFUZyBjP8SOxLCYzFBaQv43TGysA5kj0e/EiROrVMrYG5koItQM1dJaJPiNa+reYlXZNmsQw6sLPpY7H5sp3dq1kvNVJRqxdy/JUU4RtVpclJniP0iGt5ogYJG75j24oxEAUqq4FumAzHhjmTzxxMtK8HLl3LOPlhFDO0uujk9OXEmdRrdm4HCnjeujYpBCeAjg+uF6IgAGAgfJR6FDtQvb8TspSwh6+fnPf24m99DCtVjxnX5D32GCTF6WfE7+2RFoDgikG5FzRa45XHV+DGmHQPLEGCZFQOAziX2JTMVM+uSTT1paCZQU1DlUt2eeecbUGFKQ0JjYKaxOWSZ8plDkqmpWGN6KwyuJUAf8IjX3Fagh79N1+fLQYy/LU7PmyUHjRsnlU46WfXvmSWslb3as+oJL4FOX3r5wVSG7h+VE9uoq0GFqY4B/pqqh0RI1pcYKZHDv9jJ4yH7y4doCmTrrNdmmhKt3j+6am08VUFXw4mVRrBVJHHtlfAKZ4/pA0V22bJmV7+KaCNdXmNwwpz733HOWaLhbt262LeSNB4VFixaZLyWqHutTN5f8hPjf4ZfJumF/dl2gMOq7N0egOSGQbtckiYy8OQKOQBMiECbD5IkRsymRpkQi/v73v7fJ+ZVXXjHTGebX9957T0gUGybh3r17m/N6ZRP9TqemhCKSUaQkLlOK4qrCFWXLO4tWyNRpz0hMzXcXnHOs5j4bIG1UhqOYe2lpoWSqX12cKgQ442tnrsfV7mJJZNdT0qT/EcAAIWYcCHIgifDe/SLy9QsOltnzOsu0J16QFQs+kvNOnyD7DegqebshTUFB4/qhhi5Rq5dddpmZ2UML1xZ1eUkWTPqa/qrUhQmPCGeqgqACo/pOmTLFqohQ25W8dCi9IfAmvNcOBd/KEXAE6hsBN63WN6LenyNQDQSYHNetW2eqW6iZGjYLxC6oH0yo+Mb9+te/NtWEbXF0xzSWTNyCUoK/m/m9qQZkb+r3hk9cwj9OgxriW6Uw3kbWbhUtIzVf5rw6T4YO20tOPelwGdCljXTSOqCU6SKZL82UOOuO3HCY2apxgr7KTggggiZ8EpUKY9uGmCmJK9b3Ev0RSKNq7gbxklhE3lu2Su6b9rx88sUWOeHYw+XEQ/aVjq00RMWCVYhlZSyUEKqqh3We4aGXUv3+xfovpLUqaG3b5ulSfkmkROF6Itcg6WsmTJggN954o5EzHhBIUYK/HdfVUUcdZaZ6SB9pTv7whz/IWWedZdca66PmDRs2zFLgoNx5cwSaGwLppsh5ZYfmdgX68aQkAkyipIjgnYhSlI/zzz/f/JWCqgaBSzZVMXHyBwlTFwoJaUYIcmAyhQTSD9vSwh8utiHvGLnhSjUbXBz1TZU1nd+NQMSV1G2Nt5f5K76U3//zQXnxrXky+cTD5WvnHScjuuZKxwytFBrJVlKRpZ5zGjChL3y0TIcrS6GRkgPUwCdlhFoJVVzVt3hU65+SOFm/ZymJIwY4R5kcnzP1GshW1XTEkD7yncvPlKNG7y3Tnn5Wbrxvlixdt1kTM+t4lhTomJaob12x5gEsUaUUMznqHl1GpEu3rtK2fVsj3JYmBgpfZgIlypmI6PHjx1sFkP/3//6fXYcQsjvvvNPqu2LCh6TNnj3b3qnzGhoJh/G/u+2226zPcP01MHzevSPgCOwGAVfkdgOO/+QI1BcCTHhMoBA4JkPKJpGB/7jjjrOs+5RiojE5VmYeDRMmky8JYQl+oLZmIHs7PYHGEyWfcK7HyR5iZ+l+VWHbWhiTaXPfl+nTZ0ivLh3kzBOPkWEDe0tr/TmLiV+PIaNCAff6wsD7qRqBcsVO6TcKGxnkCnX8tpeUypvvfSgPPDlbS6TlyJknHy5HjOwj7TSNSUZmjmxVop2p5E0r5lrnO/415miCHEpsUGv/9re/WToSXphLuRYp70UCYXzgaNTyJc0NQTRcY0OHDjVVjtJuPFDwAEGwDeZZmqtyBoO3ZoRAuilyros3o4vPDyV1EcBsddVVV1kOr8MOO8yUDsykzz//vCkhpIgIBeyTVTkQCd/540RR9COOOMImZhS+iusybZdGSiRSqukmSkg5oYpNtFC2qlyzYm2xPPjEXHl3+TI5dNQBcs4xY6V3XrZSAc1tpuQtpmWiSvXdfeAa/zo02oV6ph8wi6sRU0dDxyIrKoePHCSDenSWf+nY/eOBOfL+R/vImUfsJ/06igaj6PoxyH9CmQ1ULlEmLZFImH55EMBUykMA7/i+cS2hrB199NEWIMM6lILDJ5Pr9B//+IeV9cKUz3XGckgeJcIgcSwjrYk3R8ARaFoEnMg1Lf6+9xRBIJlQhc/hHcLFpEjReyJQMVUxaYY0I0yMlFgibQitsqfJsCy8h0l0VyKnao6aT03hwddNJ9uC4qi8/t5yueuROZKV20kumzJJxo7oLx0srYgmB9aVg2Jnkk6ZmJMiQ9PsT4OxAnIzgZaROVNGLd0Lpta4DOzaVr57wdEy7fXl8ujz78jiT9fJJSeNkYP7dtQSX/jGJapzJPQ3u4qksCgmmzZvlY4d2hsGBMjMnTvXSnQR9Xzttdda0mka1xEvSroR1cpDxzHHHGNEjcjWBx54wFQ48s7hX0dLJJhOpENhW1pl16794M0RcAQaDAE3rTYYtN5xOiEQTJ/mo1bmt8b5852UEJMnT5ZRo0ZZktZgimLSI03E1772NUvuS41UkrQGc2lt8YsVFmjRhlLZpERg7ZaoTH/2fXllzlsy5oCBctKkUTK4e64lpCVakhhKGvyNlxEIJ3K1hb5W20He1ItR8bcQBsU/MQCJN0aFpdqUdG/XEVrw6Ta5+9EXZc2aNXLCEaPkpAkjNYkw9VrVIKtm9QipTnSDV1+bKzf+7g8yedIJaiYtlLvuusuODzXulFNOsTyENK5XXuSfu+SSSyzZMCbYkJpk/vz55hdHahKu4S5dulh+Q8yvAwYMsOs1EDn6qxjd6uTOYPbWiAik2zXnilwjXly+q9RFIFkp4yyDUsYEiSKHGTXUTA2THu/9+/e3yZOamLfccovl9gqJfmuHlhIBDTPN1/Jb73z4pdzz5Mvy5RfFcu6UE2TSqJ7SMWu7VgkoNLYWU58503x00icyVd3wy0gE5MFb4yKQoNQYSKmBu2MEdJx0GeOk3nCSG9smY3tHZMilx8hDz8+Xx154RxZ++KlceMoE6d+rs/rKiZpkNbJVSWHbvDaqvm2VH//4R+rr1knOPPNMq7dKzkGu1+TJLphU8X/70Y9+JN27dzdCxkPI//3f/wnpSdiWlCYoySSfJr/czTffbP2FBxi2IQUKKU4oFYb51psj4Ag0LAKuyDUsvt57miDABMbEiC/crFmzTOE46qijzHTFb1/96ldNfXvsscdMdQsNMrdkyRI5/vjjLYqQXF4h1UNtoIMIrC0oladnz5dnZr4kvfp0l/PPniQDe+WJFvqSqEo1RDhGVUXBlJcIZ2VPSh2Y3JGHkmhEbY7Bt6kZAgQjlGrqkVD5gTQiif8S6ijxx+UlcfV6iRUXSDQzS7bGsuTtpevkrodnSH7Bdply8kQ5fNQ+kqeP50S+lsZKZK1GN6/4+DMLZOjbt6/5YYZgmvBAwbUKMSN/HCltSEGCahxcAv7nf/7HlqHk4UvH9pQFI0iCsmAkHmZ9+sP/DnLHdUxABRUkwv5qhoqv7QjUHgFX5GqPnW/pCKQ0Akx4wYxU8Q8FZO2+++6zXG8oFkxqJOzFJ46i5qeffrqVQ8J8et1115k6F1SRLVu2mArHMqIDx44dLXvtlfBdIgjBuFVFjYZC6pocxPK7qcktpkSgQMtsLV+9Xe54+FlZvuxDmTxhjJxx3MHSIReDaTE0TkqipruZU1YWZbqQ43gpieN3J3GNfwkbaSPXX/k4J+lx8Gtl55RIi+u1QDBKPCtPinXI8jTM+PCh3WSvK8+Uu6a9KLff84QsWvypnHvaBOnVIVuylbB379pD1bU+2rduQGJnTVtSqtcN14BV/VKyF9NgiVWrVtkDB9HT4domNQ5qHD5xBONwjQbljWu6R48eFjyBise1G0yqBPOQtJpUOU7iGv968j2mHwJeoiv9xtzPuBYIMEkRvUcKhmD6ZMKDsEHwSKr605/+1BzEQ2mkmTNnyrvvvmsJWEmgSrmje+65x8xNTISoGPT529/+1lS6K6+80pzK27dvp2apMXqUOsGr+sG7pva1yRfeRtJXm/R1Ys6QIl1WKluKM+XZt1bILfc+LaUFG7RCwEly9Pj9pa1WaIC6KW1U4qdVUnVD4gwTkamwBP0UXrqOt6ZBYIcKx6cEnS5/x9SqY5QYQSVg+nsmQ8d6Op65mjtm+NCB0qVrL3nupTfljYXLpH2XrtKlU4eEubzs6jGzrbK3uKl/eu3otsrhtJ8MK/cGceOanTRpkl3TKHCoxFzPRKkG1Q1yht8cfnQoyZSTg8hhUl28eLEMHz7cAndCqbiKDz1Ng7DvNZ0QSLdrzk2r6XR1+7nWGgHyvuHLhmJBGgbyazHZLV261CIBIWx8xwyVl5dnBI+0Ij/4wQ/MLEXmfFSPq6++2sxSlN6ipBYTH+YoTFHk66IsV6tWrdUx/e5yMxYTNgQutEQwgiopsk2KoxH5bENUHp2+QF5+9TVNbTJUTjpmvHTv0Fa0EIAmmC22/HA0IlPjkILkzpL69Y8tE4GYSrYxJfWYZz9YuVnuf+IN+eCjtXL0xJFy8lH7SudW6mGnRJASa3hFZmmGOr1YpSTSRgo02XPrUn7PMCWZ65l6vfhrog7/6le/sus+OUCHEmAs49qdOnWqETdUOdYN0a2kLaFB8EILDz4tE2U/6paEQLoROQ92aElXpx9rkyGAika+LZL6QtiCmZVIvuuvv97I2+9+9zsrLs4fESYw/IcwPf397383J3GS//7zn/+0pMCkeCDLPsrFRRddZA7jEDp8mYqKMaOpfkY0YNkkG6iccTJV5EqVjW2XPHl10Xq5+/GXNP/XJrn8wpPlsGG9pFWu+kGRi0zNcZnlrK2MzTUZgr7jhkIgU6/HKEQuq0TrtXaQb150rMyYvUimz35RFi9fKhecdrQM7tNJq0dofkFV4uKq0xE8gUIXUUUXfRbFmXq9vCjjRX5DIlvPO++8nUrIEbTDAwoKNGW8qALBtqyPQkdAxZAhQ8r95UhREkhg8MlrKBy8X0cgXRFwRS5dR97Pu0YIMAkxiUHSUB+I8sNHiDqoRPndcccdpkjgSxT8gnj/5JNPjNDx+e6771bft71sv6E/nM9p/E4U4BVXXCHXaH6vy7/+NcnCqqpkzMyouDjhLKd1NmPq57ShQOSB6e/K0y+9p3VSB8h5p46RoVpiq3WRmsw0iazyQDWY6VStk3yig0SuOFfkDO7UahaFHFEvSPWfU784fCaLNAH0u8u+kLs1d+CGLZvktMmHyLFjh5pfHbV3CXXJpBxbab4+NOSa6ZYWyBYmfxqpRnhoYTnXPtcowTgnnniipdLhAYcAH8yxPMw8/vjjdl+gYFMtAjJ42mmn2fUdfOhCX+E9tQbDz6Y5IJBuipz7yDWHq86PoVkjwITDC5WNZKqYSzEpMXm1a9fO1DTMpeThwkeOZUGFYKJjYiPoAR8iVD1UCsjgs88+a2ZZVDyiBn/84x/LEVq14dprrpbcNlp0CS93fcX1pZW11BSWpQENEVn42Wb54+3TZMHiZXLapHFy8QmjZEDbiEYqZkix5oeLagREQm9RWI0FJr30Y8ILq1lD7gdXAwSKdLxLUIHj6g+Jz1tGoRKnEunWub0cOHwf2bw9X56a8YJ88vlW6d2vr+Tlah1dNcOi4mWUKoHTAJjENcK2enXoKzc3116B2EHmUOouu+wyu34pK4drAA831GdduHChmWMxqXJt/+lPf5IHH3zQAn5Wr15t907Hjh3LH3LCfmpwmr6qI1BtBJzIVRsqX9ERSG0EkhUD/jCgKvBiYqJOZXZ2tvkT4SgOWaOoPRGomEuZ7Mw0qgRw4MCBFsUH+cM5nESr+Bkx2ZGiAdMrWfdR4yBzHTtqDdVywkV+f7yaMmWzpgeb9dp78tfbH5PWuXnyjYsny9Gj+0mHjO2SqV7rca29WaDHmTQt6wAlE7ny6Tq1By7Nzq7Y1DQNYlGlNoLZ3UynkLUM6ZiTIcOH9dfI1Z4y+5V35bU3F0nnLh2le+d2em3qZhHM8FUDxnUPiSMVCRHZPHzgO3fIIYfYtU3wDtcwgREXX3yxLSP9TezIYwAAIABJREFUDmlMuOYp9TVt2jSrbEKgEAmFPQiiarz9l/pBIN2InJtW6+e68V5SDIGgwjGBEaTAHwYIGKZQIvkIWnjuuefM5418cfi3/e///q9NWOTRImgBIsd29EViVZzJCWiw6D+dHLepWfb11183lY8JDv+kBNWidqbZRi2qcLsSuNWb8uW+x2bJ2+9/KIePHi5Tjj9UurTTOqk6eZMwNq77ISIVU2ymOrXv+oeMZL9hkLDZeksVBLCeM7hEotKMyqv51FrErg4p0u8frt8m9zzynCz+4GM59ohD5KQjDpTOuVHJxQ5fRaNX/i8oKLC6rDyA/Nd//ZcpbDx84DbQv39/C3JAicbvE59P1iMoCNUa9wNcD4jOxvUA0sd9lPygVMXufbEjUCsEdv37V6tuWsxGTuRazFD5gTYWAsGcRGADpIzABAjdBRdcYClCCEjAlERCVFKRUPoI3zfUB8pt4RdHzUpKHQVVzoiZNguSML6laUPUDBpTnzfMoFaECT84SBjmMV1WpCbVrbGozF30udz/yAtK1IrkxOPGyDFjhkme+c/Ro5pTy0Q360f7T/g7VZRZylmcbeMthRAoI3IkDWaU8X8jvyDk3oiYvsgjp8W7ZGNhqTwzZ4E8Pn229OrdU6aceqyM7ddOXeyilmmQ8l45aqIlA3FplIcEtlIzP1ekXlv4uWXpg8iGLzXFzde/rilL3pSHHnrI6gejwKEoc+3feOONMmXKFLv+2QalGrMs/nRPPfWUPRRxn1W8P1JoVPxUmhCBdCNy7iPXhBeb77r5IRCUOCYlolFR3UhwihmVCQqTKeZUShhhUsW0xLrjx483x/A+ffqYCfWDDz6wrPZsF0gcZ2sKnb7waYrobEseOPzgSO/LN9JDUJBJS9nLqi0xeeiZN2XqtOdk6IDecuk5x8lB+/SSXGWCTNb0hQiHYY1XYhkMrzKiVsb2Kv2t+Y2DH1ENELChTWSis2uATcsugfCZhwMeFlplRmRg3x4yaPAAmf/+cnlWa/BGom2la4/2kh21cAm9PikLpn52GlwTiWnKEjIH83+ZawF7WLhwkalslJY7XlU3rnGqlmB2pQYrJC9c+9xT3COodpA6ImHxv+Nz8r1hh80F7c0RqCMC6XYdOZGr4wXjm6cGAkGFw0SKAze1JcnthlM3SgImItQE1LmRI0dK//79LUkq0X3/+c9/zA+OoAeUOf6IoF4coYELyfm3AlJQNXzZNP7U8rwxd1nNUwrZq4+TxsbKW8vXyr/umyNLl6yWMyePl6+cpKbXDlGJqkIXVfXE57vUuO4a4yxIGE3ADKqcxS7r9dapUzs5YMQQC0x49IW3ZdXK9dJfVbKObVsrm0ItVk+7uPrP6fWmMq9tZy9zrBPpquseftgEOVQfYFq3bmXl5771rW9ZcMMvfvELe6ihcV9B2HgI4qEHVfvII4+0+4J9Y4KF5EH6MNem2wTcGOOfjvtIt+vITavpeJX7Oe+CAMQLfzWiS/FnQzHAbIojN6oBv5MsFVJHlCnBDtRRDeZUJiQUCnzgmKCYwIJTNztLTozKpFqkJitqLDAxktuLSbZIv3+5LS4zX31Pnp71ivTt2l3OOeVoGbJXe8nJjEk2zuzYUaNaYqnMVLvLifgCR6ACAiQKVlupXmcIa0qsyEpDQIT6xm3Xn15eslwemfqaSL7o9XaYHHJAH2mTjWk24XeXZcEUCQJXCpFTfzvS2FiOG/1eqP5z+L7NmDHD7gGIWniY4d7Blw4Ch4p96623Ws3Xt99+2/LOLViwwO4vor25twYMGODj5wjUGYF0I3KuyNX5kvEOWioCwdmad0yoTCSobqhxJDwl+ODkk082EhbSJ5BCgXxwOH9Tg5LvTFDB7IoZFkfuYFZKmD8TZtCAU4YGJERjBTrZJaILS9QnKaavj1dvljumPicvvb5IJo4bI18961AZ2DOq0YeqiMSzdSpVxULVEZ2NtVXtoN5Sx8OPu2EQ4FHBSnxZ0V77ZtGtlG5rpeb9fp3byoiRQ2TF+i3yzHPzZcPGYum3V1fJaq3Ksm4SKasDa5cdUjAPH3pPQObsHtLFPNygVFNTOPmhhcAgXBSWLFlieRZJT0KuOSK0UfG4X1C28Zt74YUXLD0PD1BBIU+3CblhroD06zXdrhsncul3jfsZlyHAZEFuNxS4n/zkJ3LAAQeYOfX888+X5cuXW2440ixgRqUxQaEmkOwUcyoTEDVUWcYEhSk15MoKf0gCkdsZdLyMmFgxeWVonVSROe98LP+4+0nZum2LXHreZJk8fpi0aaXBC6qmaPiD5ghT4qbKRSGzpk6gVN705ghUBwFEtAT755pJ6HIZal+1a1PJXbQkKu1zRYbv20sy81rLjFfflbnzl0lvTanTtaOmKVESmEgkTdCE9sA/+jIKp33zHdcCIq+TzaOYVInivv322+VaTXJNJDf1XK+66irzL6VCxOWXX261WiFw3FM8BLVv394SDaPUVfShq875+jqOQLoROTet+jWflghA4qjOgD/PunXr5KOPPjKzUKi8gBkVQod5FCdt1LmQ4R7FjpxZqHJE7FHwPpm42bTJZFdFY14tUWGtWJW5NRvz5ZEZr8krby6WkcP3lrNOGC8DtUKDJmfQgIgo3k2aH0zNYrpuXH3jCjOylNSJGmETpq4qduGLHYEkBAhg4CvkK7mp0kvEq6rBBNmUaD7CLbpg4adF8vCjc2WNXucnHD1Kjjh0hLTLbaXqnT7MqE+nRV3rFqUocgjEei8FdTv5up8zZ46p3NRixaTKvQShI88cJG7cuHHlxI/tSVdCYmz6oDbxqaee6kTOr+NaIbC7v7+16rCZb+T2mWY+QH54DYMANzoTC35uTzzxhClzlBgKCgCBC6RSwPxDJB6kzRQMfbENEw21U4liZXJkeUQL2O9oO0+ZfAtLcD7P1xqqbyxdI3/415Py9uKP5ZwzjpSvn3ukDOjSyorck5AkM5Yh2VpqCeWjWGdPXM6zlQFmljqJa5irIjV7pUIIaaWJRSU+OvFJvykLK1HFtzhSIIXkm9NSXe1KW8nY3rny/UuPkEOPGCePz1kkf7vzYVm+cq0UW5qTRHx0mRhnQh9+c4n7Rgmd+pLyImAI9wTuqZ/+9KeWsocHIEp8nXHGGabehfuJd4gcKtz7779vptWDDjqo3LyamqPiZ+UI1B8CblqtPyy9p2aGQFDQwkSBqYd8cPjtEDXHi1xvTDCvvfaajBkzxr4zqTAx9e/f38yuJP0lGg8zamj8NmHCRGmnZiCTKHR9MzWhVqiTeImGLmAA1ZgGlTGIRNUJE1lEJ8PN+SVy7/ML5KHHn5Ge6p/0tXMmy/gR/aWtBq1SX9WSi6jaofNb2UtNTPg46XLMWCxnP94cgeohwMWSSEzCdWVpRRJXE1eUmu95lV1fes1G9Vpuk50l+w7oId17dJeXF38iL7/2hmRnZUvvXt1NiYMa8thCtHVMr3+eYfC7QznOUL877q3BQ4aY2XTE8BF2mAQ24EuKaZWgIBr3Gfckkau4NVAGjBquuCoEomcrljWW0Sr7LWk1/5jmCITrJF1goJqPN0cgJREIBA5iRlQp5hwmEiYOCn+TLgGl4JprrpF58+ZZ5nn85PB5gwSi2JGFHl85TLAjRoywFCP2R0Ins0yrap/gccl6m02URWoczS6SkqwSnRpzVEVD/ciQD9Zuk3898LysWPX/2XsPIEuu6777zAuTw+acscg5EDkRIAmCgECAJAiQMMVgiqXkUP5oW6Vy1Se7bDnQn+SigiVbFEXZJERABIhEJCISgVjsIi7yAhuwOU6eefn7/859PTOYnVnM5p2Ze2ffvvf6dd++93Tf0/+TN9hnPnmRXXPJmTazuc5NqXjOBTCI75I6roI1f0uUcBHATch79fBOavCm8fvqI02/Bbtr2Oq74r9ZsSbJIZefOssWz7nG7nniVfube563l9e321euu8CWTFFqEmmV8d30W1VLAdN/ybXS4V6eOWumzZo5k9gIF44IiOCdqO5EyGItotVGU/fkk0/6mrzssss+Fqglptxhk4lfIwUmJQWiRm5SXvbJMWkeFjTMNb/zO7/jCUsBYmjZAHTUR0Xy5x3na3zk0AwQtEDUKcdj7jnllFO8XiTmIDR2rg2QJiEAOj209HBy8xWaPNdVqOnhWKOHmnSAPoZSMWuPPPWu/fntD1o+a/Y7X73OrvzESdZam1axe8WjJk/Yqrot4jUnW2xHgQIJSPJgA6W8maJ6rSeddJy1zppuDz71oq146QObPXO6zZ3SIPN/t+553f+614vKg0gdiCL3Pro+tHRCeO+//76vFQKBnnjiCXvzzTfdLYHABjR3pP1BmELjTWQrAlTi4jBcs5Jo4oZvPwpkiqc8hikw2e6PGOxwDN+McWgHR4Ek4ShBC/jd4ExNdN22bdvsm9/8ppfSorzWeeed50lL/82/+TeutaOmZJJ2hAcKSYKph0puuYGoPJ5SQlspQBz2Un+FxpZ+AbgspY30UNvWWba/+8cn7dlVa+y8Tyyxr37xIlvY2uLltFDqAf68lJIHN6DRID3EXqqTgyNGPDpSYIwUAMglze9LmUpL0r7l5a+5cU+f/c1PfmHvvPuB/cY1V9hNn7lQQA9BJhhrORQhxPPN6UMxn7NvfyvkXvzTP/1TL21HAATauauuusp9UxGq8KW788473TcuAXEjad0S4YzxJaBujNOKu00iCkw2IBdNq5Po5p5oUx3O6PkOowds8Y7JhqhSgBsaNUAczetF6jeAHOZUqjdQ+/Ff/+t/bStWrLD/8B/+g5166ql2gnx86BOtASkRhjKHoXUsAXHJw48gBXRywLiczrX6rW32ozueU4qRfvvWtz5lnzp7sTVpewZNnbLnDzZsU3ry8S9iuIl2q46r+XzkIahgCMIjamrqrEG+cCdMM/t/f/t6u+epV+32h161l9bvsa9/4XI7YU6LNZXzVl8TNNCpdK3ucGnoCiWPCk/SiRCpSs441iWacgIi0IKjiaNeawLiIBjjYB0n7+vWrbPbb7/dU5iwfslB98UvftHXbrJ/ksMu4Q1DQelke7iPq5suDvagKBBNqwdFvnjw0aQAjDlh1ENBHcyfBwLvlAUi7xsJSGH+1EDF7439KepNXVTMqAQ6TJkyxU2vHIN558ILL/R+RpT8E6drh21BI1FJZWVaovh4Shq8nP3s4Vfsb6SJW3TcXPu9r19pFy6fYg0oOMrKDKcAiOCaBHJDu6deMNm6PiP8fzRpG88dKQAFuLdTchsgVpVb3u/ZTJ0tXLTATlq+2F59/T17+PGV1trSbPNmTVFABDtQqSQE/7DmOjs67IEHHnAXBfxPWWfUK0Yrh0acKNbvfve7/n0ksMVaxU8VLTqJuwFurE8SC//yl7909whSAA1NREw/RJr7HPSZdTyUR/gPsU1YCox0H03YyWpi0bQ6ka/uJJkbGjaYNK9E25ZI8fi9Ua0BsylJfsljBVP/8z//c3+g3HrrrV566/vf/76bU+mDhwVZ6pOgB8g4VFPAdzLe49SdVpQe7yVtKKhSQ79Sg7y3fovdee8ztvbDXXb99VfZJy9abLPq8lZHdQbVr6woERwpSEIPAm1ulhoEb1Ej56SJ7RigAHcqaUsIbADJFWT+zwvWAdPS2rZTJeV++sDz9twLz9rZZ51mv/HZK2zRrBZp5spyLJA2T+uivb3LqzuQV+7LX/6yAy/W5J/8yZ/4GiMqfGi0+NBp49aAORYQR0Qr6/baa691oYzcj//iX/wLT3VCCiG2AebgAWxjX4Q0hLih5fKOAbLGIRxmCkw2IBc1cof5hordHz4KJP4yMG0i3kg6Snb4VatWuWM1UjoatiuuuMJ9cWD6tL/4i7/wdCKYTDHtvPLKK7Zy5UpPXEq1Bo5pa1NGe4E6aqCSXcQbWjO94QMXfNr4xo8kR01bZ3/BfvncK/Z3dzxklbrZ9tvfuFamVBUil7kpY42K6qtVqgayeJFFVV4NOsZrVlb94lyzxznDyfz/2CIFji4Fqve3Ahm4MykqV1vOKQpb97RAU4MCd846eZHNXrDQfvnCantWFUoaWmbanBktVqt7HfGkoV7a7Ys+YfWNdfZ/bv+J/aO04E89+ZSdcepp9v0/+zMPcgB8JdrvZL6sv97eXvvP//k/e1QrIA0/VSLL8alDECOnI4CQWq18TtqDDz5of/RHf+TaO1KgsNYn28P96N43R/fsk+1aR43c0b3f4tkPggIAOYIQvve97zmAW7p0qQM4csLxYPiP//E/2le/+lVn4PyOVoBghksuucS3IeGT7oDv9ENhb/rgN6JQAWsOrHQeAFtFDzNyZpEPLq0HGY84JWDw4uMfbm+3n97zmL38zlq74NJL7BtXn2ez2rI6PpheA1hLJpsAwIOYfDw0UuCoUGCoA6fWSbFfwkjJetP19u72fvv5gy8qX9x7dqkism+85lxb0FpvGQkypZqC5aW93r673Tas22jNmUZbvnCZtaoEWFVyGXE2CFlo8RDGrrnmGk/OTSPJMMES5IDELYJSYKQUgiegqSOggmAn1nui7ZtsD/cRCTpJNk62ax2DHSbJjT0RpjnUxyUxpVLA/kc/+pH98R//sZf0wZRCNQZKaP3BH/yBl9YiLxUMH5+ZxHkaDR3Mn/2/9rWvefoRJH76ZR8+o4lTcQVTsJ4/a8iOD4Aj2pTs9WXlzeqRxenZtzbaT+79lZuffu/rX7ILT55jTVn1JTBJmpK9n1SJim8iXJU4h8lFgY/eu0X5ywHtaiX8nDirwX7vlsvsqYUtdt+jz9gH69fZ175wlZ2gxMKm4Ida7bd4SqMtPXOm8s2lrU9d7UukYS2ybgmGuO6669z1gQjz//Jf/ov9/u//vn3jG9/wdYv5lRRCNDR4JBSGB/zVX/2VBzjRT2yRAhOZAhHITeSrO8HmloC3BGh1yIkaIIfPDA7T+MhgZsXnDYaOmRQTDNLZRRdd5CZVfOWQ5N955x2PZuWhMNOTlgYAB8kSQBeywgUw59tlAlWWLD19ip4mZGtH3n72xEv22Itv2Gknn2i3XnuhLZ+umpSVPoE+aeOig/UEuwPjdIZToKA7HX/Req2fxlJeptaSXXeF/EuXzref3POc/dcf3G/XXX2+fe6iU61JdtiKXAqKadljMdFW8u66sLegE87CukXQwizK2qZhPiWN0E9/+lMHbBs3bnQ3CfzuAHRExBLA9Ju/+Zt29dVXf0QwGz72+D1SYKJQIPrITZQrOQHnMVySBsC9/PLL9tBDD7nvS+LQTHJRzKMwdcysODlff/31boYBlOEsTZQcZldSF2CuwS+Heqls54HBfrwn0W1VFZzAm9KPyDxKoXqAXQ4tnEDaqnWd9tfKp7Vu7fv25Wsvta985nyb31bniX3Lil4lEaoHMKjP2CIFJioFPBCCqFahOTCZ+46ma+S/1qY1tlTJgWvticeft02bNtvMubOssU2+oiJGSkFBWVTdrrHWcbgwDFsrbAPAEZna1dXlmnUiW9lGlZWLL77YtmzZ4po5zKtvv/22/at/9a9cgKMSC1VbkvJfrOtEQBt+nol6bSbzvCbbNY4+cpP5bj8G5w5YS5g6ixFfNxqM+LXXXrPvfOc7XpmBwAbqNeLIjPPzLbfcYn8mx2nMMP/8n/9zB3Ici2QOMydvFX2Q0wrfGYAgjtOjtSTDW7qibHDSNOAf12/1trm/Yg8//6Y98uQqWzq7zb567Xl22pKZVoczuAcv4BJeVA5VlN0RxI1G37h9YlCgplII4K0mC6RzVwSCeUKS67L151O24o2NdsdDT1uuWLIbrrrQPnnO8dYiOytCUqgpHFKDsO6HR4ejZUPDhusEAttNN93k/IEgJfLIkeuxtbXV3Sao3kIeSHgDPnXknSO5N+9Ex95www0O+AB0aPlim7gUmGxALt7NE/deHnczA8SRIgSpe/bs2QORZp2dnfbwww97PjhAGFFq+MqwH5o4MsIT4IAphfQiSRkt9sX8CqOnbyT5uXPnuuQ/XNs3nFjoCdAcEHdXTlN6SL53W3bbP9z/lL2zYZd99qIz7ZpLz7DW5gb9Lj2EtBIpJUT15pGosUUKTAIKoInTNJFbSAWM2CXdtqJbBcrkT5rKVOzCM+bZgvk32d0PvWR33LPC3vtgt91y/dk2t62kFCUNvhZH0shBPYDdjTfe6OW8ENRY6whrrGHWN5UgWNf/63/9LzeromWHJ6DB4/Pzzz9vn/3sZz35MJGspCIhECLRwE+CKxSnOAkoEIHcJLjI42mKSNMAt//xP/7HALPF4fkP//APHZAhlRO95sEIYvLf/va37ZFHHvE8UUjkSOgweV4wb4AhaUdg9skDg2M/rtWUCwJkNXLIrrX2vDQAr75n9973kLWp1Nfv3fpZO+/EeVafrVhB+wnD6YkTCnVJdadHGN504QH3ceeJv0cKjGcKlH0tuU3VwRvfUq6VrqbWkcauXhVMls1ssG9/+VJ7+rj5dvcvnrB1G9fYzZ+/2i47oUlRrUETN5JwlQAutGn4ub766qvW3d3twQ0kGGadv/jii66x++QnP+lmVtY69V1JIgwI5DeAHZHrgEHSEhEYNRY+MJ6vTRz75KFA9JGbPNd6XMwU0wjmEJgtSUNh3PjG4A9HTUZMJAQ3IKHT0NxhIr3nnnvc9w0tHe3RRx/1kluYXwGBBD0k4M+lf3bSw6cs7VnQJFCPQfo3BTJ408Mlr982dRbtBz973u7/5fN27pmn2G99+Ro7fX6rcmTpoSXwRiGurJBcjZy4pfPTcfja4U0XzaqBkPH/iUwBKj14RRKtFS0J3fesLfeCQyfn6XtSWht8rtXyWDp/ip1x8mJb/fY6e+Dxl6yvWGOLlsy1OvnVEfVd4wJRNV22+nUXB/oXYGyUEHWcAhtOOulEW7Bwga913CwQ5gB3RKEvWLDAwR0mWfgFrhS4WcAnEPJI9k11F7YRSJFEsQ/VCI6mHZzI13GizW2ymVYjkJtod/A4nw9JeckAT0qRJ554wiss4NeC9P366697sl8kcwBdslipi0rkKWWAML1QjxEtHcyaZKL4wyVauvBcoBwWZiB8dGTWkQmI5jUa9BDgMdJXydrKd7fYX/3t3Qqi2Gq33vQZu/HT59rsprTVYTISYDMFNdRIY2fyD+LBRbqSkGwkgrhxfhvG4Y+RAuidB7TP3PZaP4lvKJ9I0cO2jISdrEBdWguvrbXZLjjnJMVEFO3uJ1faG2s22YJFi62lWcFC0t6RexE1t1eVwE0BsMh/Dhj1SQuNGImSfF//+3///+znP/+5u1tceeWVnhsSn1gCHRDc0MJt3rzZfebQ1MEX+B1NHd8Hgpuq84VPRCA3xot/DO822YBcDHY4hm/GyTK0ZNHBQMn/dNttt7l2DU0cjJiC9TBcQBz54ai8gAl2xowZTiJ+I7CBqFWiWvlMVNuSJUsG/OyGO1EX9aDISxfXIFNoSlbUit4LadVI1fOit1C0Xzz+gv3yyRdsydwZ9k+/eoPNn9kijUPJssqHRTkuHLWlRIgtUiBSYB8UKAG+XB+Htlu5F6WsI4m2l/oqlW31mg32f+9+yrYplc+tN33Krjp7iU1RguGUEghjp8XbLii3hy829arObv/JPziv+E//6T+5do1qDmjc8JlDY/fv/t2/86TA1FfGxQKgRw5JhD+AHJo7zK64ZqDlTwS+yQYE9nEJx+VPk+36RY3cuLxNJ86gEwk48V+DGeMjhwSNpI2mjcAG9kOzhpRN7jiY9AUXXPARp2XSi2A+gUknCX4TxgzFhi5uHi6YfdCmUV4Lu5AqQ9r7m3bbX9/+pD3z0jv22U9fav/0lmtsjrRwDeU+mVDJmZWRyRU/IH/OxBYpECmwDwq42ZW15zo1TK56CdBVBOJwTZg1dYqddeaJ1tHZa7945Ne2ZVfO5i+eY61NdSoDFtbZR453PFftTdq9U04+xQU+zKQIcIA2ApyIYsflgmAIckbCS8455xw7++yznY/QMLMC9P7yL//S89Lhiwv/4Dj40XDhbx/TjD8dYxSIQO4YuyBxOBOLAolDM++ANiRi0oqQToAoNEyml19+uSf4XL16td1xxx3uxJxkbofRUoKHdCIwZbRuNBYujJdXAt6Gvw81maT0EEiV5c+mh0lOIK5T0v3jK96yH/yfe6QyyNjv/9Mv2mXnHWeNUrvhD5dCM+DaAXx+CjIVBaPSxLo6cTaRAoeYAgNALijW9FXrR3o2rbu0f0lZa23GPnHKUpsjgPXoMyvsmZVv27RZc23qtDYXnvyh7EJX6AMTKyuSb/QFiEse3OSSI8iB2qsIgU3yqyNhMEANoHfVVVf5vmjsSFNE2hL2pQLMfffd5762AMME7B1iasTujhAFJhuQi6bVI3RjxdPAi5HIwzsgjvxOmEIITMC8QUACDJYINRpRp9RZhCHDiDGlAtQAeJhYKZqNP1ziDzMWCXoAzOGHo/HkpFdbu7PPfnL/07bq1TftygvOtN+84QqbWq8EosJtZQE3qqXi/UZSYBKRKJZV3ylNRNGh2CIFIgVGowC+qDT3e6tq5Njk2105p/WEj6leea3H9dva7f/+/Gl78a0P7OqrLrabrzjdprc0uDBVI9/UTCZ0mAC5muQE1QHgmkH0OuucpMAk/gbYERBB3WXqL99///1e4ovACFw3Fi9e7GZWgqvYj+h4tP77yjNZPV18O0YpMNmAXDStHqM34kQcFosriRLbsGGDfetb3/KcUP/tv/03z/+G5ExEKmZT9gW4Ae5++MMfOjlwZuZ4zKaAOADdhRde6BGutLEsXvbxJMPykesuFeyFt3baX/zdw7Z9R4f91m3X241Xn26tdSofRFRq6NSNQkH6B85hkkU14IkW/LyxRQpECoxMgWAE1f++hFg3fA7ryXXaJADXWiOtMH6n05oydu5Zx1tjyzR76PEV9uYDS7IRAAAgAElEQVS7a2yOtGWtqgiRVuAEWrzETFsjv1bWZdIAb7hXEAy1cuVK95v7wQ9+4MIeYO3f/tt/6z6zVH8gmhUTLAIk5lc0dwiEgDf8b0lPggAZ2/ikwFieBeNzZiOPOmrkRqZL3HoYKACj5QWQQhOHpPy3f/u3tmTJkoGAhZ6eHk81grkEEIe5FcaLKfUP/uAPnPkuXbrUbr75Zj8GJ2XAHf2OJckn+5Kwd1tnzn7+1Gp79PEn7dSTjrevfukzNn9GgzXgaF3MaRfMqJkA4RJNYvUhhG4B7dzgI+QwECt2GSkwIShQ1cKzdjSfIBQNTqzsvnIKhNC6I0q1qLJdZXIxyu3hjXXb7W/uecp2btloX7nhKrvy/NNsSkNGgM/jy6tqvUFPVXiAr2+994uHAOZeeOEF5yPkn1y2bJlXiUBjB/8hcTg8BW0cNZdJJPz000/brbfe6smF8cGNbXxSYLIBORx/YosUOCIUSBYXQO3NN990x2K0a0SRkcDz8ccf97qKmEfwf4PZEn1KHjgi0fhOBOs/+2f/zEFbfb1yyeGzlhFrh4l7RYXw4AjvQC39DuiSDxx4LKd9Xl+/x3589xO2e/tWu/n6y+3Tl51lLfU8IEh9IC1But4fKmgP1L23oaAtArgjcrvEk0wgCiTrKCyo6grS2nKfVjRzvn7xP0V4Sis6vGxnLp1u/8+3brAHn1ih9fqwvbNuo33p2stt0cxWZWzUvshk6kpB5NLyFdW1TK/iC5WigpPqmuRre4WX8UoS/ybuHC0tLR5MRaojwBw1man28M1vftO2bdvmFgE0e7FFCowXCkQgN16u1AQZJ8yUMH8S9f74xz92DRspAYgsA+CRWgTwhrYOkytmDkyn//N//k/PLwfjJYoVjV0w1QTIhtOzkhuISkHu592TkWKwIahCD4jtvSV79uV3lVn+MZs3Z5r97jeus1OXL1LmeTlfy/+GdCLkraJmJNmxeLh4q2oT/KM2xWjVCXIzxmkcAQoMij18CoCuuq6GnL0iaMZv/kDynbQm5aS6eErGvvYbl9ryxXPtrgefsO/99R32xc9dbeefushaVFkloxRC+KoWiykFRnC0eEBG26gZprU8tHoDgiSCYGIVgBehpfve977n2jf4DS4f1113nZtiY4sUGC8UiD5y4+VKTZBxJlq54447zoMdKK+DaYOyW6QCIJKMPHL4sFAnkWAHTCP4r5AcOHFMdm2ZpHlaiGEDtKneKeCNuqdI7KT8lRUmL0fqt7b22I/ue86efHalXX3R6fb1G6+wpQtmWa2eLmk9DNJ6ePgjR8yfT+FvghA9TiNSYBxSADzHeq7Vel48d6YCF060D7d0Kb/jr62jJ2ez582w2joBuEpagC4AxpJcIlQsQgKZKrXoHYEsafAehMh7771X7KNmwHQK/0FAJDqe1Edo/COQG4c3zJAhTzbTavSRG9/367gcfeLLQlkdSuzgYIyJlcYCJCXJd7/7XXvjjTfsrrvuMkwhSUQqv3O8v+sVNG/ElX5UGwcgK5VqrF2+Nk++tNbuf+QFSewl++J1F9t5py6xBplgstVIOAd+3hcPADxwBs0945LAcdCRAhOAAjWSwirlvFa2NG5alzKeWmd/UelJ3rL7fvmMtU2dZTddc5ldcMI0a0h1exWJXE2D9kpbrY6j4jF+rklLNHHkmsMn7uqrr3btG64daPu/853vuEUA02qSymgCkHFSTmGyAbloWp2Ut/nRnTSLDJMHYf6ANPLCIQkvWbLEo8jIHYez8b//9//etXHsP3RhDnwOFhjEbiGw8KXkb5LK5eu2sTtndzzwjK146Q37xBnL7cufudgWz2rVrjjXlCTFCwCK15Mh3s20dKTjqpju6BIpnj1SYJJTgEjXsrTuJOxmeddpzc5srNhnLzvVFi2aY/9wzwv21z96wD686lT7zJWnWludNHMCfzzUUphWWc9BPhugJAANjT+C4/e//32vx0ouublz57rfHEmDaYC+2CIFxgsFokZuvFypCThOmOWuXbvsd3/3d738FqZTnI03bdpk//Jf/kv77d/+bY9KHdDAVTVxCSmc1bpJNBhDAXE5cf+8cNrqNRvtr3/+jOU7dtstn73EPnXRqdaQzQTvt4rK/0i+V5RE6Cp0RGf+ck0f2G4C0jxOKVJgvFCA2NScXlkFMqQrObxWpS1XJRbCkiSM7ekt2M8ff9nu+eUqO/H44+y3vnipnTQ91GstpKmjqnQlQ/DYUHCGf1wSZJUkIicpMNsxtbLvWPJSjhdaTrZxTjaNXARyk+0OP8bmS4ADvnDkituyZYs7H3/ta19z/5XEvJEAueFDT1L1sh2TaJ8A3O6+vD36q5ftFzK9zJm/zL71pcvspLktVieHGST7sj8KBNKU5qCi2qqDbRC2eekubxHKDSFQ/BgpcEQpAJAjv1xdTV7rNa9PWYlfde4Gkar0CcwVrKNcZ6vW7LG//+mvzPq67DdvvNTOP3upZVQtok7q9gwSWbXBRxKAxjugDcuApywZsk8CAiKQO6KX+5CeLAK5Q0rOI9vZUInryJ45nu1AKDCUgSIVA+rwl0uYK8k7AVNo3DwdyDBgVSNtXPiTX52k9Xc2bLc77nvc3ly3RWaSy+22y09Wf8ozJx84k0SvFFR6AOADJ58bdUeZoKEt6ONIQZKcKwK5A7mu8ZhIgUNCAaUTsXK/EgbXWQlfN61LVq8LdtKmk3KIKNWCtHObO0r200dftF+9sNqu/MQZdvPV59qiGU2DQUzsKcAGOBsO6BgrSvgyLhZqyT6TDQwckmt2jHQy2a5d1MgdIzdeHMYIFCBBFO5sShhqeiE3E4/qGd1h4vq5qO/dhZI98+p79rMHnrDGhka79fOftrOOn2ttyhOC0ZXj+J94VD4RzxqMsYPSOn2F1AgjjCNuihSIFDgKFECoUrJvfOS0ZgdWsy9jAFkQ8lSrxYMhdveLD7y8zu598HHxgSb78k2ftDOOn2PN4gP4zrF/GW0e8hlg0BMJqTMSTcIlnKUEcQ4e49UoYhuXFIhAblxetjDoqJEbxxdvhKFLHncABhOG8ZaRwp3VwuBzlpeZZePuPrtTAQ0vrX7HLjj7ZPviNZfYnCmNMqXiUTMEqI3Qf9wUKRApMN4pUK3yINBVkLa9R0zj/c3tds/Dz9hra9bZ1Zd9wm656mybmpXvm1wpKvKdK0rzBm8gaYnjNucTI/GKoa4X451Ok2v8EciN4+sdgdw4vngjDL0k35gioE2+MWlJyKkyNVJDXcZeCdAvv7XJfvyPD1t/ocZuvvFTdslZy2yKvJvxhPPoU/m/xBYpECkwMSlQ8bJe8AfEO9KBK0WJolVzeu/oKdgTz79k/3j/k7ZgyQl22xeutLMXNFt9oV9B7XWWE6CrFS9xZZyr3sKr4mr5xGcuArnxeudEIDderxzr0X0mYpsoFKgp5zz9QG+NqjiIWddXesVjFenaX2f/8Ogb9sgTT9npJ863r3/h07Zw1hTLuBM0ZhQ5R0tjZ+lGHReZ8US5H+I8IgWGUqAk0EXwkicCB8zJDFvGfCrBD2hXyRftjY277M/u+pVtaS/YV6+91D5/4SJrloCYSqmSBHWV4Q8KfAr1WvCvANfJ85Zo+GhbHbc3XARy4/bSRSA3ji/dyEMPTnEyh5RUYqskU2raPtjcZT+8/VFbv6nHrr/mHLv+k6dYm0r1kKLABPiK0tzhuJxCLq+oFmuwnYzcf9waKRApMG4p4Ho4rfXgQYf7BS4XGEmDdg1TK1BvV3ef3f7gCnvwxffstDNOtO/ccIEd1yTw5+HrpCjB7zYdgBu+d4A55xxRMTBeb44I5MbrldO4o0ZuHF+8EYaeEytNizlncn3WW6izB17ZaH9//7M2b2ajfUPM+Ozl0zzyNNRpLMjjJeeMu5BqUj65rDVXWfoIXcdNkQKRAuOcAoOBTEHvDnzzICite9764B/6nCnmPB/d46+utZ888Jyl5HJx641X2gWq19oovznwXEYRskF3H7znIpAb3zdHBHLj+PpFIDeOL94IQweW5WVK3ba91+68/3l7YfVau+iS8+ymz5xmC1uKVi8tXE1NvZyclejXzapAP/nNpGp1nMr0SLp25h5bpECkwASkAMmH8JELGrjEz21womVp6Al7V7Euol/LRVu3vcP+7oFf2Yp3NtkNl37CrrvyLJvZ2uBVIzLwE6njEAz3imqfgNSbyFOKQG4cX90I5I7lixck5UFmC/MdbroIiULYCnvOFcr2q1fW2Y8feU4atrL9kxsusytPmW+N5IVTbin2yfC5TNpQSdKylZBiICMjbE1J+acyTeop+sgdy3dFHFukwIFTgIhVXlrjbg4luCkYRB3aCbixvUCUKlVcxFiK8rndkyvbY8+/bg/84lc2e8ZUu/ULn7FTl023JgE5/O2kw1PeOpla/Q9fucC7AsdKQOOBjzoeefgpEIHc4afxYTtDBHKHjbQH3LH7rEjapbYpLFJ6M/UlplriXT+m2KrPSM7K3g7jzMnXbbvKNNz7y5X2+JMr7Nwzjlex+8ttycwWqwe+eQ65oXmeYLTDdW+AwgjiDvjCxQMjBcYFBYYKg8N5QPJbdbuX3kOH5wX67MUNXfbjux9WWcDtduOnL7FrLzzFmlI5lehKIwrKBFvnlSG8OoSnQIKXhcAIBwpDTz0uaDV5BhmB3Di+1hHIHasXD/MG7LPahoT7F6upA4g2pXg9tVJXb9hpP7j7Sdu1c7fd/Lkr7bLzT7bW2pRMqUowACj042GovIYz72OVBnFckQKRAkeTAjwfBh7wYhu5Ut46+s3ufOjX9sCvXrKTTj/Z/snnL7cTp9ZaU0kR8pTwkyavXENpsJCVEj0dfneD1V+O5oziuUejQARyo1FmHGyPQO5YvEgJgJOZwgEYoC5o6OSRonQBcjaWJo60AZtytfbgyrV23/2P2fJZTfa1L33ali+eY1lp7TKqq5jhOLUknWdKLNWrPMQWKRApECnwMRQYCuRcoZbvkjuGgiIU3f7U29vsf9/1lBVVKvC3vnCFXXnqQmvOiEMJyBXkskEJQBrauaxKfbn46Nq52I5FCkQgdyxelTGOKQK5MRLqiO1GPiZMoYA4+a8Iw/n3lNL8KpeTmyoUXdorJvnWVqUIeOglW/32+3btxafYbVedZVMb5aQsqTgk/FSyAbdm8I2UvxTExon5iE0mnihSIFJgwlCgxvJy50gp56TSCCu9UdbW7+q32xUV/+Jr79lll1xgN191hs2c2qjURiHJeErm1WBSxXcuWgOO5VshArlj+ep8zNgikPsYAh2Fn/GPC0BOpgmAm/5K+ivjG6cNXX019ugbW+1nj71oTdZv37j2Ajv/5IWWqa2T+1xF5e3R6OlA8U1AXEVoDhCHTKwiDlWDx1GYWDxlpECkwLimQE6CofMR17IpQUmpzzpJc/Tiervr8VdsZlvWvnTtxXau6rW2SPBM1xSQRD0qHmjnyYRjOyYpEIHcMXlZxjaoCOTGRqcjuVfIkO4QDDgmCJdyR+ICptQ9fXbPY6vspZdftXNOXW43f+p8WzKjwffNi1nCKms9sCH4wWGZpQ831nq6EfqNLVIgUiBSYH8pEDgJ+jj4EVq3rCLdy6Wy9aUabPWHHXb3o8/ZpnXv2bWXX2CfvuQsm9asahCulcO5A285BW3FdkxSIAK5Y/KyjG1QEciNjU5Hci+gVo1MFzUK7S+Jd1ILsUcRq6++vdHuUPj/nv5+u+VT59lVZx1vLfWSdPE7oUSOUgekayhqnZgwQtmcIVAumGsjlDuSlzOeK1JgglBAzIj0JGIvJSJZxWuo1YoQmRG/wm6wqbNijz/7ij385Au2aOkS+/y1V9hJC9usNSX454COEoCxHYsUiEDuWLwqYxxTBHJjJNQh3I0SOURwuR+bJ9+EFcr0qTxMlNABeGVKOSXsxaCasZ0ypd775Ep76Ilf2/HLFtlXbrjSls6dbg3aNU1fHFHtj2+VVCh8X9XJ6deqqRVNnRhvTDFyCC9m7CpSYBJRAGtBCjBXUh7KdNbySnsEP6tVYFXa6zzXWXs+ZS+t2Wa33/uEdXV12hc+d6l98vwTrVUyZr1zPRlmxfPcaxf+pwYopEVrwdG7mSKQO3q0P+gzRyB30CTc7w6KjrxICyKtmxLzuhlUjAzQVgRruTOxKp8WU/bB1m774Z0P2ZqNG+2z11xm1112ji1slLkiMr39pns8IFIgUuBQUQBGNRx2UearYkXxM0yvW/f02H0PP2NP/3qVnXbWmfaVz19tS6YE9w80e1lFXWF2rUiArTiQC+EQh2qEsZ/9o0AEcvtHr2Nq7wjkjvzlwG8N00RJ73jBZcTA0MWlAHVicEUJqbtqmu3Blz60nz/4tM1sSNs3b7jczlg2wxoyYnbyhYstUiBSIFLg2KIAQE4BWQJmeVxCBOh6CiVb9do7dtfPH7V0Q4vd+PnP2qUnz7UWJSfBb65IzjkJraQoCXnmYjDE0bqmEcgdLcofgvNGIHcIiLifXWCeoDYDQQzBH07mCkmmmBqKQnEbdufsxw+tsF+tXmMXn3+m3faps2xJs5yLBf4qSkmSqo1Abj9JHnePFIgUOOwUIFcSFgYlA5a9tSxMRoRrQaDuw4077U7Va331/Y32qUvPsZs+fb5NlYCaFdgjpp7k5+jjPOVSbEeFAhHIHRWyH5qTRiB3aOi4P7142S3PFSdfk6rTsIrcKJGI2co3N6sEzrNW6t9jt6hO6iVnLbPmLC7FKSupqD3BDClqeMUWKRApEClwTFGA9EhKSaJgqxoCIdwZmEQlWB7KqghRsgefXW0/e+hpm79osSpCXGlnLGhT9RmOEaDTMTFZ+dG7oBHIHT3aH/SZI5A7aBLudwfUWqiR5FqjHEwuj6YbbVt/2X7y8Ap76OmX7OwTT7dvXn+OnTivVpq6nBX0e6FSqyoNMsNKc0cYf2yRApECkQLHHgXQrlGVFS5HIkt83+BXZbmS1FiX/H7fXL/L/vanv7A9XV2qB32FXXvRydZGBZqSQr3S4nkp8mdGYfVIX9sI5I40xQ/h+eKCOYTEHGNXRUCcpNaSJFYZImzNhzvthz+919Zu3W033fR5+40LFeGVIvRBjsAZcjYFqbZOIf5plbqpKFIstkiBSIFIgWOLAm4kFZAj9l5VaFwXB5BD0+YJldx3TpzPtXO3/+J5e/jplXbe6SfaN268whZOa3JfuQTITTZgcbSv5WSjt3wyJ464MIGmcrTXwRjPj59b3vpVZmuPwlcfe+Fdu+u+R2zO9Gb79lc+bycsnGqNNb1iZ3Vid1mHcGmF+mOKrUhSxciKmTW2SIFIgUiBY4kCbkL1AK6q35vDOrYS3SqtHG4kAnhUdyhpx4JMqc+9ss7+7mcPW5812O9/+ZMeCJEiNUlanE/7TzZwcTSv52SjdQRyR/NuO0bOXfGoK2qfKo+SXkWBs6zqoabkx+YaM3zgyLckc2ihGpmVVUQX23aXM7a5o8/uuPsJe+2Nd+3yi8+zm6+7xKY3pOQvoj50DCAO0JZRyS3P24SXSVp+JzC5aHU4Ru6COIxIgUiBoRQgkMuBG4gOEOffeRH5QJJzWRn02ZOYix8qCYmt39lrP7nnGVv52mr73FUX2I1XfcJmNkmI9W5CP8EtWAAQs602pdW/88WKhFvy2YljqkBhvBgHQYEI5A6CeEf70KiR2/8r4DhKNQRThCeUa8Vc6gXrxFTK/ao/iI+HDASqixqCGsS4BMaoM0hcane+ZM+/vdnuvOsBAb+y3XzDtfaJ05ZZQ7ZGNVIF4uga6dWl2NgiBSIFIgUmCgVCEnRmA84L+joJp/rS1dNvj6xcY3cSCDGjzb5y46fstKWzlPRc4mySNF3gT552xEU4n6woHJZja2oz8iEuCMiF/JoThVpHeh4RyB1pih/C80Ugt//EJBgLMwElZ3DqLYnB9Mqp94131tlxSxdZa52MBxIhgWWkFMmUJS9KU7eho2B3PfaKvbzi13baSYvtC5//tM2e1mq16o8w/DS+c9q/RuH7Ecjt/3WJR0QKRAoc2xSAvyHWIqdKvoXbacDBB7hfG1av3Wn/8NBztnn7DrtWyc+vv/Bkm1qnCq1pRcIKvWG0rYjvFsUjd/VWbOuO3XbC4umqGIFfXkgqfGxT4Ngd3WQDcuk/Ujt2L0cc2eGmQMXNA5IKZSIlQqskzdqGnXn7/t/cbXXTZ9j8udMEztDB4RNSYx2ltK1cs12RWg/Yhxu22BevuVhlay6zGS2NikINCYGlkBOAw4SK+SECucN9DWP/kQKRAkeeAgQ9uEqtanEIH93GoQh9sxlTm+30k5dZUdnSH336BVW02W5z586xqc2q0QqQc+2cWVcpa//w6Gv2sOq6XnjOydaUykW+eZCXMwK5gyRgPHx8UcD9QHDEVcZL5Mt+mVJ/+uCL9szLm+Tv0WGnn7DQZqiMFvq6nUorcs/Tr3rdwdnTptpv3XKNXXTmUmuqVTZzMbWsAhhIK4LviOeWU96lEK4Ps4stUiBSIFJgAlHA2VoAclSYxn8OMEeVB96z+q4qXnbK8nk2Z+5cW/H6e/b0itdUFaLJ5s6ZabVynCuKb77w9jb7258/axu299qiOW12/Pw29UX+uugnd6B3SwRyB0q5eNz4pICkQg9IEEPJC8St3dljf/njR6270mK7uuU317XDzjjleHtre7f97zsftpUvvWKfufhc++r1V9ji2W1W59q6IJhSQhp/OxgaujlTNCvmg9giBSIFIgUmFgUCcIPXhSbgpQ8O5CQSp+RpjCtKTSrtgG3+jBY7/cRltrW92+59+mXbuX2XzV8417b3lux/3/GkfbCjYH35tO3euc0uvfA0a8pQ7DC2A6XAZANyMWr1QO+UCXIc6v0yfm9iOO3lrP3p3z8mR90PrE+fM9KwTbN2u/S8U+yddZutqa4iAHeJXXTKIqtTTriiStBkJTRidsXwmrj8Ik0GIEehmoTRTRCCxWlECkQKRAq40ArPI2I1hHUFUIcDCvwQlxWJtrJKAPFSpbyX99otvvroyvft4fsftubWZku3zrYXVm+Wn1yLlfIFa0i12+/cdrX9k8tOlrsLVo0A5yYbMDnYG2yy0SsCuYO9Y8bR8UCqj0p5mFSxrOatT75xr6zvsT/8k3tsp5hNWd8ryniZzrQq91uPffKU6fb7X7nCFk1vVCi9HxRmLgDoDr/eEoaW6OGou/pxBBpth2Skye9jkU8H9x2c6/D+x9LPx405/h4pECkwfigwGg8ZbfvwmQ3nIfqd6g1E9zuQIzAhmEGDibVsOZlFAXK1CmZAQ1cWv8SMisquWCraa5s77U/+7hFp4vLWW5TQrLRPWVkzSpUeWzJ3qv35711rc6c2KQddqAwxCEwGOdvgKEcYn/84Fl439Fj2h5vvrx1lOB1HGuPgaEf+NLyPkfca69bJBuS4A2MbAwX6y1q4Wqu1Ll0JyBCmhLREsseU3n3BkiA3bE5AjYMcLeCgePeP3gbe9Rk3NXecHbWxtMIxH9nNv0gXhk+axpOWnxvLgVrNvpQkKeJPi+2zoH1IIpJBi6ZXcLSFGYl5aPydpTq747EnrUPMSbl9XZ6s1KXlM1cWg0lbb0lj0FzLlV6ZYolhVRCDjilTWJoyNDKlcir6Y641Kl9DpemSwlhT+OCpZI3TTOeqQDNnb+RRgm5QS6APejJmvZOfqUYSKQR1+mobvDNxMPbSh5yxyjCZcTDthhEU1E+9CJtSDdgaInL9wnjcrYYF8yUxClSKLVIgUmAiUiBE5EurJR7lfFGuIzBDhMvgEay6qIrAB4hV4A0Ir54iRMwFZiae49v0hXyXLpSKj5RVqSbEqNI3PIqcmOKFBHY5XwlR+/58UBAZvAyXk4z4Zg25OfNwPOq3KgFJPm916TrxtsCfSjWttn5bxR54dp1943OnS2hWWcOUXFTES2uVTL2i/J5lzYPgNBSBJQ9WCzyU8zLGgsZb0CmyJGFXcFpNsaol1CQqvHL6ER6outc8fJzvVp9n+Ez3q0edQT+LD+tVFphkxjzL4OVZzREeXcYXkHN7Djz4tGipfv0pBB/XpyL7+WzVJ89QqvmwB/5/JIXnONdsBppm9ISFs8e2fxSIQG6M9MKRn8atW5TPQ0UrhpseEMUNntYNy0IK/3Tz+gJnAWs7C2UEzOB8gU79vh1hBz9j+Dn5FdA3AOb0he0ANBxj3TlWfWmpe3/4viGZpLRIMYFyHEPhIBYSCyjEo2btzXe22huvfyh+k7V6kKDvpp1T/d7Pa+9ssrufXG1fv/5sm6rkwQ5atRu1GUQErc+QpsR80SukHtAHaPOkwEh4+j0BZHTL+GBwetEXzUetcbGkYU0pHyN0ZloClGKqaQCZPjP2GpeEmVCQIP1//Z4k3yQBSloZ18P5tZc64o/ZOfMYICRnjy1SIFJgIlGgAEjQC28zeEAQHhMAAnapd4bof84fi3A1cSQdAT+FI8FvYCvaSlJzuA8cHwAC93Lxlb4FBPkNXolQnxH/r4hBIiTD1+BSALe8+FG79v/xgy/Ye9t6rJRp0uF6cmSoEqGk7DoeEPbwylfsyovm27JZtX6M4y4dRwWJfu1fq+cOzxXnZy65D/LQlPhincbPeYsCnTW11d/UL6XFENCZEQFpPLNqxQcDF+a5VVLffGfQmgPPOr3DqwFxDmQ1BsAstGK6aQHYkj7wcj7to+J4/58z+ou/vDpmPwd2UNT7rNLPg+PCMX5gbGOmgF+v2D6eAhlJTGmkFv0DaBQBGNy0uvHJ++O3oH5z4YKFoZsdQEE9UZMqfV/NpRqktVFevqCG3N+cJ2ksEBYOEhSgDUkpRE0B7mAynF9jlxaROaSQ/NSQVskZ16+R78yV7WePPGMdSvDLNhoLLKuxNxYkSebymm+jPfD0alvx2lbVg27UembxSsvngBYuKCamaaaLWqC+NiUXptJZVHcAACAASURBVCRtShrGvMA48hp4Xvuj8XPApaGlGAiAV8yoImmV4WZ03jrRDGYYpFs0iSVnpVC/rJ0U0e9z8BPDNPkeutUcdWxJ0rbvjdtxVgyM8SJ5iz7kuEOTGFukQKTAhKVAVms/63wYOwrmS2m1HGQh4qnWs3hHWjwJVxF5/GpvcQvxEiAKgAd0B8CBI7qpznlriEatFf/KiAHVkLZJvAtNGPp+F0N5NmAdAcjpM5YHNHeMI68x3Pf0r+2l195T941WFM/j6eAKAVI21UgfJt65prPffv7sKusRKANAqeaOPx+QhRFfMxozfDKT1znF6moKmo32LWq+Ji1cWoiJ50RRTDmfEi/2pO9wQXgnPtEhGAOMlxIzZbwIz0DZdIljGTv1s9Fm5jSGPu2ntCjy9TMdn5alg1wGGacLlNR5B4BYeA7Bm4MNhJ55VrCvrgpjhC4A53TQ9aWKomEOQDphb8fDOrGokRsjeakNSmPRy7FQn5AytFiraTvKcv6vyiH+i0srusmR0FIfo/lh+ScS1V7D0b2P7EffzlCqdzqLNOm2IpV1WUwHaybLIrAfh4dh8SixG0wt42ZGmAbgSx3TmxbfC6vftTfWb7D+dJOAnRiO+oGhsUc/gIsFWOixfHePPfLgo3bK3BttwZxWjURmWBT52r+crXWTBBq6GvavtpKYBJIjUjFMMzTRhn3QWjrrEANBytPxHBkoyRhZ7GEcfqiDUN2yUuGzlSkwTiRGWDGSIvTOlMWkFMABcwVkQl9YCi1cuaGfBsfqO8QWKRApMCEoUFOk2L34oiJAWffwTteY6RNgzWr6/DMaOAAJD0N4LcAKQREgE3gpxku+B8E4LZ7nPQiUVBAO4W3OYeBn6KQywlKBr4Qza7O2Cf7Y2x9stcd+uUKdwWd7dV7llEPwF6BLVWRixUQrU2qfKuw8vXKTfebcXjttwVQdqRyf8EPOpXElQKucCc8leKHrvODx/qwKgr3gq/NIrDKuLxPfra+yPLbDc4PlRBsFJtGSYbr1fTm2ShGeFznKKoqN+jNQv3AOeCsCNefH/OwlF3V+juc0IdE8wnuAzpkcdBI9a2W1EZjE4SeTxj9Q44XofhSdxLY/FIhAbh/Ucg0XoI2bmFtWNz41RvGRw29hXUevrWnvsl2FkuXlJ4AmikUJwCroe1aIqE4L6KTZ0+3M6W0OLAZa4Ceubn99R4e9tqtTP1UB4JDduK3PmNZiJ8+a6syGhcK2oPoL7rZru/P2+sYPrVsLEK0T0hIatQp+Cnqf3ZixsxbNl0mUPG8wG16q1CAAmOsu2+OPvWy9vZIW65osRx8sroxU7nV1VmmptdnNafvyWcvtwnlTbKlSjtQ3iIHJdJrRwmMsezThFz7caJv6cpq7QKO+I/3CCHsk/U4Xszl33mxb2FRvWUl0MBqiuXwcok+PPr+xebutFS37AGlwBXrWP2jeKFqeLBqeoNx1DYC5qqmY6xKgoFmPtvXpO39NujZNMKCypEgYBMxWGsSKtjuDQiL06+mUjC1SIFJgnFNggFcPmUdR/HeD0n28t6fbdspPrIQfs/NFBF7MmbDRkvhL2U4TfzpuSpPViteAwdwtRTwFF5l+8ZC3d7Tb27s6xGN0nH4DqiAoA2jq5P97wnSlF5kzTdYZcST1j77f9VRFfNrS9n5Xr63ctMP2KPnvuTd/xTa299nazTtt285uK+q3TG+X1fULeOaU8kmBD73yh+vc0WuPPbbClt32aaWDqrFV63fYLvE/eHoawV3jBFxirZhZm7ZzlM5kFm56ckEBaiL+Z6RdQ1PXofmv2rzF1vf3uWaQ5wiwsAA41Pzb1NcFC+fYgkbxX2nJKjqfC9TSOJbFy7tFy1e37bG1ezo9VRVzQ9B2zaUsIG36fOrsGXbcdFX30dwd6kFoBG2Nryje26GvaT1XGtyPTp+FANNVH+ki2kgpQxD4I1fe/8UYgdw+aMYNnnLpAlOq63wEUvRNYKdXi/OFHZ1217vrbVtto0CD7kNXSQMUdIw21JRzVi9GcUvrVDtNfQTZaVDeoG4pDOjVnX3292v7HGQkvyblxqjNd9vCgh0/c4pLYklL9kR6XNmes7ve0SJPN0hlnnVmRIF6ZJ+sQN35bXk7ftECa9VBjN//MHdqfm+u2WDtmQZrWLzMyk3TrKVNUar18sGo03LE300+cgvT3Xb1+cfZ8nROa03gz2miuaKKy9VaQWW8Hle1h5eVEymXrdcCzVhWqn4kvc6GLptX6LXGqVNthjKa1wHgNCcIpiGqiZbatmLjbntm4y7bI1r2SYJ286vEvwaNd1qh0z6bqrOZ06b5+etEV9houVzvNCN1yqvrt9gjr62xKbPn2fK5bXaqmOq8bJMDV8wgrsOTpg4JGvMxxyXXY4Co8UOkQKTAuKIAfHIkEAdr2a1V/+z2Drv/jY3iKy3OU+CnrjGrNIj/yB9YPKq5b7fd1jrDZk9J2VQEXA88QGcnOCbelE/V2qpNHfbQ2j22J9vigiAiJO41mFenFHvt00vTtmzODPFeghp0HvEYTx8CENQ43u1VScM1m213TbPOW+eKgNLM2dY0a6415bvsjKm19oXzl5vt2mPbJJRv2dFj27Z02J7d2+yD7dutq22K/eSd3bajRuPWHxytyDNGY2wq9thSabdOWLDQZuqBUJLwXJQVhhyfNdIe9IvVb9Hnezdst1V9AotlzVLPqlIm533gHjSrp9PmzZxvc7GsWK8mUKf9VGtbx6KN7Be6XbVxpz25odPas9MEdHFdQaMm87WeeVP72+0G8e5pU1ttFgEV+tXlZNEAe3BOdHx57SZ74L33berMGXbenHl21owpNlOgsl48OiU/G6w7wXAcOfP+LsII5PZBsQRMAehqBV6CKyaqZ5ZxxZrqFRckDVOLFia+XvjQoSKnzFUR854WSKsWUovOMQjBOCG3ubb4PwrMaz+lAPGb338OUhcf0azVSs3ukZz6sXokPzkgwol3iphGs87djfSjWn61eq/XC001JgCWBV4itR5tKwYlqQ2PEDRVp5y61H73+MX2k8dX2VYBsH4xBHe6qHTrYGnwZJ6YI5+IegHClDgUOkMU7kh7MLsSC1BjSIs+7JMVE8S0iX8erLC2ULSpOm+9Tu1mYdGuuszF5IJMm4HpwV71vVGvrPZnr5oUoNCsQX56TQKn0g/qGuhoTQiwjMRM69dcN/cVbU2+3jq35u25rZttVmatXXzcEjtn6Uybo8jZqboOtUTOAuiqQK5Kbe8jtkiBSIHxR4EExLkP27CGK0dLg9Il6a9WPl914khZhDnxgDyaNf2lin0qZp+zRvHsWniO+A8aNF4h4j045GNy5PgmrB3ioRhg4Xt4zDXqt3rxQoRmNExl9U32OE/TBPPVOLAFNKnvgtKL1AhAleXHZgJz8LfGcqcAZNbmKfZixsJmy84/Qfw+ZTkFY8D/CxrzuwJgtTIFN2j/rHhoSc+bkhghImmDPjeK/+o0HpxQpz8e7IA8SjCqK8vKd1kQ0qboWdYv+xI819SvNmPYUNJicVZMRuLxKY3fPZJh8VnRRBo3XHNk9JXGsSge3SdeDZBD01av44OPYJ3GCnjUkBzEwcU5eVl8Gq3mNplV3+vLWu/2vK38cI0trq21i5fOtQtVX3auxt/oJtu9r+Pw6xq/702BmEfOaVKFRwEX+ALtLcpc2p+zqU0Nrmrn/nRNkhYj/nLkCdoqKWv97i73wchqJzd7ukYOvwNAhwIhtAgWtLbYrHr5P9BF9T4FCMJ8iH7a1NVnm/qRRoIpl4UFaKOx+2yZMmc3N3jUktaV8wZMq/SBv1ufTKvrVIVhT7bBerVQG8RQ0EIxDuJLG6SyPr6l2aYRJg4Dkhq+WGU2BBT0lvrtg909Sv2btYK0cIClxAyMshuJaaHMDi3O7GAeGoHPQ/5xlX7rkK/Ie3ty1l3ADy8wLcbF2Rq0b70A1EKZh1tVygsGGObNPFC7561Lva7vyttu5a3DJOBAFGYrToL02yxmtKCpzmbUYTaWLk5Mhwh6NI8pja1L539s/R57ZEO3fdAr6S/fJ+DYKzNsxhY2Z+yaMxba+bOabLrGBBMu4+sh2rg/R2yRApECxywFqpzZOXTyGdYDb+lUcFZBLHlKPVGa+hX+LK4Cj0UTVpLmflufrA47+62QzYoPCkxxpNY+rv4e2KV968QvF4q/zoY/iX+WpJXqFe9x4KezKp7ANvYV7EMJi0Ud06C++U0hACGiVPxtQWPKlrTgbUdoAJYCJdLQfgQoFHTMDuGeDzt6xF+lDVTQQEZAsSSAU+A8GsYMnXtRW4tAoaZRFBeU9SMv7on7Skq8rEs8782unIRWgVK58vCMwKyJjxrgEx69ZHqzeGXB6gkckKarDEoU74QgeSkY1svEvEvzy+lZxfOB7COEQACy0uLDJ01rlACMSq/O8vJbQ4NZq+2Atrx47Jquom3t17PFQSvKhpRMzbKeaC5tOv9iKRFmExGb0XPEtZZkOMn7M267ePzzG3bZUx902Yd6brYLRBb0MKtV3yc3pe2GE+HRbXrGVJUEB3lHjgTsD7LLY/rwSQTkMKYFVhA+sdpZ+IFFlNxMqJteN9IaLbD7Vr8vX9ic3Xr+qTZbNxwgykWbakswAD0kjRuXlvyWfOc9+Tyw85APCZMa6bdk21j6SGaT7JuMgz4YeRhDQoPQc7It6MBGH0HS50fnEUZe1Z8NHMw+Q2mQHDN4fnZN9kI/B0MaOrrBX5M9k/MnJwmz8HAO598FMZrdYljvCxC+quLUr2/cam/nG8QQK9IIdtlt555on5o31VqkIXQpUeA2GM1Hn3P8JVIgUuDoUQDOgI8akAAwRH4ztD7wijW5gt2rGqWdcuf42icW2TIBn3rx6JKsF2iSCC3wPJr6NJwvMqOhvJHvgT8Ocq2PfoLLJE+KwJsGeVzgW/yPYBqa2xP0N3iW/eOvHEdfyfMm2DASHhl4YdhWPaG/BX7GmYPry0dnGUYTOHYyyvCejDI4nPBtkDMOzjzwaEaV8OLkON7D/HlPvoW+k/85Dp/pnVIBbpJP4CsfbrEXtvTa2j7ZirR9TqXdvnTuYrtmwWzB4INvkw3ITSLTalhw3Oa0xMCX3DK9km/KMpXuktT1f1a9byu6+q1Bvg8LN2yyG5bPF5D76M2VfA2xkAd34yUL42B6oY+xjSWZ/9CzHai/WBj5ILwdywyGEjIcP/axD/bPMUnaE1hMraTqGQLhDapSvahtgZ0nk+pT69rt1bfetMVyRF6qLOkewi+nD3I74d9STa80lkHHfSIFIgWOMAXc9OnJegFzRQ9gIvLzAzl9/Uhlrt7Y3af0SP321roaW3z8XB8dx7giSvs5p9F/Y+OL1Z2rcxzkUuHT3jxuKCQaTpjkKTO4fe/jhx8z9DvnHHpEMDgOncdQkPjRnpInG24kw38JgGv49r2/Dx1/4NHsw4g+fh6DlBvarx8rED5D2sC2tkZbNOU4O3lZ0Z77YLe98d4GW9yUshMVzDaJAMneZD+ILZOKbnsvryBvQD+kuA+lgbtzhUBcu/zNZL9fPFV+C4rCSULWD4LO8dDDQAFC54lKxQ4M+0rLybdVJo9mfZuh6KsFJ8+yC9sq1trUaEsbFQRC7jiZBYoCcphw8fsYme0chsHGLiMFIgX2jwLB0cpTXniqDFlKNipb7o9eet9WKci/Rlr4k6Zl5KQ/3TVgwIzgAqPfcKQdxCD7d94x7S2NmFt0Dk8jvcg+YRfzG61Vk/WO9vPHbQ9Vhg4PZ8Q1iMwP9eLAjXJ7WXjabPugNWXzBe4WN+Dbl+j5Pm6U8fehFJhEptVk2oOSlJcZ0WrHQLdD4dl3vrreHlVkUq6u2U5uNfv6mQvtFNnv6+UDgKp2sqlrj/WlQog8Fu+BEi9EiWnQlLshUKUix13SseC4q3gH+ZoooEScHkdnMibVc/yxPsk4vkiBSUoBjIclPfSpCANm2iFp+wevbbCHNu/RIq+zc5Qa6dazZVZtqvVqM4CEkJiWVe1fQHuHhXoBYx4+0OFlwg6wHezYQvUcTg4fhcfuAzTu5xjpL4WvtnyrwaIES5AKhuhYomcpA3kQUx8YzWR7Vk86jVzwXgjXm2VIThwid17YpJw9m/otn6m34xVi+c2zj7PTmoj0JIkuOciqzGE/b9y4++GjgOcpEhRDGid4g7QwXCXXsxFZJsdfL50Gx4Cve61FsXpJu3jIjW6eOHxjjj1HCkQKjI0ChHPlFamZLct5vlxnz25ot6e3dlmv/FvPVfjm189eaMsF4howvcIKcJZVJYNQ31Pr3KMpDxwQ7XOUznoOHcDZ+1z7BomDHnKBBw4FLkE7eTDzxnIBPZNRDfXX23uk+7OFIMASGSBIbaIDlUDBzakV2cOr7Hx/uov7VikwaYCcr3PdnK56H7hD2aDoJ1UseOatNdaVabXZCgW/6fTldkKLwJv8rvqziojSHYb7596m2XgfHVUKJHYUZwkBlnF5iVshJN7rsfqVG2yDQE/bDicfPqqEiSePFBj/FHCwon+IXLuUfuOZt96X4J21RZmSfeHkZW4tIW8bIMbXONo38YTw7WCAzMfTLoxtEE4desXf4PiTXHnJqAj3CLUmEs7GvkPnG7jcx89i5D2SucE7SX68d99DOerIfYy2lZH7c1SpV3ggu0efvhJ9G4JUkmf0aD3E7SNRYNIAuYHJc48D/f0fKTpCfNBcBTrM27PTLjhhup0xq15JFvMeQl2UeU4B27rNINXY3WZHInbcdmgpgHQXGsmaE3bDhWV7FXbrAvPVJUE3svJgEMDziLbYIgUiBY5VCnj+t5I0N9J85bR2p05tsLnbdtlF8+famUpnlCL3ppzni0q1QbInODWJv0krRBKlw+E4MQCqSENFNYIqFzm0Qj48SxW0qxq/vc2EQLlwbt8HN5KPALlkVAd6ZRNQGPodChEPtMfkOPzjPCeqrk9QrJDqCjAXhPHAuw/2LJPv+EnjI+d1Ox33hxxpQY2rrN3SGgPm2qVN/mB3p82Y3mjzpKdvKbC/SgyTW0gJI4Pz6eHBvZ6m1iVJGNBgDrePqowS2DGoeWIhsNXNCqM2fgS46M0BDeWxgtRDVvKQewmTBKBWVQS1oEg26WpvHRTgzoEvZXhdRZy1TOkLNQBUYLDIZvotYVb6whg5k0toJLJ0iW10tZnXPlRL8BzldwJ1wnav51DtUxdRcyPEQT5ySuC8Q9e7XyVxZjfXKQcSAI/RCOJVnaRHP6ufMrZIgUiBw0wB59FKDk4Vmk7lgdss39d28ehFjcop2aDcnfAU8Q+l4YVrujBHXkznI+Id+4oH+Pihc3L4yKDwzhOhYN22o2eDbd29yfLFTp03cG3XXnmnztU+tnvXeiVMmSOTwcLT+Emm5CnNqk4zfYk1Z+aIx4VxlMRQ23PrbdOeNdbXp3JeaqRoQXMWxiKeyen3FYhRNU2RLNh3Zezw2qoATO2ykqxR9bUNNn/W8Ta9br7oSoY7uOLHz21fk69Rv/6US8zS+MWpT2p+e048+c9V5JPeq60d4tHtPT2hdJqucqDw2Djz3uB3X6Ma/79NHiAnia7sD3IkNb0SvykHOYEheLUAv7GPbKNsPC+XJrmdWcg+Cm5amBTj08bqGmLBwmIwHLKJHHejj5k9BBVBNFqoVKUoaH/SLlJSDEZZcr8SJbJMZ61TdskuhffX5HK2sKXOmoRdodeBNGcoWoxlZZ6kQDLjzlJWgvnpWoRgE1JuBprLYuK/kWG8oP0ZZUbpBw60kfS3qISTpI6hnFhedKjR/J/6YKfK1SiRswJcvnrBcvtEs/JTEceqTOp50h144mPa6FQ90DHF4yIFIgXGRgH4ArwvEdC8uLtzkUTYDfyR3hIeMraex7IXgAqeFfKcASaVftg2dK1SKcDbbUf/RvEwlbKq8mhJq94pz5LAnV0kH/VEyNCGlOsJe7Wf6qsGfgOPIikvlSga7dT5l9gVJ/6mNdW0+c/txV32y9V/Ze/vXKXEwjqDggMAXUQLuGCPJg/+6k+IkZsrJXTeMjzZnyvSerrwztiVwBhrRVZ9imcubD3LPnfmN5Xo93ika+0P8Dqw58HIo/no1nIhpxKNWXtx02574K1tqk1bsO9efoYd10gtcz3nFKk8ljbZgNyBPyXHQs1jaB9u07Q0MdziA0CIGx9fquqtebQy/aMZQ6vmcAyOxH8EV/hXfmAjiyz8BAgdsCoyn0G74ggU1+9yFi65xk2lVgTm6sUA0Mr16ep3y3G4U0yjXdqpzZ3dtrunaCUl25wrUs1sa6jmKB+h2zFsAqgVq0WcYSwEGQTFnH/TzDCDwIB88uJnYmjO4YCv+5zUGM6uLqslvIIPDUwADV3Z+lSxYyvFn6Vx3dbZa4WWFi/Pk0jFFQf2jCOMZUwniztFCkQKHFIKAEyoTEMZwpAVLtE56TTOJ9WqS/TwrVS0RZwGYFSydZvW2J7urRJOVapBwqg3xlLFbPDrwaGNNip6o1Oq3KgPrBQAOYRIP7pqNtX7+q3vWN9xHSoHqUJg4kuce/OOtaKLtHFikexZoo8BswRaugB2w+CG/V+1crg2Tsch7NZ4WiaeKVgmAGoqxFWmH1Wk2LXZ2jt22swZy7gS6pmRM9nR5jbiWce8kYA0glW2d6oCRE+3KlqoosSedlXOaKveB2PualLtOGmAHDcef2iP/Ras3ocBIg2sw6Ny8V2S8gFpZTpDCMwjaKyCedNBHrskKngkKB04hIeMMvYwUfbz5S0CUKOvV6Bpo7jA+yrttbE9bx3STvULXFGYpiXTb8dNU35t+Z84Y0k40yhnGG0zrC8vBoO5AxYFryG7d4/ORSmxJpUKa3aVeRidm79VIgyJMTEljNb3mLarW8qrhcZZ+Cvb/HmzLPVBp3UWMrZRJdb657UidwvWhZ39/4EbZUxnijtFCkQKHGIKIN+5jUT/UNa715u2uVwbmOEhPuPw7gJfYiuBU2UBnpwK3JcVSQvPtjJVtDUydwOBZweY42MDKCEQjtT0M/aXMBH4XzIbeBQdi7dn5KNdVGkx1TUtSXOm7Jd+zt58h7b1ez1vL4JIN9oezoQAGjR8ldEsGYGc6osPwSQd/AtDsIEHiBUFMKVZKGPmlB9i2euAq5iXfBHDSEea1KHZVlHSQB5x8+bPsdza3dYjDdy7uzrtygXTglUJ8sS2FwUmDZDzR7irhQNzYOH5o93VxXCHwydl7EX1YRtIbYJkFRCTQzZnDDAJV9AzPP0hC5U0Vmrc4eQb/si/w+/O3UZoWtzqwHMsiRMUUrW2U5qqd9pztqaj33Yr90pOdfX60g1iDllp6wS6VHsV3zFqEIaEHiN0O6ZNgS0BkACd+EB06Lg35eeyR8zi+DnTbbFqD1K3EKkwMELtIAaDlpLL4oWcD7C5SUYMy0npFFLGIhG3TfVzGxobbVuX2daOXlMxD2tWdDL08T15Cwcd4JnjYZECkQIHSwHWby0+chn0RFWIk7ADrVG2BG55sGf6uOM5KU8QgSSZMKkOg8YqhTuGmFSNhNLAu+lHvBkXHdeyVdV0w7r3mYjHcUwK8dH5Do9izUb8TkZPvYvzwuudJdEPLigECmibm1F1Tk/ZoXfSYylRcopIUMyl4u+jnZtz+HngiwyDcconzs3A6lvklu8hvsJ69mAh4Tz+4rnD+7DJHOKvsHvqwM5uabS6BuWY66uxD2U98fxz8OTDfP5DPJ0j1t2kAXJl3Yyy/iu3UNUsyU2hm4OoH1TFboXjxvYH/4GDhwO5chQ9piJgiIjS4tHp3bLq/EEfEEc1Lvy7eMFSKp78dnBRjnZe3xffQGm5CpLS1gm1rNzTZ+v7JWPhwKrTIduh0oa11KnQ9DwVgJ6lDLrNOodr/eR8eiANQEQZLJI9Yv/NZTK2SVWu3+zOWbv67drTa7XTmlRaK2PItjjCwqiCGSMwugM578AxXEt9wTTjiS35LGbUIK1fo7SB+AX2q0B1EcBXpeZBnS8eHCkQKXDIKIAgJ8QULAMACe85ADp4Fuwx7ZnIDlODgcH/qgCCZ0ONJEGC5mrSmFX75BoiXX45I5cRqhIoOE7PEx+nM28Y30gt9At4cyEdwRxYKBBWlJt/Wj7FlaJMiT5XuJZ4IedBW+aAS787RkTQl8tQqV79tFhNnv1k8lXdWfLpjdoAb4zN+SPPPs1JfeJDnpWjMq44PGdo7mtW5Y+hv7B91L4P8oeUxlGnaz1F42qScJ3qMesp5cMz0Z9UB/YsOshhHfOHTxogx+038LDWzUn0ZlE3dF43cUmLD41VA8wB8KLfjiSYY8Hi/xAqCiLnsUSDls5jFDR4B3Z6cRvjvM8rU9JCRhqUw6uv95GatktRbv2Sut7vKtgKqaG2ZOqsV5nRs9qWVR90DEPJEKkk1f3x82fIzRZNINxitI5HOtmwbYHzavCSqDWJTvX1tuojbqdAS7be1nb2C+h12/kzWqxBQI8oWaRQpG/m67zqIBpBC7DTpB9MM2QVr9Nkm2pJ8oyppN+v+cBegQsHYh/EueOhkQKRAgdHAcx/BUWr9osXyJvLhcJGgIsEX2eGB8ObxjA0nhcBNnKuALYq4lPBLCrBlyCBQostmyVn/LmnSWCtd16N/xktaNpGPlHIcRk0ZzWYE2XK7KnZbSveeNh68jvF/+D0cG54U+grjIVtvDhWPFvHttXOttOXXWmNacEfmUExLuE+M3IL/Dz06xoC18KV0wrmUPDGG2tW2o7e9QEM6hyDjePgoGwLfYzc/8FtLWMy0XOI69wkwR9qd+H241YTznx4z39woz96R08aIAcoIWISCQM/LVw5uwRi1rd3Wp++L25ssCUNcnk/wto4Ln1Ot2u/tFJdCkLY0VOwrQo4IPS6W+Prk8aIBZwRGAKAtNanbZZC7+fUZWxGbcYadQVDCMcoN5HmnZO0uFomxF/v6LGOhjbrlwSZ0baYrgAAIABJREFUEXhJy9cCCROnf5YmQG5KXUovfNTkgSH/hOBjNnRBj3KeETbD1ORhgUAn4Jy2rb1F29KVV26+VkWMBhPEms5OmyXT7swpApZIih78gHTowegj9LofmwDsOrnLsRqDg0NVfMiIA9aLzyH9BT+QRLuZMAnOe2Bz3o/RxV0jBSIF9kGBghbsdq3XTTKtFZX4d15Ti82tbwjKLoEPSncd1lbt3rkCwMjBFdACNwxXVMm62WBzmo63E2ddarWpZt9YUbmwAHpGe7yiXQSMaQ4KwKO/vJ4CPTWb7dW3XrRepTXBbBoqQhO9H4IfPKqUwAYPsgguN+lSRq4iM+3UeRdYfc0UjQ6TKPadEHc/Mn2AqKgKAuDkf4m0+tZtWz7caTt7NjHj6mtID06DkXs8VFupg13yakoS7KWgAD736UGS03tefBswf5iHcKimckT7Ge1OO6KDODInq+rjXFUuB1M95DcqYvGvnnrFegRkbjltsc0/Yb6UW9w6LN3wcA9S0EGOkJtPqrWiqF0UUAGwpBXaTXROl9bG+lzZ3pO2bEd7j/VpVeUEeoosxrQWeRY9oRrqbWmTMt0l+bb1yQRatKn1dTZ3apMtb07bTCUubiYcXXMriQmwOLOSGOlvRVfR3tiZs+66Fssp5QjsCN83ojiR6ggsKOFzV8zZAgEq1TAW0OOsgRL7XjhBOk4k1+BnFqRIctTBokqpOvfFe3dXv3VLE0iuurQWLJJot5jfqvY+axE4PblOJdGcwXGNgs9ayCx+YPRHIkamoz+QXElzqmgsaYHYecUOW1Dosmk49QowB8an6Djtylx47XveBzameFSkQKTA2CmwcU+P/c1zr1uP0iF98YwT7LqTFrlZMURXhowDY+9t7Huy/kkGBYAjJZQHETigQgD2X/SnhCSpDnt7+zO2seNdmTgx8wLkggkQ7V14jgDA2BaMpajtagT2+IbLiSfHhWdne6wzv14gjprQ4vtIwjouBFTg440SolYjCJ7L+OIVpUnb0vW+PbDqh+JrdepThyCgVnk3lIJgdOUQiGeR+4rzou+AjNx6kcrbzs4t/s5Y3eQrPoy5eKDxWDiMjDHt0bTK76pzzpOZeE9htzXJjO0CNxkNXBMb23AKTBogByTB/wrNHDmB0PaU5Ry6MztNEZz1kobq3NzqgEn7erBB9Z7xm5ob/iAazMchgvoEIub0YXNOAGt3h73fn7Y9lQadr8lSSkA8mD1ch4CT/Lz8nxXAU91BjTWnse5Bo7izaO/v3mknTWtV3cF6abdUIF6Mhvn26hzvdRcElOR5oTkKUUkThZYq9FeWxg2ACa9IC+g067WwtckaJAWTioUkvgHQjLZ4oFEAe4wvdJusdGZJkIVU4/r0YV/Ftsh1I6ccQQNHoDETY9ot9PTKzl6bPb/ZZmHmdgZz8EDKTQ8uQYvymgLXEVCJNvLa05bZOacq0F7bp0sbiwYSBscFYj9GH4504scWKRApcIQpAMssCuhsF4/u1orsTzf7OsXZ37VJjk4Ok8+UusbFgwckZ+Fx4LzBgYQ801QrlPOT7HxH/wZ/DW3+vBE/HdB8uaYu8BYPMKgCrI8cxBdNmlQkIaqUDXCi4Gjjffpn7SM/Np4HcMr+VJet73x5sCuvOFF9cPC80xEByGkzIJI/Z9a05EPg5b7Jx41AjVaP3+kPLSC05qocJpprNhkFvdVIkYG70+dPW2pXn7LQgXObrE8Z59EMMLbhFJg0QI6Jf/QeQB5BwpG85WHYh+8OoWoDVQhCJGbaOnQ3vt3da68qrHqXWEVBPmspaadoYzXtJmAP0LGrpt6eUwDDmu68XSR/s5Oy6k/TWZsv2vPtHTKlNvriwKlVoo0WQ5DQnEEB7PQhVei3mQ1pm1aXFfhKYmiHSGLD7xz/DmNKFnUwX4bdAnOg/5IY8R6d4J3d3dYJnTUG0pHADBRo5XwhLYC5s79g78pnrmFqvbVpMZOvHcls+FUL/Y/9/wEGRk9+iTVOfZjV1GjT9CN+ecpcpBeMz7m15gSj1dIYevDYTxn3jBSIFDgEFGA1ooVCIwSPckDiAMh/OQRn2FcXLm6LZ4gHUbxZ0f6kBC4LZKGPYyyIe6M1N4tW+ajzMGeJ/IdmT/Mgb9wojb6J4nfhUhoxAjr4rHAxfVIwhByDgjZttA6gUaJ8qAI057mBLwd4mvB2Z4qhDfA7UqJofxQeOg53l0SzeLD8eJQRVzeHsQDcFK9q85uyUnjIvUe/NmhsaVmcHEfGthcFJhWQC49paBBAXJBUgvblcAK5wH7KUhdnrFML7FUFHLyl/G07Mo3SlGmRoilzh3vdp9K0fVzkbPI7YI61ly/XW06avG7Mqpvazaa26l/WXt+jJL9iQGjiasg7J9DmAHBgQcNWUPOXrVFq7CVtjcogrjEQ8u8rhoUVFv9ed051A6lQ2MtfQxmsr0n554kRftCRs43iBb3ZWqn/paXTXPFTRANK6H66KLYnWryhlCizpFVslpMr1RWDWWF0hjfamEbaDkZLE+Ci80FjpLvGIuBNL5lXPbVAdSYMPfKLkagYt0UKHDkKBNgTBE0+D3Ki6grFzOF85tC3kJ4KMAdfDlotF/ylDSwrIhTzYwCUI58bn1xPC+LHwk0AV/oEj8TM6i94zkiNScm1RL7MFQnhlUqT5G/xQXWRUvUZTxxc0z+6nEmEq5878PrAlzkPujiZaL2iAxq2EYjn/FxgFdq6xg8fPl74jwcf85FGfKi2ATJ5HqUFZBs0vDqRn/QoIWfqCOM9VCce5/1MIiCnmzoxAwr98BlHeG5s8uMMvUXCAji4K+th22oAJxa1rJW2U0Bqpfzg3usm+a7Cy1VRQYHjWp2hBmxyxo/TyiXauBBdy82uRS4lWl5d7ZDp8Fc7u62tr1GmW7SNkmgATGE0DhJpiWodczPaqOkKO18gP7V67K6SgAcKNvuRgyw0GePe79rHgZxe7oSMD6DZlv6yvS8fuG6ZRfLSCjbI1wFmRmUJug4MUz4R8gncKSK9tydn82cqKbGkQHfNGMup9x6MbxmuUGPOBI3Qpc9Koh5+Jm6yYM78iYHhv+g7BFKN0nvcHCkQKXA4KeB5IN0Nhgb/HjwbnJu/w9fQuAGkABIEXwm8oQkTgKpR2hE0VKV9BhTAPgChidIAjkiqD1I6YW+Qfo/5VSeFlWCgOXPuU2yFKvJoHyJ2i5g7xbtKVF2QG04RIDkac9TxqervQXCHt8Hs5NknwZpcpEFtwHMQfRe8m7MHvhcqPhBwoPHiW+wBcdpBY+QvXI/B4R66T1jIgCQCcpiHEfK5xmLknhxfQw3c+9CdcaL0NImAXNBDheUCg9BDXV8AMRlCtqXN8gc8C8pv6oNrCdgK2rOUIm9S9prMi68qcrOvrtXqlPOnXuCO1BdFisrvB08aChJx6K+Vypk6pbUqt1VQgMSmbNq25TF1Ep2q6Wjl+ZQ06QTA8RWAKZc6+db224K2Wjn+s9xhWgwmWbBjJQb7abknIA52p03vKNBiV0GmCEXZVrmHL0pncxo7zK2Io69rC1UYW/TZLh5VX1friSEPdWP+nN3rsIpBBSgfZusuxJwS5g3NhhLrUA8k9hcpECmwTwqwTjGzpRSxGsyMH3XQ3+fBB/0jcEVaLTRUErTxGfOIUAVt1ZbIE4ChY3T+RNQliXkto+cKGjz9AQqzssBQ9xl4lxYPgl0GsDVkwM73NFf4owIfSkqjXlZQGFtVFdtTkwRAM8r5MelKYCa5sDs7qx9UBUaghJ9bc8ExWnMjH2ngiFCb/gCBofxY8BOX5o/qEgKxaQnbIZjt8OXugx8zVnlpS+hWoUaGqW0I/ugvD419ZgitJ8jHSQPk0M64FKd71bNx+z2u20UJcLHCEy2TNJf0uK8PUSO9yVtKxPt+e8HyikLFpEi9eqBjiL7iRAd2QsBGIRMS/qJJQrNEcem8uAZB6Gn3/wsmWJ8OU4MGvPQH0GuUJmxhc7P8EEAwcmtVH7AxggLYL4CzfRBDTIFi0ewMK0ATh7y4M1+2dxWN26fgDPwbXJIDQDmQo394jMyqrFaWrw7uVM6gNTI7z6yv96CNw9HC3AMRGEnQxVVpwgaE18Nx4thnpECkwJgpwFLEqCe9FIY98YcqkKuyysO7RgNncAYo3oTIp7o31lwzx5pKSzQuaeWUvmloY8/q0KxUEC8Ww8sVOlTuqtel5rS0TemCcs8V65SUvNYyciHxKgwuNcJoA9/x54+EcHhqc81Mt7iEug4ScFNNcoOZ6u44I3EppwnPAY25pGcbCYYracE/gTtSOnkRxpKCu6Q5SAtUZjKiLHzYzReMQ+BRfZcEIJlAXWWGgGuj6K9xM0Cnx9CZfoQEB/0lLQAKusVLj6vtmkp/DuC3zXknDWTZL1pOIqoknmHVB7aYQp1umIXTWlT3M6X8bFTb5IZ22BNAx36RcuTbG/MtqTdeEojrUc6gLPZPIRi0QWji8NVK7486btiYAHJ9WUlf6iNblFus8Cg+aGXKyOhUhA04gPJFMNiYKxIfKU1mNtYrd5ySA2uxA7LIXMeNAZADeA2yp4904V9CljYWGouc/0O8U07zen/LLttT0ypGogAKATQ0ibIme0SSC4tiYtQMLCiEHsExK+bFAt7Y1Wu9Cnpo1f5VzLf3iQ9gS/AVGbwP0hojzDIwThGOgBDNAadmkg4g98YWKRApcHQoAHBoUubzua2NbtFoVZ7PhI+5UD7mYR0Y8BjkmPoku16NANWZy6+0pYtOFN+Q35b7fozc8uU+29G50Ta3v2vbOj+wjp4d4vW1tmDacqWMWmrTm5dZS+O0AUH7o73QL8FpOfHJGqWDWmipPL5jZnNbltt1F35bnEm+cqNSAEG+39p7ttqOjnW2vX29bduzWVMoWlvrFFvWdrbNaV1srS1Uj6DfcL4g0uI/XCt/7h5xQVVCkhl3Wt0CBcM1+elqELoPmCknFB3tyumqqopDRoCXAES4MBpLeHRKPnMOIj2ly2jHj3wtJsNWPdsOg/3qKFHu46aC0OECBVBN06Za3m4BDJB/m+7lFpkWg7bmACZQUH9ZLQJ1kBE44q9G/mk9WvCr2vsVVYqfQYh2QgvlPmJqwAoW64E2QCdpQpCe8L0AICG5AkhCpJfGpJ9D9BfnAzRJuoE3aXwNxW67cKYY1NQGRYsGJ1wSLwJkshokSxzJcrSGVhE1vdcbFE3xcejRItwgMPbShq22qW6OGFIoRZNC+lRHjKvoAQcqCSNfjg5Jpvh+ZITyMnLCnaLcQZ9bOM2W1isQZB/nHm1MyfYAMinFpfPJPONSvebUL2C5R2NBxquTWX2a5suVKUg6TeEfB3F0jSaRlPNxpIy/RwocFQrktBR3SptPwOIUCb8tVXNm4Jj75ptwm5B4FzMlZlLxd+qU8gdP2ueMEtDBTuGza628Wgz8U2LePoAcEZ9F8be8Ags6cjtt+7b11lLXaPNmLFGiW6VRUaYBoCg9jzSX8FQOvts1SvobGpYVvdSnxPZRRx9sS8weNxlZRAo9tnH7Bo2nzxbMnmWtmXmaBlUoEK4TSMwowsvNwuRz8yej7BWAJ2R1B3CBN456cqdt+NXTOdFE6/BgRYMJEBvdQEqOV+rFlvN9Sks1zasB1cliNCfVJ8VHVvw6KFxGP39y7n3fGx93/Hj7fVI9qwKI4xKh6alRSS6z+QJfA23o2t3PKwkw5NZHs4QqmAVHZGanIiM3KIFvSdVEhyZW9P28HdwNBzNIV1OXsMjgNWi8kp7he8kSDduqzENjY102iznOUtoRxkNfHkXqhzNATLX7JgpmyYD0fKX7uZCiatXJ8jnTbYk6LsEUhAa52VxbqN/lwoe8pfVdb9uk4l+7u+TBEP2iY4/KZ33Ql7PZTbXWfJByhh/OEBmYvnCdqLH66zWb7K0dvTazNm+/cfpypV5xmOczCLmqqiTQW2yRApECR4cCyhFu83FmHmhDP+97TA7YErcPdtW6l11EmCSvOtOY7hJz3b77+civsLmk7YM1ZsVwMsoYIBhi0+oX26yFCwRhCHAA4MlqIVBFYfqRGyPHOaXahk956BhG6AAABd/PyCdOorrVp9ts+dyzNJZQ1YZZ5+QHVxLQrKiKQsgOQEfhROQsGEBjI41hH/PGBEooBww3owdMVvlL05U2fQ/Vg/wU+zpe+0GjsoT7x95eZ28rJdVMgbuvnb1cUaxEzY4w4bgpKh0O1T2A0EHJJ4cCulFxDO3Tt039ypad04IZXQg5VEMYUz8BTFInUNJYIS8Vf9amK3ccMAYJDhbiRebpzRfNvleeaxOREh0Yhj7qtG0uyYkb5QuiRQ3fIb2kPELclMxKJnKqoIXZKWmva3ev1RZVzEuSKjn3+qQZW9+TtzOmCWgexML1Q3U+xhjGqXkJZUp5amvbu+35XWVbKCB3ma5Tm8aR1rnTkv5cincVPq/YIgUiBcYjBQZZB0ZarCB56y7usLc/fNE27dwkwbHbNU+Hog3HJnXSeE1tmG+nLL/YptcvEr/VA0Dnz9V02ttbX7d1O1fJf67L+W0Qfwd7CHaLA+c9JHnHTaWxdqqduOhcmz/tFH1vC2MQKNrQ+5K9seFF6+5WKTCff+DJzuv1r+IJhYfPaGxUChYfus1ao/zBF80+UXVoL1Ti9VnisgJiLlGP3qhuVtHzqF9C/RtdO2zFrpyq8OTsZj2hmtEAHDhZRj/pBPhlUmnkDuv1kuYpVAfgRtUiEBBQOkmZGPvlwyY1dkBFh3UIo3Uezh0WJspy1OUo5hsk9c1ralDuOM8SJPW5fhXQCUstWcj7XtDsiwFgwM1PABEButEPI/kv/g4hsMOBUpVnoP0C6L7Z2aeUI+2WT7d4Ca0s5k2Zu8vy91OZ2X1p4Ueb7sB2n4eAHDNKJDnMxLCu/nTGdkkbOS1bsRxATzuTqNjT0jAf0SMujo8lcdwhUuDYpUBVGxdi8eFBSjq+8RV77s375UbRbbn0oQVyiWsPfCejGqyp/lbrL+TsqtNvFpMUkJOVYnPHWnvu7V9Ye+Fd8UXSmUi4hEcNUzURmHCgYCotrVZKDtKpSrN847ba586fJqG6Sdo3WTxK7far1+7Wc+k1j2ot/f/svQeYZNlZn3+6UsfJcWfDzEZpV7vSIqEsEOJvjDHBmGwesDBgP8Y2tgl+nP34ccQGB2xsY3DC5GCCbcACiWSjsEKrZXNOszs5d0+nSv/3/U7d7p6erp60M90zdU9PTVXduveE797znd8XT4etwgoLTPjQwPuIsr3ctlUBaAqusF1YDUvRy4dfTCMju9O+rTvAYHLU1dcTd8Ow6OwyjX/eSfjxBrRzblt5Jds1RqU3cCnXKm5uMZku/z7rw2GEaBgaUc0ROco8VIl/lH1Um+EPsTZlUQCiQ3Qi75ag31yLYAI3omZLLqHLEjV/AB/BDdPpAgJU/O5LgKh06V6lMQ3dG4852cZsGiypp+VTI9iCYQhynzs9nx4nf/HJCtIiewtakXQcQps5z/WzBInoTrHAIC9Jrx6GlcwgqcZL7Zq7WxjVqzmhir+LPnnDMA8j42JPRU0u7nPLKeQJLktJgZIC64QCl8engyHF5G8SAPDa8ZfYJvBEajYm4QXExJ5jKrmyCV9c7XuLSNXaGPugnnwOzjKNoLiF9046NX0Yd5vXe4Kv7efumalksZiO6hKBnNf3hmq6E0wcYV49NX80NH8VtWzsWXpq8vV0auoIrFZRVV4rt+41HiBKPq7t5GJLr9HidPdppX19jbuAxOnWiXSSQI+920y/wvp4AR7ebtgyUcqcO4ogPwwY7AKAm1pw8G8kpfzFdmygziuBHLf7QkESF34ispZLR3otcmp83BJrttnhQab+OvovkMGyR/7C1b4hZ6hdKsy+6pr0S9OfdDbdtrmetoK8Itu4sE2AY98XZnGe2Kt1wzPyWYWvoWBIoJT1gDmGVZOqYFHfEDRxcI9Xzs6lJw+dZTeKzalFZJoT3NZbTNp5IqNOslPFJNfYrwtN/n79c1s0czVZ8fm0RwsJo6kToh9pDaBBgNZIkFmM5eLZWb8+lMdLCpQUuHwKLAVvl86nY0JnhiYvMakvgpu7M/gaQvNvgFjBe84FU5fbZ3iG/+A97v7Qqc5i0p2L7/LEcNsITZzpSxb5y1L+JOeshGvH+VxrpV4VZ0V1Pe2ewqq+yREIJw9kcI79bPsEEa1nYXGFb1wGdDK/YLfSA0H24lq2Nw52cRw6F3Uj6TpiseP3FbtIZLrkpPz9as99NEq1Rn+G2Uu8gRa1SkBaRFu4MC02tRIpBvbYwAO5y5Pyzn9eVN/rm2DKD581hZt5Qq00IZo07gKCyPkVvkFH7ItTNW9EJphyqpGMGMZyy8RIGsdnQnAXE5/zpEcEPnhh/Bcf+vYmVOmON/43aKIHgmRaHIrfZS5RE0AOgPvabDt9km3KjlVH45iaseA30M+UH/aI6Ztm0Gam8QJU9e3Cij/Ya8cjNvWzJTSNxWcZZWxjY7IR3JDDpGz7uc893Wrv7PKtpEBJgbWgwFLwtpIJctU+CU6c8wFu4H3wl/DR0qFZ86P+YVoiFOKo6JzdFVat+Pwf7Vvuq0KprBOuijlVbGQGg0gezLEqfKfGetCqGiffr8i3euCn3ylLjhdtByAFRGWfYPOB5nGZKsXxGm9LbnZSQBEVGjs/BHKL8YdqLri4NCJB/iq9W96lBY1e1OACWABBaOs4oLN8Ny8nsSj0KdkVR9Dboj9kXEEL53ZipCShizX87mJhLct5FBgoIBfAIp6D/DDMoiU7STCCktim4So5izIK6/ucnUe+xQNxTUwINGC+8XVuDomIqNXYdWSNNMJOMiNPi0AGP5t+ZAvj3c6WXA2YjPAlzqDTGcBc2mRZmFte1ouYlUWoERNEZh0X23CZlgSafPzgqfRabZw0JbaPtMpZ9qCuGr2FfwWazdEWjGfeaFeZ8Ll3pOjdhe6T5xVgspAag7HbzahkGA2hMWzmXXJraiCdtFJ7KEPqz3G8uCwlBUoKXGUKzMJMT87Jo8inxo414/DSPO+D2aza+lIu5nzPPNq5TyX4cOn+ot9WozKKMDkM0Otxv8wcFuu+IMOxZtNYkW6kTYYCgZDJ1AFyBk3JBQ3iynwHgZ/2I3G7I0DwNZ6/UR8LLdwCb8qMK/ehGOp5Qy64WTjB0D7RuC3MuOSfE6jlEA/HbcQo/BS+Rtwq7yO8xno8UE5HDlFpADeuxL6mixq0BSL0I3WseYukanancIsxzQjjFzzHKDNgzKeeN4jFi/lUjWTEbtlI3G7kW9Wklcc5ZJRa3lTjnGvKLwOUJtmJlEEFE6iNep27/+xUN/3gQy+ST66evur2TenL7t4ZgCJgjYs5AMJHSH3W6hIK1yA1dBtOF7RSEbGqUTH7zXVji5fL0yxd8UMqA0EiqqIqbLrFCpNkFJ+JezZXMKsWjEAAh6kxGFbmWvKRCzHKfLYSr6ZJVfWCQXPChVwGYHTcUBdwNg+TeJVvv02E6qvs9KAz8EZuQsu9xWhTEDlrf7imSuPmTZ6WAYaEmZlgmCs8V45g/fz105wJ1wy0EAPmjPAAy6jXO9FNm2C4m1stEiHbf2vrENml5EifyVeUW4xmylJSoKTAGlBAzvAo/OJHHn8tnYW9fN1dO9KX7tsS/FlXjbB29ATHlboXoEgtFfM7uLof1ETBqzNnbyM8jqd33vVF6a7t78LVYhPH+UVeDihbLZNkrCbUV0HTJZ+cB8CcnHs1fezhn0tTQ6+jAEPTT8CWvsGKiEI0oZaBBFptLPqRVZsT6d5b353edvvns7POZniQZ3ItvG6ppmvp+PKaJM823bv9HSVtU5OI2EPpdx/56XRyZj+/BExk/Gq0bDcDuxzQxeqEede+11rjafvY3vTBB7+EoLddrAEERcTqmHns0nYXP1v3+UWN5iMHPpI+8cqvYV5VQyk01MlZTYa0t87V18EuyeE7gPc2PHgnyYH3TM+mzayr7nDbrswCOUVy/VDl+X0alCMDo5GLSd27q1nYYfIhNR2Znsdniy2KzThJWe3x7f9QCNpygsbQ4xRAA+DkZlV5Y/a1e/yc+DntCCCGvEHjAMudG8eZUkxIB3wF8yKYo4BXUyXvxjtlWusLEsbNSMB7Ai3b44cm01HMqqkBs3Cnh5yw7pwOFP4qauLcYYJd/8LPLQPsDBDDlc9m+9+Q3i+9EznZTzIacxuZ3em99+xNu/d2AbMp7R6R4WT1v8EgsU039dtmWUoKlBRYIwowV9UNyaOnCHyahmfERGZaBt+56Om5lFN4kRBJyGYkJ5qo2hiRlWM9kJD9uwx/kuv0K1ktICwReHEm/TmDpqvV4br6BvjhVO5oVLDY/kLr8OAugmMXQFUfRU82ojPJfK826x3rca3ze7AI5PLeM+YciDwE3Q2pSvR/y2zz2UckLg5AmKXVXm8KwmmtITCB/WBrjQ65P/VNgw8iaPcXZM8l+lLKqvGr4A9eVaPmXq/eoqwRiF5czA1T9K8C+EboxxfcvTvdvW8X+fhM1u/ycmGOfz61BuPIwAC5eI54Dorn2a+FXOGzdu7jeek332mYQRwwgIfYHR5GY6cHprn8Z3VB5NIbvOgrBHEALDqgQDRG33aP1dKGhj59TLZwTL38orbMxMduqZLrCY872lJDp7GhkY5x5OFjk+nlGTVs4zgZcy70mPecYIO94odeZ8JfZWnfesdDMxo3zt8v0G8JX9TOZQHkvITP97A12x0wMdl1A6ahX6DMOxuCF666QAPlzyUFSgpcNQoUjIl5W9GHlffi0BJsdJnNA8VqJ4FOp9NnX/yl9OTzvwHPytoeN3cRqMUWhn1qj37A4+McBXc0SbOdScyBx9G4oT+Cdw21+ycPbcN7XRiGCPR68uWH0iuvv4SQrSmW9UMtGsEY/YrCse2rVXO/cBKv8QVRtDabjp99BTDFABbyQa3PP2zWAAAgAElEQVRQy4Ifs/x4Lh0582r6yKd+gQA4siuoYawSDBG8s19ZuAvh+tIVwOH7bJlsHot9XSuiL7WmPQVJv5qWHxf4VaDrMCL823aOpXtYVxWxFbR1WeoPrZfXNFjfBwfILb+vPfCmApsnJ7+Wn3MJ37MfmKp2zYzuF1fH546kiCCEKSaF+a7XpMScw+9AEEPfJtpz6dYNpBxhskSPnB1X0DV9QSowrWI3CbfiM3hdM6gT8Aw5hR4/OZWenJpL0zX2XUVi1RW2ZQQZUunirhSCJzV7MgZMJ7VqGualnlMTbQ7W6DGQUMn56t/xRVaTTTCFllSH5wbXhwaOiFWjVCPcvohWhS54keTqC4a3JjeubLSkwGBTwDkcxg3mpO4UhUtFga6CX1w2iRA+8ZMTIE6xhdXZ9lTmPwqlUW/W2fWrvlA0VeRNdGIIwCKnkc9XqhtTu+0GkP2LvmjmcNPUOtM+nebmMffKb8yIa4CAm1IXA11WTY9zUz8R99pAOi7jBFawXY4Cez142WpATKHe3tFjeLDBGMfnAJ/hO+jC2B9E5q4sUl1wrSlUuduiHaWCJarN/VJwvlQtmv1yfLpCVVhHJ1gv5PMdiByYsB+yzs0P7P8DBeQKbVzIWQUWwLznsxuA7gpKqKStQykE5mAUqBNqArPd0WkAQ221TY6voOELXBrDpE/ht4aktA1guauBc6v9jdl3hTOjN4nNHyd9qwJD6mxVhzE1pPT0ibn0HHvNTpLluw24bejcyyQPWi1vmu+CuGrk4QNQ1WtId1bnHWOC4wdShK9bg9FZ/WRm6z+HzVMnaC2kvZwgxq8wv3A6zkzT7rhxzxAMNkAiJoaylBQoKbBGFAj2lGdy8IoevxDQrQaSLq63atLGQ46NfWcMm4cTxFoAjyj4S7+6NO36Zz8CyAUwkmcQSEBoqMl2+xcbIahAfge/6cKTDZDQny4DOfqDD7H8auWS65Z3Cb6Cj8chXU8Yk9q+pVt8LaukWAfzYcZN+8K5bE6VT+rX1o/Cy8fF9yVqMn32rD+WluWnrjyYc48KiOH7hsB554fh264pEQUMv154CC6mrgE6Z7CAXO/G5imYJ4lzZTUt9MU9C1l6aOtfVTXzTZ2s1ENpUsXOMOrymQtJOBfXyuWcFR4fADmzig+xVditm4fZX9S5p38GU8U+9uMXF9MgzMT5KkOKfHRMxCa7JpyEpTw9NY+z8kw6VYW5kRg4A+ge9Z2YKwiNSsih4SOHkHvUjhPJumOC7Vno/zBSrEH06tCyhs2W+3e++CX4of/FAa8BbDNoXJ35tHh9MRIPyTguhw9dDMnKc0oKlBS4OApkLCPPyDM35uTCxL64OlY+i5k/VJgQM0+yrTzn4S+9z4vcYXkthaAIn4gLPbMH5qKPgqn+gmAB/Ia0THBm5Jnjemu1pi6bxPdv2xN69OAkzxsKb2L7kcHdqsyrh+TyW+Zzdj+UcbjDVNgHdtW2V6tcAuJ3uNopnNG3qCF0dTJs0LvivthmmR+KzuUh9r14gH8YGCDng5kljny3fSaKZ6NgEpf/HOQajCE6w0Q6RSLgg6fn0mtnm+kQKvJ5NFGrAY7Lb/dirtTrK0uaY2jidm8s9j8ltxGTpdbzbbiYmlY6x6jSpo67SHRVI60AYnMArmcnm+nTx6bTmfpEmF0rTRgEoeSFRi20abzOB9Gq6mWyKb0yO5SOzM6lbafm0i1j1XQ7fd8xzB6CTO7skbc6u1na39xOcadlEUI4XZUzlFusCWaKVJ256UojLo+VFCgpcM0oELbVxXLlvDrX5XxfCM0yUEvwIE/ik6BKl5FVS6AgzuldW/B368xBXqsJ71wLgDOUIxtjMxjs6feos7fB/LlDX+hOIWLGJoIRZKY0blhIEW3a58KFGhSEGWOcxvV2J9xVKHwOi8mFqlio69wPiseXX1AHEHghHB4hDUngUuqL1C0GDrK2lgFoK1N3YICcw48JwMORc/eQq6zTTLeTHHGGibDFTN9h1+dEH+JQUxUvD+UHvSe/xCm5zjwJz7D4H0cIe/HMXHoFLdQUyEEviSYRm3m3gN4F1/jNfuqMOkQo9zhBDuiqE1slU8ijpD+FElxMmF4uGj6EYZFjo23TpwB6OCGzOCvjFednSui7oFpvyM3muWgaYGeuuMeOTqXTlTGSUhLFBF31v3Uv18whMoizIoFdpmx0KhoI0wn1zKHdnMP3Y5pI2xOYZw+j4btr00i6k9cm+y4jNTI2KrCHhTlAoGbErM1lKdlzZF5dGLSHBHZ1Y+I4lne2wK/D9CxxYu7HEotB7lr5f0mBkgLXlAIj8Id98mh4x2YT+MbklPcscKQr6E9RhwxNPpE5Udb2F7ykT/UCzGCcconiWvlRPn85V1teS9bAyTtzszEi6/Sf/DYzteWXxfcCyGUNHm1bh30I9NWrMB9c8fp8kFoW2rG9bJiNmi4EYlerW5oETy9e1pjv2QJxVulVC5efuv1ij9qhCjuAk8bFXHwGh8yjdGAH24LEq9QyeD8NFJArbq/OmD5m+yaG0ve8981olCppW/iNZfYQQmDPZJgfQ4ABE8vDAgATHUY2Sc5pwgDmeX90qpWePnImnUSammLHghaBDmKcOueZu6cVDqjXvqhvcsuUOoxwmv3CPv36HKHdaM8CBOVJ32LiCH1G9EXglymCDCqt+XQ//n13bRsn8MCJrsqe8xaATqHRbAG1rKoBcGWTZFIEfPzomXTEMHyAmOPvsUfOUqrKNCj4lJq5c4qTWP7IQaNJnfzzTOhZ6poEeB89Pk0Kk2a6b8dE2gPvcocKpVrZkCEMXfuJhlCfjw73omoIWowvA7YKpt95zLxTtKu/3BDJMzcYrs/VTe5jLaRRoGwg+pxS5twOlt9KCpQUuFYU2Ld5PH33++4LIXDjiGk2MuDoYZ7LXtSD05uYtxhImEIvtbgYqLnzVRSZl8vqQs19K80R8gKxHg+MunKJ9Cp9yuIv9rnQwvExQKXv1tf/ekGrKbEWTu2da6De4rH4eOklhmLbWTHiMITL0vvCN0u/csLQuKaKkH2WtDBNLjMP6QiBaTPs8jCCAqJHrUvv2w18xQABucXb7ycf43FScNQ1/fEZCBBRNv1KBe1UBz8tnTBNVVHnexdAeJqaHkH79OzJ6TQL4JjHrNjVATUkPIIMqHI5VunXxtU47iQaElTRp7MkwG2RHVu/OBM2qrI2yqlJ3h/7mSNu/a3GzgqYM8eZSLU6cCYzi8BwXOOf9Qp6nLQd0K1bzhxAwfWHB0+kY2TzHWqg8QtzamYYlzU2Giw0dkqP8wDSSQDyk1OT6RRA7V3bN6Wb0XiOwgCNHpPexrf6ZzRsmEjiTttLNYv0mzo0ajz8ypH09Mn5tG2knT50xy1pK0De2x/BGmru1gh4XxadyotKCtyAFFBTvgH+MT5KdCmTs45wJSTIcQT9efX1QQr7L/+80nGsAtjWmBCXM7Iaa4mprOaGJ9JHXz2YXpg6lna0J9JX3HVb3tXjcipdYzpci+YHCMgJqJTCMlkNMheQNQKY5NSPWVsueFDztGyC9KSlnmyB8NNIp1pD6aEjk+npebQ8wyZipA00U7HVimDJeqg/0uJmNd+1uKfntOFzL9Dq6AsHU5wCqHSwc+qCQPeDBjUjhXgS3A9QutSa82kr/d4zTJSpiju1k6H5Cv1eZj0RSZQBUgvgdxDh8A8OnU77m+xqQYRuF2Ro9OmVFOlnq7E/LMDY1mdoy0l+lsCN1sHT6f17NqdbiXIaRYvWoY9ttHGxETbp04fYNSLvIGtkMgOhzwI0vUmeAHB+hE7fNjqf3rp3D6ZazL+aiOM+2e8r6/uVjLu8tqRASYE8AxEHswAm6AleBNMqWHO5qK/bx+Ryb02sVwbMYRV6iP24f//EkXRrcyp90d372I2HB2CgEMvF396BI0tolTSfBSDRt4v3eOpcuNHiLAdwPVq2AEHGFA2z2AuKjgGOPo0p9WkCn041JmLPzhrRmhWO53B0HkjAQRgWBYswn8t9uC/+dp5/pjxPjbv906FVjVTorhyuXQN8RigGB5v8rmJrAnPobWMjaQe/16VPD9MUW2QteimYt4gIVcb8+PGz6WUCpybr42j3NFPTllrLKxi1QDNuDoOo9IAj2S6hK2lJ0H4eaM2mR5jsEzdthPZEBzMI/+JeLqhBgwIi7KhLjd08v7nbxFmA6lwdoE0TeT8HNY8Ynalf/0FBbllKCpQUWCMKyLM00WUGHXM6a9bVzJW+Umt0V65is1qISK1P6irNq63OCLlHN6VJVqg5XV0iojUWhavYh+uz6oEDct6mAHO9DwHoeuBtYe1fdi9dz+cBY27tVAW0TLHyf+bIVHp0uptmAXFuTxUAKUyBhcC4BAUscaS91o+JGsFOBHL0Bs5bQFbnhGyRDs/jA6fv37xgFRBXn28S3YpvnCeJgXraqTx9grUG0BEUnebzY8fOpufOEODR2AAY1DdQQJgl6SuZdN4Pd6WI/tIPWfcQtLc/atZmGdSr0zOAyNn0th3s3QqQi2S+gm1BG69q0N5r9UjJGr6M3NXcNTl/PkzHXlfo4HoehML6uLYsJQVKCqwBBeSlS9ZsPxcieHxiejqny3LjUKAFD9dNxnV2FEl+uElmBaxcBtW1CHqpFX6AN86Q35CRDBSQc+IvMgMVNJpa5Q78UKidViCrrEIgIICZQ+v2LBGUz7KL8yTmVH3P6mStzUkkBUaYKHkFcIrrgvusGbuJSNweUC3MomoMjSS1j3l7LbVPjgHgQ/62rXT5FvLfNYgUMlBC+deSx5RB3DxAChybHj0+n54i1cpUfSw0XTU0ZwESBZCCox6QytS4tP8jCaRVQcD85/X6KKpxA+TVarQ7mh4/TUTueCfdN1EhcIEM6dxLg02EdQJVM5VHlvG4nOv5oFtw0dfcR+6wGgDPVz0ZJY+796V8KylQUuCaUsA5KSN1Ti7Ox+DZxaFr2p+ysYulQG/5u9jTF86rsZ7KfWXxit3DLKbDmI9cs9z6a6AAyyVQb6DokgGB/1syrMnpRi782A1jJlS9+yo54h4jUe0pdwXwARO4AFqqaKDavOtnpkFAPCBA0NQqD1LjtRZFKCRgKSRZRxoTxf4JTu0oPaypieNTFZ32HrRxExEARa450ocIphZMm5yvM+oMFb1y4mx65mQnnaxNELFKViNAbh36qD1rQgcSnIfp9nKHbj2CR6NqBcrZhw/60lcndpdxzeozhybxqeNz6bbhkbQ5/PxaBKUYlcrj7UAZgWPN2lc1b0Tlclx/RrIUuakM0cf0XQAXwFcvuoB6EqEsJQVKCqwRBYYMOgph2w5k4TP4ifPXg5fLXNZoPGWzq1GAdQgf63l8uGfhxTP4OHuPDYCowZrl4mVZmQIDs1JlAAOoCmWLvlAtwEc9HRds8W0Lx8ez+odvwSJ6TEKtXQYN0wCKp05MpcOEQ3crBEIDJIRFqoOBBsK3bMa3HhhNaLBkNFHZ2pUcQUtHekyv6I4gzuCAcIzTNwygumluJu3dsJnPAhxAnNGfQReZKVdyqiHhL59tpz841UynzBXHtTWjU432oOT6pcUb48dSkDDnVsqgzlY87pZf9v0I5uAnANhbNrMLxBJTacD2QJMCbMzHEbXqeAhQYWPnJmCPXQY5puk8o854Iq5AkxhEKEtJgZICV0iBTppHaDve09KMM2c3K1wGr7UsWguusKHy8jeYAr2l5pJrdRtGBegZ7m0bSb7JPZ+pN9MULHkXa1GJ5VYm6cAAuRg+D8VQ5BXLTvH7T82kn370ZVS23fQl+3ak9926K1X0FwsTWyZYgDGenk6tkY7OtNIhTKqz7GdnPjWjHLv4n6l9MqKgyAye/c/y9V4eSqE1LJpMi+Knpd2J7OaYHrtDY+DbZtpZ66bdJA3udmc5k7B/zw7zhr52FcypJPxly7GHD0+lg0NsxQIQiocoNkU1OnRR+3ilwQKFIG5/q+cQsWdsBaA10CC6fcs8aVJemZ5O924aTWP0uaFfoGAvUHgeQrhOhwkd0IYJdoJgiQ3YWYfVwgnzUN2rbey4p1+0Fze/LCUFSgqsAQUMlXrh1On0y48dTrPM8w/etT198LYt0RPdRcLKUU7RNbgzV6tJ7mldLq3v8nDaxJ7XG9ukhK81EcC51d5w2XdZzqPAwAC5cNGPje2xwbNIz2EyPM3C/fiJZvh6PbibBwWNlMxDv4zsP5dBj7xiBjD02qmziZy6PGya3YAJHMt8RLBzHm2vkwOxcyk6LVTYrWbas2M81UGiMkrzypk4MlJ48H0S0PYieeg+efR0Og7YkQqC3tX8C68eETL9wx/RSU4vJ2ea6djZubRr0zDaNYMtelpRftNXsMqJmo/VzD24Z3saHZtN2wHuu7jvjQD4OVpVvaLJgq/fe3r1qF7WXFLgWlHAnJyHuyPp8ZMzaQ6N+1tu3YbYifM7Ezi2kQq/mLLcSBTQGuKqOgGXfs+uzWnn6EQax9S6A35cy1qVG2m4b9hYBgbILVIsm00D95NGZKo2zLZSjXQW/65IyRELfgYAwSZ66/lRdiw4MIOf3NAwACEDOQFBYU71/XossVMDfmY1fAA3EMG5B7OqUUNuWRx2YrbHkmHOAHwPEEX0B+TNO9gdjp0qgqEugNlrP3rBG+nigql7J1r0cf/p2bSPLbyMZlOLF/iad30F5fsN+qsC9e237U5v2wtzQNIfibvoaTFqito5j1yf9zSGUJaSAtc5BfRcmYY3nY1AqmakDNKsGtupM+ed/4UofZ0Ptex+UMC7SQov+O8IgXbv37crfW7P9Wkk3KHK0o8CAwPk8pYkTPwAabq36wwvym+Tt0aX93Y8KrG7g6u5ZlM/U9ToHp3DVwP1T5v0GuIGTXY64AsKcjrhfiRe38cFOG38UGqosXcPV9Mmt+NyQ2fGZRSn6UiabHV1iFF+9gjbY83xyJDnJ4IF1GDG+NemxJZhdFStnP1ps9/tkbmz6TTgbGNvR4lg9r37aGcrgFO3pHaLstA0RuezJi4wLTc/pP0Y0lqNbG3oWbZaUmA9UUC5Gktb1vwzL9u6vDhvmZZ5ZxoDq8o5up7u2RX3JdJaUeDTbHSZI1blw7Ht4hvjc33FfVyHFQyMxTm0N2FAFMDBIPChamBarXdm8ZeaZSnvbbLO77KG0Mwo9fFFoHB0voN0qERYZC7yN4GAZ1+/zEQwJFUa+MTt2zicJgSnUonjmqDnkYJP4P/3h0dn0v4ZAh3QxtXQzMlAnXBZg3Xtn+ygOn0QyHkfBJ4dNGpTmGNO6q/nffFgvLIZ1lQq9li5z5cLg/e2yeGW9USd+uMJDK/9mMoWSwqUFFikADJlGiMdUh3f3QpzvGKOsRDAnLeK3uUkvdGelyxeuwLFbuBYgwxA85MgLlvCbrQxvxHjGRiNnMTy8chzPzA/RTgga4jEG/FtKSyTTXjmrJFTM7MkBcYJXgmRHzpGQlKZ50Ssw/WK5cKU3GUfu266eZx9S2PEUAqtVgvT80FMqI+TZuTlM/MEFJDwNyaUgxUMOe2WUozD17DEfYj+qkVjbwZuwjSQ/OT0fOqya0OgMscS9ybfII9kc4w99/HPxz2WtaueG09KWUoKlBRYYwooZOq3bIR9aNfpz2IC9+uV6a4xUa9B85fLP73b4ScX2RJ0l4G/w8frZhHIS9M16P3118TAALnsR6WmiUeM+W/CECU6lLe8Rvmswc0l3NJ7DDmgpmaWzd9nkQx9sNzSKz9Rxc4FGdIsXHOdPQPKOAY1bJlAG4cIXMUnzijvhHZrjqE+NjmbHp8kKxt+hOZv6xAdqgarBh0bHYNHspZzLYZdKNzUygnCBHLtKjnuCNpIpCzIQM5lIC8C9tGloGAyVZwivVYzekS3xt038rYAd2sxqrLNkgIlBaSA6/Y8c7HFnG6hOnc3mUhBhJBZ4bP8+EqKVcW0j1LUtXDgSqperK5vLbaztC3bfyP6YJ2XQ5el17wxNLj0WnrWFbEbVp8h7nvTDBN0TTVLFz/1auNyxtb3JtwwPwwMkItJI7pnxa+yyA+xS3ytM51uak2m48C4UVz93Rs0Z6fIfhiRioIHSMDXbusbx3Wu9ar5nYZKDaqAebYyAFx/z0WhN3PnBjVY6hAjdxxF8FOHKU4A5G4ZxWSKb1wamodPYk6Fgb54ppVeONYk4e6GPJGQigK2OdGihrUDcbZeaEFlxpEwmFeYTLmPAvWmMW7cnACb/uYOD/zWxoFakyqQNB4LtfctbmyTVCR16eQSEgMU0ZalpEBJgbWggAENQLi0s30aE2ti15Zm3gYRYbrDpurO9nPB0KX0Ek5YQXMvE4HfqdGP9FFmNmC/z8wp+y+PWTTMQqJrRGQwsKrogv+vDmOyW04z+FXk+eywAaR9iFEJXvpfn8etEJqtQjIr6whnF/puEuXuankwvS6upV3P89oIKrAe6WJWzf7trz42r3QU3h+VHZmSHokq88LR50ZhI2nXIk9pg7WoCU2r3I8GSYK7pIuaJC3WJupdtYo+Nd/oh/s/qTfcyH2UeFRBIc4RB37zhpH0De+5J51G23TXBJGOPDg+yDrH6+gfflY+lD7cAAInqyAoTHA8oZGaw8m/rmllZ+1vjCRAZw78oNMeY9KOgVd2jJq5Zw4KEcnL6/lZcsWRZmSmOsGJehAGKRi7VCzK2sLX0KYtLfKkzD4CgNu7kOAt0sB3+q8ecVo6MC6hmrtYeI+DNnFvlQx71+Wry/9LCpQUuMYUcG7u2zSWvu5d96UZJue+DWPhJ5eqCJxaR/KMvqxexdXtYa7t8RAAkOAp1+ncl3ss4y/ntNT7LfiL7jl5LQjfWuqRy/QvtNIhB6erUKXJuTKnnnUgAFZOitvvepvQlpR9x/yia5ArmgoIvLgLnrdSBVxsknf5fF4LBFsK9sIuR+GnCwmwuQcrVR9c07UyKgr4FjUuvla6avGYwYbZlJ7SmaBJPY2jmdP6E5iTU0vOfD4NBwbIhQs/T0FMVcCLm6Vvq3fT+27eFPClxkOnRJIflcX/PRaTM1b4TEBV/B6L49YYoO584q6XI+oU7XxISvRTkGMRq3SReDaOs6MDtKg1SbxYHU0vT1fSw8fOpqPst4o1tTfO9TKafv3IMmRMdscIM60FN8ljlTnEyAl4aLIIPHvsdNo/202biFh++47NaQM+gu7yJ4vrhXsUt7tfg+XxkgIlBa4iBZyPu5mXm3ZthVtHbDnzEy0aQE6oEdq0C4KOfh0UTJnqQoDABoNDcz3e2EBoHwkeAKewlRUrsOl8jgAub/mXhXp57aLbzYoXc9C2BY2xtACkFEo78T7Hj3gimwur36IiUERjlXVftp/7Eqe7NvVrNI7TKsBvqMMLU4S+3ia1L4BhZCEgoK1v21HFyjTxp4WI//6nrNI7aaC1i7sCTZ88PpVea86krfT1A9u3hv925uarVDGgPw0MkPPZi4fACRgfjFrFiRLft1EPEJHqKyaFD2HYUPM1NRb+Kpq4LCvE4ZjEwUbCSqlZLx9fb//LKkI6VMuoFEa/lcSiuwx0FEnnjolR9qpAHiOX3mvwkc8cmktHAXQznbk0TMBDcJt1WZYQnRvnN33dvHU5zUwcie4LWL1VArl5Pn36pf3pt16fTXux2dz6/rcS7FGFOhmUSyO1lpqjy1JSoKTA2lBAzXideVvVpOrslNnqMwW/ljsrcvXDOhfuMXM7TKtwcs2KLXa2wXXG/ZcTL02T2cTav6accFxgxDlhrmzio4uGzXq1/GDjWLnQ7+o0P8VmgbQPqEM7KCBM5Cl1bRrC1CrvWrk4btvTOiTgo9/SR60i7iGRGmvlCzmarxW8WSoCyg7ppNDSuetRhoFZ7F25ChfS/nyxW5nLa6Fd73/aylVzlA0vGXU9Mkx8/IXX0+8dP5x28/2tH3pf2uWQL6Qs7Fvzjf3D4AA5H23FDR6ELDPxAPOwme2/p1mOxT6ePX7wz4kks3CBH2vwoM/pU+WEceLkaZbfNde6+K+/h6Wnp4r++ooJbj8BsFVeO6DHbYAbJalDTOrfP3gyHUxbSMBZS+P6l0Gz9uoi3poPOu4UgxvCHG4Ebs37p2m8YCSCu7g3UINjsgrTlByvb0gbK9P4AHJvfQ5IR5PPAvwV16756MoOlBQYTAoYdBRaL/hPVb845q1BaRXMbcHIlEgvcwUL8RbhvNoaTrfuuj/dtOEuzHfjAYx6XtHBE/oX2g6GrxatTYT/dDo1dyg9tf+zBIm5jpCbs9/FXNZBq9hBiK53R9OODfvSnbveSs40fJFjf2o1Zf0XkyyyysblZDI+roB3zXVPp2de+kw62z6V5gCTKxaqbVXn6O8s4G2YNWAkTVS2p3v3PpjGhrYgvAJiBaOxKPYri7/l9c+lNWxd6eWTj6QXTz3BhTTkv/7DWLHy8GXmXotPT6M5PFafgEYk7wegVoI/i+QusdIVW7qxDvZ91m6sYRajYYLxULgzgwxCyc65KMov8hPlh6T3BDpHuLShjZ4Hm0ccp/iYZkw0tFsxh/K0Wo8gLkbtAHw5MwKgZvW3GfEaXXZymKhjVhxKJ2CKnzh8Jr2CGnuWzeQV2BoguA724yy7FTRcP++yk7h/3AfN3OadGgKcjjfYPkyb8BJGLEPxPBmPd6wNkGuhaW3Hs5CPZeN6T4MXR8tSUqCkwFpRQB49D2gzUDFSQDJv9e2Shylpnecje0kdxb4CaKl2NqW9O9+Z3nLTByLgzXUgpbNyet7VjkVrK5ZskxGyzeOeM8le3K+mp155mZ3+3Aby1IrXFAfbYVodSa35kbT3pgfZZeZD7BG9jTUGoArHRbe3CgfKPMqVKK9bRPeyzfwcbR46dDxNnX4K5t0HyNmBMOHKH7VAVNKGkc3pc+56d9pY20UA4Gi4nqzO/c79Nev/8tqSXmul/WefTXNoUeW5lyoQLyhEaCIyS5Dyy3U6oOOVbi0rDfYAACAASURBVN696h25vn8cGCCnGrwTmpfech3Ii6fFtwBjeTnPT3AcjOPyj2F2Cdg4QlQnueTaRjVhgrRYRSihL/VpvcbPTIDW0DhlplRFW9VgHONIkps2jKdTTOpPH5lNT0830twwQR+dJpotXG5JBpwlw9Wn9TUeznnNOaq8NyxKeca5hQjcagvzBnvixl3Nww6w562SwQTwg9nkTX+sspC+fe8tEoLfspQUKCmwJhQQGpgUSlDlvjtGn5txwDkcVsgr7JWzu4I58uDRp1N7mqTw7Ouqpq5D5L7ia0Uza59WiqjSqv5xagvxbZtqH8MFh742p0mTwaWrKLUEgbH/M+M4cORlBOePw5PH6YMXaUrW6rPyCDM3DgcQ+sg58Km2WsHa2XSseSS166uL3vrHhVaTijqYQs80D6dHXv1/ANktNA3PZ33rz/GX/ULzpqWqiLQZz/7Tz6RWs5UqLCBxn1ap6fzb5x1fHHedekcxgmF0jqeg0ws0PP+68sjAADm18O7KoGI2L/pIXPpNOZv1N3Ahlzv4yHCuU6gnY8TnrYR21k60kBCLxb1ntFTNs66LUyCPJo+Iye/EA8SMN2AFw2y9dfxoem6SPWfrmyIRsPvaqWmcRbIU/OFvvE5Lj9EFOsvjGm/UkSy5c3PeX3SovVMKCoQWldGEyVxTLNd6CwPI539Zy7rOwfk6vSFlt0oKvGEUEOiYLsi8lmrfTEUR4AgtOrDFpR2gJ2K69JK5okEO0+mlg7+bXmr9HvUKiCqYHoMVoJ3KOreVajfVUaQwwpet3tLPjI5hkuw0ZlKjPgews6N9+kblNf3ZAGxDnPvqsYfT68eezlwak+eQgRcEXCwKl+f2IFae8I/jDDR7HVJjDdXrabozlTojM2lYNyDjNFYqcY1aP3mj618znWkfSZ989jfjOKsc40Kbt+q6JnV8WaQk9wkg15W59qJwQzXiOrOqefr8Dkpxa3a9lj8Pw8brfPZYi/vfh6LnVzRgRwYGyPkoxLPJyt5mslTZkmp+aDQd49EYZsKSRY55TBSTyWF5AHOCWE/PEOBWKLUNv4ZJzicvIRor3DINg+eJqzOR3Lzdh2+9Fcec88dlZhggFt+MKq8NhPO/cLabXprekmbpv6ZjfR26yECSykjexQm73kYmo427GgyphbQ2DDi9eXg4bWLQQ/V5FoERGKuxZ+STY0Bdk4oiAitvy6yn65gRYGk5mxNSJNxPs7sOxyHpBhXKUlKgpMBaUADPKOb1fDqJ0dHAgTG+m759HtBQAyCEvv0yp6h8o0N0phYHxfghpFX5SFuNGi+F+EqB6FYYvC4nvprm3SQgLHoD72xFwAChY+0ZQGafAmuZB4DZbs1gMnhUCytITlbPmkJEagVjrWvVSkXrSlO/ZmhRwT2moloPE6RVGfjQAfyunm3NlqN1wKR0QP/ntTV85zpnw2WoX8k9Wjyh2Me6vXCRayfrhwIytA1wd9HFcxkP/TrLGLuoNQWaM2QWOIW595Y2nbSfZTmPAgMD5MIRnudkyAedCdKtDKdDpNn4tRf2s2l8O7135+b0lt1beYgycDuXUkMR1XgLZsiDx4jKGR1DOvCMfLaSWZ85dx7B1+JAQJJAsU5agJwmUybyLLQ4emw6TZtPSZNzaKckUp6uK7ORtRhBvzaVyZWiG9lUzKS/bSP58AK95p06HHXBSpQO/YnUzkh6c2nT3GQaI+XKiNJ0+BCGepYaZfNlKSlQUmAtKaD/6qtT7fQ7r+wH+HTSO/ZsSA+ShsK0Qu4sw0S97KLXVbVyFqFd8y356TSrtjSt8gtCYfDLHh9cqRGNOBV3H4Dxe2qkECGIoMarSaL5qqgqtGorFM6vhUYNwMguNENo9BoVwGqAQAAheU1bgEF50YqF64dpPxKcC8W4TveZbg2QC1+rsftOS5y2Uuktb3m9yontDfhzCyx3U6iyLmbBdqWL87GlFuNMJioVS/InEAyfuZ6GTkB3aUXNHkI593a8NZ22tM7Cq5uhZMjC9aXVNihnDw6QcznXv40HtoKj+zwP3aHZ+fTR5w+nSR7k7SOj6S27MnNYafoY7HDHxtG0/8R8erFF1mkc6huqtAGITcLic2bt6+CxgcGo1B+qjaSDp3GpBcyFREe59Em3xuMNCZrc7/h7DHMfdo8MpT1gUtlnF21rTnycGUn8L4jlORiBQd+zeTxNz3fSzXU0eDAdTQoZvgUr52SfgitYKdaYNGXzJQWudwoI5F7HVPCbLx3F/NdMY+O19MD2ShrB/cP5uZDY/LIGCuwg5UgDrf09t70z7dpwJxr+jdSqHs1gthwQ0C+gwujWqik7eDeRbqc6S9Tq6+kPn/+/iMjHU2XEo/1LBZOspswa77dsvzvdcdNbMdNORDork9bPmxlhpYXIkccy5ZqjPk22pvaKdahyJj3y9P9Lk82jnDDTt/EMUl0POY0+bBzZke6/451p1KhVgh0yl+x7uZfZi/i/0LwVZ798/KH0/NE/6J3jWPoMYsXq1Y6yHnGJPPzNWwgGwUoyWiMMJbaDzC2veOmAHxwYIOek8FU1pUbveTBXzdnacDqNX9UUgKDY0SEevnMkCVOQtNKuRg0AMAYAmiM9B34G1sWfQK7RYy7r8XlaOpXUyIU6XUkUTZakWArgLm3ireVo6Xn4oeQgjlFA+h3cm62YO+pMehlhXY6glpGzvE+Im+FXovPse+/am95+zxB59NjZgWNmQzclsP6SAjmvKdnGWt7fsu1Bp0DMQQTNszUCsvCjkFfr+GGaIEGeZtHL9991vmMCJeXHzi1vTvfseRd8YSMcwCVRvmLS+P5F3tDTZ8XZc0S6Hj/7Snrs+SfhHfiedc70v9hxqdKj/x38snds35fuueXdgJftwEiCzRxjwn+vDwfKvcs8Sv7n2WykmGa6R9KzLz2TJudPrt521CsdWfNIQTJW25Hu3m3U6l7oOYFFQxDYH4ZmvphXlbgf/PnuOtJOR9NLxz/LuDQRXyqQs1eMR984avr8e/elB2MHj5S2K4SjZix58sq3drVndeUrrtOjPvaxJVNvcTdVRY3JVDWLdjxwOvg7LfKDFABgiYlRs6z7cN6+uZFemG2mZouJhjSldOODl7frWo/EYVCq/526SyZWV00Wx6RK4Q+4Hnu/Wp8EpdVOCzNDJ+3dUE+3jmNyacGE8HX0ZuaxGesWMWKZDrzpPLvZr8p/xT2XqUojTQz502pNl7+VFCgpcJUpoNDVgLf6Htpx57TCm3uBMm/N/m8Sj8spAo92HX8wINBTBz6RDh19ibpG4Sc0ZqSApk/b7FOCV/hbJOPNCUNm0imSgBxEnTRD3/DDDvPoCoU1Qz9tkrgBSGfTC4c/nSbPnkQAHQNIya2svZ9tVIglAMw8LSxBJLKfB/h1auwbPk/UaGVqhUYXD+lelAP7OIYP4pmZg+mhJ38DF5NtjB/zcgUg6L7bK5SlIK74WZ2Ha6DJ1g9NPQs9UBaEnzkc2B8voWgbsh7s3OT4JGE9360jUiuH5ejy7vcldOG6PHVggJyMIELGfa7CsJ8VyDUeuDoOb3mHhn73EAYSYKiTtpDU6IFtw2nmwBQby1fSDA9rXQbTX4DpV+k1O16YILJqujexmA8yhOwVds268gY2RN/17ejMp51Ei927aSNBDtzlXl64zAyzNk7WaAlTRdz6nOQ5gJ7kEIjLIGQ8vAe9PO8N7G1ZVUmBkgKXRoHgVPirmYZiBD+wRvBYYALTM7PbYOaXVumSs418rdTa6cCJp9KRzvM0JViUF+iyIdjKHHOlBsK8qZYIUCSYin4R/NYlf1u7KxDs8dmVLnYl0X8O5UGF8R2dfD2dOHO4x4sBeLTfHBqjxpWBZJh1cfwPXZxmVSCo9GgNncXcMM0GRQAeAzVWKq5jgj+vA6y1AXKTncn09OEDASINCJs3/cgFyFr8HKPkP8Fb+CALgrk40pH07tJK3eh3TIrn+56DWQzMU6mS6JPQ+gLd6lftDX98YICcj7sPhOheLZoOnZpW22J9JpX7z61WjKTp8OAbNn7XeD1Nbh5Jnz4zz+br+Do0lUb6TJzVKr1Gv+UkyE6PQh3vZ6ZEnjHXqBdXoRmY0Qbu4P3bR9Ne+GIN82oX6bQLE45Y1Mhb0Bsqw42cfz0AbzRVh3sW2liOh/LVF6eELO7xoE9ZSgqUFFgLCrSYgGfNR8Z8bJAWoG6Ccj5nXZlxmVeyrKOpdxsstPmCtxZpSIZQz4emT44gv1i1+iz0VYkajTRGECi0UhGwAA/CjaNvofIqvmlqntpYFMyWYJysDCeyJADuOoLBAIjnF7tllgT1gKFgMLlwRIpCGwEia1xfCEobgi1Xvxgr4Es22dIi1Z1L1WHWRHy/rWulYttqSBdZo/Vl4NYmd6c766ilzAz1Uhmo/WbHC4Rx12bBSShYoKtbj83TeEMWvlLHBvzYwAA5ny8fsiHAmG6oTR4Tkk3wUMoYSFOBw3yemsVj4nt+FQu6soKTdpzXm7eNppP1ZnryBOp5AMFcOMka+emDV1wKWHBy8jWbB9boaQuThL2A0SjdxOdinEs/r1H/+jYrM7Gfmag9WU1qBrOawHxx95bhtG/DMPvlmkgEjgRj6oZ/hr6AWWKN6qlGAB/jD1LIrPlgVXGuf0qpvejd4qJ4L0tJgZIC15oCAiqTUcSm7qzozmczDvAhBK2LSVYuNFgosj5Aj7nXKp0ZWUjU0zUBOgw6MIP8Q4081zWMZu9TIt+cvMNeGXSF5kiNVKdtMlxTVLmamM5KjZ0Vux+QK46f8cSrEWjWIQkxYE4XEbKX85twECAGslILmV08zu+AJDDdkpkH8n7QmjJZyxBiVWANhQlSk7Tat9xHDbXSzmTADrxLhL/pR+yLziemD1GJ1kYpUTOaNqhxfrG+JRSNz9mMGtwz+KoA2O0u87ipNG4Z99DjSy8+v3q0mV4fFYTrTyV4tm0IOle4oDwUFBgYIBdqah8E1N/xcLtgsyn8xrnjaZYkY/UhtmdBOgv7vCeGioa3PPPiQ/ha+Z3XFn7+3E26ptbSU8dPkYdNKSSCpOP3uJqHUZjYg3JR31qUkM5iHPbKSbK8F+cdWH7C2nyXwVEyA8iE78IoG9wbfWc+Z1Mn3b+lwQ4VmlkbMCnP0TdD9ipDhv4y5QhwkSG4NEgDGCxEMMFoF87XgZvnkHtZGi+OR6PrWMu6NjekbLWkwLWjgIEMEyTtHGmfZD9kBa+tGXBwrGXeN353B5p+JaCZ4CVmuxyBNB+drWm4uY1LTvCTvLpXgUAmKtJVplfjKmzRhdOtw/KpnNg7N/K3gUBi54nWKGlFNmIGBSwJnLTo4PXVaG1LcwH89ADLbS6+U9GQWrXeT33ech97Jy2MQc5Gpj00l2rJGhwfThNRQ2j8UFqMDG1G6N2Jj3f2wcvqi6KRDJr6NNn3cNiiiq7IYWkqdIyAxDr0xnkP6qtAkQ8XSoWVqkMfR5CagWcVUo404/Z4FaZe3J+G6t6hCxBmpWoH4BjrW2+1vAEGu9pQlMyUFLI62t3xUjo8206ffvVgOo1a+m1bN6S3b8sP/UqkCCmDPxMGIwwFE5jj5Y56L0/OpoeOzadT+hcQKt10Cy+eNyNZhwEeTvZZ8tCVj+BKlO1/TFOpwKzpfnuCNRj4BFLsNlyK79m5Ib0JIL2B4+pCTfirz0r4uGgqgdrBVMOxNzMPzRVuhN027xLXGQNV17kxi7HwuXyP4h5TpwtAWUoKlBRYGwqoEzo4PZc+fvBY0n3//q2b0gNEpg/jF9uKPbDQXK3CVTtGhjqLe2bCZncmHZnan07Mvg7vngIwaAa9GnMc/7oqKwx+bJsqu9PezffSFu47+OOdnj+UDp56GQvOdIEC33DimkBBGbSC2XaUbb9u3f42IlG3wvvIHdo6nl5hG625Lu33ymrr5qV3rjDqZqBY646m3RtvT1tGbopAigiAyNqRFavOmjx4NLz/FLxa7DZsUAt7aHcxfV9scMv1k31hRTJc8sGBAXLiegUXHzMXfLNZC84EdORB5GFRemGB7+Ha5Q9CVnQLFLImx9QjXQBBB1+IOa5/caaTnjx8Kr1KbrKT7hhAnjbDuyOQgjqDl4joBqmIXB1z8X4pY+ca92DwYjdmUZIbBRTfjDn7wR3Dae94vl8VGENO9BxQPdozB5R6UBm1tfiLv3VgbB00rk2OH56eT8fRwG7k3JtHR9Iox4fQzKm+V3YM/4w+fiKXMozy3JICJQUulwKaI1sk9kDLFPwZw6NbQLHIt9HcVCJqtX8p9kMt3Fo0f7bDHy6/999JtX+dF//LXFhvKuweUSE3G4wH/gInov8tXEK0AlxZHrxVeqI6EBq5U40UivYVaGm7w95EHaxH2auvqGPRaWWVWi/qp2zTkOmHR3Lwbe9T3CkXXIjS1Z69YuEKQLrr5jx+ck+yzWLTQBcE+Hs2YPuKDBPZhWnFy5ccXL5+X+j86/33gQFyAgI1NerkMqrioVHzotQWPlXkJeoFPKz4ELi9E5ea9duHVHDmZsnW1dVplQf2DN+fPzOTnkVDd6A5RN4jAB2ZsmkGKVIw4aNdln4UCOosIVGVe1Pl3lRRs2+CN+0jxcg9W0fSLubyaKjuVepnVX7YWeIe838B5CIKbRHIdQFyJhCe4l780meeTL996HS6HSvGn37f29M+wJypSOQ1MvqAgFF/WUoKlBRYCwoYXGZkad2dZzAXBghAqyVAc+5nbVp/nqrw7TWx7WIAC/7g1zrTK9zl/6/OyHTzUCkgP4ldDnzjv7AahGBv3/oBmivsUzBB2jGAQU6mBcIqSXfCDtocE8KuBoGvpP1snpW+8maLbZu8WGtJrL+rjFv/ZjWoU9yjH/qDJ9Pzh46nrYznu7743Wl7w2BD4fyF6bbiGn4lw1rn116tu7kOh625TGdTo0+Z1j7sPCzxUKDCFWatdvOdmJrqnIAB5ZwrEVGV3eSdLBtAAg9sG0t7N42lQzOt9PxpVPnz8+k0WHEOKSg/3OuQNOumSzKfxc7Uodt2Qun3bKixq0aDnRsqaQxm4F3zPgar6DFGvyxl6d5PS9wn3tXaqb3TgbYNYz2BRP9ybSOmVTaNxjm4yb2s6SdDfQK6QIRlKSlQUmDNKGCeuFmmoYAtEv9qlmP2C4jU9ARYUeLqU9SIFYAiAp3k3GFRcXpn3h3yn1X3qeNSD0c34yKWVn3w6GwrBEv4Fm26vZhAxQAJgWWwmiWNvBH9cB0TKwl4tTxlzBZewbSEpUg6qLzoU66oD4DvSHasw0svetXx5XUyW6cK3rxS8y0EbbcLMxTjKB1/DZF9HjpO64MePk0rXVUeGyAgpx4tTxsf5OwAqynNB7yXs2a1h4Q5aVoLmYeAIP8Zqm4skpPGjZwFDK20A1CweaKa9k1sTKeJAjo2M495YBWOUz6HPQr0tGu9b26MvZlw+K3whI1QelgfN+jfAYS1g1kFpD6Hehl/FawiA3bBnHc5C4Tcc27FPIxhDt+7JmkHBPYy1fCv8y0quSJ2Vt7RkgIlBa6QAvqzyqfDEoITbJ7HzG3nKPM++PEqfFUwYxEu+bcgSAfQyNcW8tpqrP9ShxE1h+VG7ZOtusLkFsLcS79COxh/55bl3y+1bc83wC4XtY/WmH2Ne6FcfKfdYIYrlyvrQ24v2qKNTPdirPke9OOsXqlHuaBEsC2om66MkOLLdCQFT1+5z4N+dGCAnEALJX08IFW1Or0H2WkWeYNWYQg+JEZJKUO5yIdU1cMQNbQ5Cl5d7PiV8IEwnELtXztN0MZEo5L2sIlxwVQG/YFbdfzcm6VMpE1agCESVurSnBmCj2vvEz4geT/Ec2vMTCJHF+uDIiNrg84MhgiUxj8t4uZ7GsX8Pco9Gg5tK3dX6TWk1hJ0r3qfyh9LClwDCsirx5yrAK8WuznIVethUmVOc0xgJy/uX+DszH9nd/Z69UwZgfO8gHf9r76SXwqwUviIBV8RwNkf+FBAy6u0KAR2Y50STJlyK2vIoJ60hH6hjXTRuiqFzA24KMX2X/Gn+5L0BpIDyC4MxwB/9L3BzTXVVz7fNZe7GEFpq+d7vSpDug4qHRggF5q0ULeIuljoeShiXSeatIYPlg9aCy1NGFmZcItSQ5aa8uRjife3mCj57qohqsWksbJsdlWSjLptk+PZt7N3wXXwUKxZF88R1aBraEDVknGvKvh1hObMe5N9XrwPkUCzV3Jou9xy2QhCAs/HTY4cbBwkLpOvU79eFzIKb6x/wTyioeUVLau3/FpSoKTAVaSA8xafKVTobp1VQRrT16pIViuvvmBxWi+c5CdewTOs64JXX/kJwVZye+f2pMdjrryF82uI9opRL0btZr4o05RyV2vwjmsJXLOtaJJj0a/+xV/lxy6eHXLiDRMoGGsqiH7eZZs1O7yhynIeBQYGyEXaEXVlhIEbmWiwwhwPyyketGFMdeM+2Dqlcjz8rnoAwWcv/Bvi4V+cfOf6wbP817KE48NoHpyyXDkFutyXgh9lihbMRzYUyUXOZ8ZL+ZMMJQIXBGf5hwDifG5ipp2DKbgND5Ht3Pf4gSLzUCqUh5T38crvYllDSYHLo4B8d4ZkwO7AELnE4MumG9HcWiU3WVeV3aplUet0Dv+Iy67R3KaZxXQbub9LYM6qvb/sHws+tjBKD/Q0gguVXr3xL927Oy+FF6/9E7B7h2fhy8No37rwaXfJYAftyBIVuY7Lch4FBgbIZX8Fxg8z0D+gyQNxFHPoJ4+dBNxV0gNjjXTnZh/2q/eAn0f98sBVpUChWc0gDmaiqRVeKi8YA7Sbj0q/OFMBGMlmFvHAe2Fi9Tkon4WreoPKyksKrEKBLnPyJCkonjl6AsGrm27ZPJzu3jBOfs6cXsg41AFawFah1I3zE5uxkZ7FfSDgvmx/NkzGvWHy8ekak7MU3DhjfSNHMjDzQJTfLrRq+kOxRr8+OZ1+9hOPEeo8kT587y3pDqJN80r+RpK4rGvtKJC1qwanWJSMqwSiKNVvJzLlDsLZbxupEseVNXb5LP4PE24J4tbuvpUtlxRwwlbS6ydn0k899DjZz7rpKx+8Pd0JkNOZX6vKhfRxJQ2vPwoIzivBo1Pajc/LXSPdtGW4EvtTmOezLCtTYKCAnBM/tnThQ8TsYLprkoLibGUzYe4jvWhUf+85pJbauZWfmuvkqHBMg3js0+B910+Dtzr39YNvvj09+GYyr6Ovv6mBnyR+eIUvR5zv6dfJOMtulhS4USnQIg/nqZEt6QQ5IKdNAswMdp4uOrLcqCMfzHG1CWrR7ckgly+//470AYMz4NFbGy7aJXTv91QMDJArCCATMFpIlqBkN8QGxXjRxpK/WHporx/VyuPXCQWyXq1w7c3pDNg2jcVgd6OWbiJVjNn9ar20JkXyYKPhQvYr+cZ1cp/Lbt6oFJAvz+Ir1dT1Qa7tnAweXnjJ3qgjH8RxmRkCn0husubz3QD3bQQgtuvuv8quFHHPy7ISBQYGyGXtjBExamf4tqBt0xmebUHCKl+WG4sCcv2eDca3Hj73oVcDV9GR1ghjQ6F4HuIPaTB85QLKBZwrS0mBkgJrQQHnbOR5IsiBt0b+yBamCOHMUXl6KWutxY25Wm2qYBGqcV/DiILQbcaC3pq9mELmarV//dY7QEAuO7lHggkWbfNau8+Dmxt3q7Mc65/p+vq9vYPc88ziI49U2NGNXc3HYu9b1PSGuCvpG89sDKyh72ppzV+UNbSl/DfIT1A59rWlgLPVXJFGntd6QE7r2hwuEg21M2YXKMsNRYGhNjsvgUrczUH1awMQZxaILscjGrb0k1vxfg8MkFMdY3SqjMGtmGLDe5ZrUX+Lh6ZFFKMrvhnKYvnuaewq2Nliv7o19JcrEkcafl+UDpsJ+312dja9/PLL6fXXXyeNRjvt3r073XHHHWliQvdQu20KjqF08uTJ9NnPfjbNzc2xeXy+1t+Hh4fTtm3b0t69e9OWLVvOucYvBw4cSI899lj8fs8995ChBUNljxaRqoXPr7zySnr++efT53zO56StW7dGHWtfskbNrWGCAdDXttuk8VGgBhGEbvwWol8+x8SVgjjGFN515Tqx9rex7MHAUkAzapVcYvpNzdUVvuVlRqpiQcElJpLbLvWIuQClCr43NTWVPv3pT6d6vZ7e+973plotL4PyNovnTU5Opoceeig1m+YYPbfIW2+55ZZ08803Rx2RL5RrrfcTn/hE8N8777xzgU8uv7783p8CQ6SUcZ2ucn/VxjZ5ncVHbhyHGHQuLFi8SkPJeQQcHCAXd98VW1Ut0pxSHYv2RHM2zXZn04hJagLYaXblNJhIsZDHsfNId20PFCBO4CRgm56eTv/n//yf9GM/9mPpiSeeSGfPno1xjY6Opre85S3pz/25P5f+2B/7Y6nRaARjevHFF9O3fMu3BKATvFlPAcRGRkbSnj170p//838+ff3Xf33yu8VzPvaxj6W/+Bf/YnrggQfSz/zMz6Rbb701frNOmZfv9uPv/t2/m37lV34lGON6KUUsaujiepPf/Q69mTmxeTuio0KyVxun9k76BpTvAfr1MpiyHyUFBowCTlnX7fHWTMILgnRBJAfmoK8hEVyguIvnzPKrVquVPvKRj6Tv+I7vCN4oz3rXu94VfMzieyGcfuu3fusCv6ySwKzgedaj0PslX/Il6a//9b+etm/fHte8+uqr6Zu/+Zvj2Hd913cN2N16I4ar2C1aq7kHU9zaNverAtCOFbjRW5jfiKZusDoGB8jFM5D9oALP8chsIVrxPTdvT2dgF7eN522gYr13YV8C6Nb6ni/VxPlZafE//If/kP7dv/t36c1vfnP63u/93gBvMprHH388/fRP/3T6S3/pL6V/+k//afpTf+pPnSMZfs3XfE369m//9pBCrWtmZiY9++yz6Rd/8RfTX/trfy00cDIiJU0Bo+dY72c+85n0kmAF+wAAIABJREFUr//1v07/6B/9owCCMrMCCEqfghGuNa2Wtp+9Hg1qsegoC7STOXBE7VzHYAe0cG5jE/dcfznO0sCaQfzFLxLradxlX0oK3BgUMPVENb3vpq3JzXf2jcN3mKF6NLu0X4IyLsghj9Ii8b/+1/8KfqkV4xd+4RfSW9/61gB1lqV8zc9f/dVfnf7sn/2zcdyXPPH48ePpl3/5l9N/+2//LY2NjYUQa5EfylcFi2W5PApk60kLWuZsA0PNWmoAoltw7Vm0c6OxXWNZllNgcIAcI1cZk7VrPgqddNP4SPqad9znJjDsi5pTkxSgqXhYCk3OcsJd6++FBk0m8Vu/9VsB4tS4/Z2/83dCzS+TsXzwgx9MX/AFX5CUJgVyH/jAB8IsapGR7dq1K7373e8OhmOdHvOaL/3SLw3N2w/+4A9Gve94xzviGutVGr3pppsCIBbn+lsB8qxnvRUhmHusVvGBy5o5QSnGGUzqgrhDbPtzulVNGzDb7EAtNxpjyJrXMKz6tcRx6+22lv0ZIAo4BW/aNJq++q334L86lLaHvMW+q+7ZiTYOa+slF4XWT37yk6GRe+655wLUyfc0k8rrCj5bCKlaINTYyQMLHus573znO8OlRSBoXbq0eFz+7HnyVa8py6VRIOA5fNvdHPbHzpk4wJAUejv5PrskCDZlmHy6LOdSYKCAnPc/8orxcKjEHfUVc02zWtbCCPQsywHcWvtLKQnKKDSp/uRP/mTasGFDMBAZTcFg7LfnKG3+vb/390LTpqnVYwXYKj4v/2493/M935O+7Mu+LP33//7fF4CcDM06vvu7vzv95//8n9O/+Bf/IsysgkPrKDR7tr20H0HENS7eYzgCVlPueeBcfCAJa5+BGfzmky+nzx6ZTrc1mulr33lvunm0hpSfWUSVMJgw3ZTB7mt8B8vmB5kCculRXnsUJpm3Rpo3Y6EHyMGmi+Cl1Wi01GrgeR/96EeDh77//e9P9957b/rZn/3Z9Bu/8RthpVh67lJetvS4PM/vO3fuDD6rW4sWEoHgUt66nBcWCoKiry+99FJo9fSpE/R97ud+bvqKr/iK9KY3vSlOKUy5p06dSr/5m78ZLzWB8t4/+Sf/ZGgRC6Co28zf//t/P8agH/Tv//7vh7A+Pz+fXnjhhfR93/d9Yf4timDzP/7H/xh+zSoC9Gt2fbEvv/qrv5qeeuqpENz/+B//4+kLv/ALF/ytbf8f/IN/ELTzfPuvP+Bf/st/Oerw+v/9v/93evrpp4Men/d5nxfriT6FxTqxnC4LnYoP0BZGbaDyWej8S08/l148ejLtZpu27/i8d6dNAvgSw51Lst63S9VOr1jJ9XBQDwgV3vq5q7YNbzgmUI2HuqbvRS8h7PKxqJTJ3hPLf7m23wsm8dprr6WHH344pESDD1YqMg01bN/5nd8ZDGdpWc5QZCIFczJYYd++fWFGNYiiOO459913XwC9Z555Jv3QD/1QmCiKUpy3Ul/W8ljXm92G3WNj5S2keVVt7tv3zOR8enp6OB2YIym0QRCxQDgdeC68bl3c9bWkXtl2SYG1p0ANXjaM/3KtQ44BVnh5jca1ipEQBiddoBRaNk87cuRI+MfJ5wRM8lCDEn7pl34pfIwLPiaPLPikwQ4elwf6KkCdLimCMQXq8fHxC/Ti3J8FUPrS6d+skOz1Cudf9VVflR555JGF9uT1mnV1eRHQbd68OYDoN3zDNwQAtT8W+/Lrv/7rYeL9H//jf0Sdhw4dSnfddVeMTYBVFPt/7NixEMrl8ZqGBXb/8l/+y6Tbjeca/Hbw4MHwmf6bf/NvRhCH10mL3/u930s/8AM/EGuAvtS2Yz8U/rUC6dqj1efEiRMh/AvyXCsKul2IUAY6qEWZB7A9NdNMj8510/MzGNPJ5B85BMuyIgUGRiOnhs3QdcPYA/mjuu2wYJt2oqWUxVEd38Ndqof6PVY8O76vlTBQMJXCP0OmI+ByIi0HZo5O5uW5hfnUY/2KUp3neo2SkyYCJTKl1iIoopCmlBh/53d+J/3UT/1USFt+X7/FiFruWS89oEl+BXLGvJ1p4efS1NeGnf1IDKxWtsZioVpfQGdeubjXJeNYv7e37NkNTwF9mhWuFLo7MOc2wK3CMQMg1La7Z3bWnPcnRQHKBGNG3yuI6gMsABOA6Eby7//9v0+PPvpoes973nOeedWaBTzyQvmkL4HQj/7oj6aPf/zj4YOssLwSH16pV56nJktQqV+yPs4eExR+8Rd/cbjMWLfgRzcXheof+ZEfSR/60IeCnwvo/vbf/tvpn/2zf5be9ra3hVZQIGYdAjqBm9o0QZfnqhlTm2fd+j1Lh0996lPp8OHD6cu//MtjDVEL96/+1b9K3/Zt35b+xt/4GwHupM3P/dzPBYhUCyigVMNnvbYjCNX9xvNOnz4dQO6LvuiLop4iwO6//Jf/EpYh6fRH/+gfjT76sg8rFdltC7Smz/J0s5NOzsq8J9IY/XZHpi6aubxKr3T1YB8bGI1cXpQXoVloYDCxmUvMBV2NzUolP3L8uPKzt9Ilb/gxH3xfgi0nrZ+LVCH9VNX9jq/UOc8tJpiT0Mkq87IU0qjvSo5GYxnhqlSmj8h6Ld6uiFY11UzcdkMYZP+ddKo5n05Oz+B3M5f2sL/uOJJ+pYOGEaak1tY0BxeW9dfryMt+lRS4MSiwIETDe+Z4kfGTgQHe1ESF1vziirxLwfTXfu3XQluln688z5eRpwqzghZBmqUAGoKUf/tv/224rwjWFHLlfQIbAZfgSlAowLqUIkjTHKv2ynfb37dvXwA2sw34XW2c/RVs2Y582eNqyz784Q+HBvF3f/d3A1wVPFozqP30u+dr7tQ86nlq2Cyer/lT1xiBmN8Ff64nBsgpzEsX2/rKr/zKOOfnf/7n47yCZvfff3+YpT1HcGhxXTJq11ehRPi6r/u6CMpT+1loDy9EJ43nHcDc5Mxcmjs7n0Zxi7t7y87ILDCjj1xZVqTApT2BK1ZxfRw0d5jxiN2aGhekOiQ7s/irizPZRrfFEo8k0FRDxXcTEVaYyOEgH2p8SbU2uLeQ9pygSlC+Hz16NCZP4Sex9C44aQpm5KRa6Zzl5ztJPVcA52RWArWepZKmdd59993pr/7VvxpmVv0slLg870JtrMVTUsVk2mTDZSOhRgx7azfTmcZ4evz46TTVMv1MM+3aOJoaLhCMrYnZtQkCLDSza9Hnss2SAiUFehRA4+aWTXLphtIY5tXUmYVPw8m7aMhQs9fkzfBqBbchhDbfO85j5XR5n8eZ20aoapYUlKlRU9MlbxNUeUww81f+yl9J+wBURfE6za9qs5byNwGS4OTBBx8MXlnw2tXum+cUwrIAySAJTZG2J1hSM6hGUIBVaP3k8QZmqCmzWIe8VhCnFkwf6KJOj9uvQuvm+YI56zVITZOpdZvzU6vKt5CKSr+5M2fOhK+caank6QUwK4CXASHSyN+LMWzatCnqLhQAtito+yf/5J9EcJ3+e/roCZIFoZqEvfZCdMpxqqSaaW1KzxwE7LYIyGucSbdt25y1sEOjUmE1Mg/sbwMD5Fyoezqa0MwUj0ObIAft8U32c2sxsU1Vo+q+IuOAIWiKU8MfxrZCRLzGj8vSCaBU6MTR/KnmTMC1vHi+DqfmfdPvQhX8hYoMQQbhpHbCO1llXkuBnHV47E/8iT8R6vL/+l//a3rf+963MEGXn3uhNq/27xV9HyvCd+4dmlfTjpwmWvXxV45zbDjtHumk27ZvIvrNEBfO6T0U+dsa3eyrTZSy/pIC1w0F3IpLHRyAi7nbqoyneaYlAYxp2MTuzGjndhf/Cc2wFf2oepM4FjbBk9o7iuBFC4ImTB3wC1CkNk3gpFCsifEv/IW/sEAdz9GxX4Aj31tquSiE5UKIvRBIsdICdOlvrC/b//yf/zN89gxOMJ/dxo0boy0FZQVq+bv9KnKEFh2zTft1++23R5+WF9spBHNNr7aneVVXmN/+7d+OugWnjl1Nm6ZSAZztWAq+bx1ea78s0mn5OIvv+tO9/e1vj3Fpuv3hH/7h9G/+zb8JkGraKn8rxr+8v0u/m1jmKMD8E4dQVNSraQ/3/8FdaOQwlczWGlnIXq2CAf1tYIBc+FnEQs1DHhEPSHpIdnO8jjdb6VOHj6cDx06mL7prX7p9tM4Dg4YOxuA52XtqbWWBYhII5JR2dDp98sknIwx++eRy8gvinEAGRFwIyBXMQGan74STsmBwyxmF/dC/ROlVqfYf/+N/HFKXxwspbr3MJYMWvHvB8tl4ex4N3f4jU+nY0Um0cI10147RtHuszvNg4IZ6WM2v/IW2Vs3tehlJ2Y+SAoNHAWVpmba+cSexmDx84GR64dBk+rz7b013j5Ht33lbxXKAxt1MBP5V+XO/zirTWZ9owZzO+iYt37dvX6Rk0jwqSJK3ybPU0BkYpu+vQQgCl368rOCHhYauAIQXujuFkCtvFhDJxwVs8lpzdxr9ao7Of/gP/2EALoV1+ew3fuM3RtCAQKsAj14v+Cq0Yiu1XawXmmIFbQrdCveaa9UyCvA8RwuPbWly/omf+Ilwn3Fsxfhtx+8qDOxnMY6izaKdAvSaEF6gqInVtsxyoK/ff/pP/2nBBL18vVrsP/evO5JeOHE6vTB5JNWrjXQv9+IWTdf4zLnHbjixl+U8CpwP58875cY44KKsbObarJ7NRd7wdYJi0vMHD6efe+iJ9KuvTqXfefFYmkGL4+NSwV5vKgrNsuvh+XHSOOF0sFWSkikpYS5lOjIow+lNVqkvhz4SS4uTaOlkLK41hP37v//7I+Loa7/2a6POQgJd/gR4vQBR6VEpV8dX1e/9J+jyGq7R94hG9Y5zNxm30vrW0Ua6b+d4ur0+k95969a0Geneu+15nqm2Nk+KEsVdo7tUNlNSoA8FNCX6UyU98fL+9MsPP50+8tqp9NH9p9MZhS2OI4bhJsN7rO/6uCK4LfGfk1cp8Lrdlg73f+SP/JHQDglmTPnhu8c0A+qzVphc5X3ys4KnFd+Xd7Tgk8uPr/S9AH3yWQGckZ3y89tuuy3AVsHXBZ4GLBhRKxjSv63g2YI4d9sxBYlBEysBK9suAJb91idQAGlkrGPUomK7niNo1aoijbSyFODWOjTtFlGzrjeW5YK9x1w7BJzWL+gTgKrJ099P8KwZ2HVpeV+jwnMKQI6tuTaiSHnTrrF0c/tM+tCbbgWUm20AN6IQtsuyEgUGRiO3/IFxYQ+wxvstN+1O41vOpJdnGun/vnQ83bt7a3r7zhH2d8PBE05SEwVGhti1W9yXgiQjRnVM/ef//J+H9Kb5VElIh17D0HVm1XnV/EFOVCdQAdj2798fjKCIRNXZ1nQmRlCZJ8gwdCdfwcSWvstELIU0qonC5MRKe/qKXHiirvQIXq1j3l/2QYy7lgMdhrnXezfU0ze995508NRU2rNhHKleCLcI3QRyLhxlKSlQUmCNKQC71SqiIHbrLTen2v7JNNkcTp987XB627Z62rpjgq0Vma1EnNeRtE1RoZuMXnXOYAGdLwVbgYhRlYUPWAF0HKGaLfmoQOTHf/zHA/gUPFMAZFl6/lKqFIKx/HWpQL3S+R6T7+7YsSO0VPLMP/Nn/ky869JitKqmSHOzqQEzUbFaOwPM5PdeJxATCDoOgw4KXlwI3fJoPy/VGOrXLHhVuFcb6fgshQnVdCauG6YK0edZcCuI0wdaU6y+b7ZX0KQAc47X9vSBk06uN9JDK5HfNR273jhGgePSNWwpDZd+1iJy58Ro+rZ33p8OnJxMd25l/eKOmh5s2HuMJWUt1+F+/V7r4wMD5NSoyRNcpkP7gsm0gtp+mGNbSUHxoTfvTQce3p9OdGvpZx97JdXefWd6y4bhtBGH+IhhzEqdtb5f0b6Mx0kn4BJEyYCMrnKiGbWk5Kk6XqfTgrk4+QwrN5O5/hgWJ5aTWfW7UUgyCJ1jC/DmOU5gr/PYUmnMtlTD/62/9bciCaWq9IJ5ROXroGQtWyQUkRPjDN0mwWgiwST3fEsjYHnss4qsl5NE2+lFve06GELZhZICA0uBbDIFpDFFd44Op3fdeXN6+elXSUvRSb/+xP60411vSneN19IYgnaNQCb5O7FszHZNrcx7eNuxI8dC2DQwQTBT8LAC+EhceZtaKX83wtOAAI/J95buS73ajSjAk9cI1paDlgLY+f5N3/RNEWQg3zboQW2VYEgNoaDJOjyvSO8kbxdsafUQ9OlaI8DTKlLwaoGSfZUHL2/b+rTMCGhdG4rkxbZhUfMnaDOliUBOgd66br/99kgArLbN4vm24/hcV4r1w75rHdLNxusdm2uU1h2tNpqri+uXriFx8LzCuoJv823cwz1bNmBWz8DcPbKrubvnXVEe4Bnm5tww5Fl9KC7mSE0x0X0o+KATBQ9Ik0l/BFD3k599MX309TNpvjGSHthYSR9+4LZ0LxqcEaBABK5y7nooS8GZWjhBlGp6pSMnqVt2FRO8mDiq6/XDKEyg/i69BGpKaUp7hdRUMDl/12dO86lRWgZALGeAnmPghe0rITqp102BwZtEFFdmuoSUanSbZvKhFnDNxx6GC3CPGcDj0NZpmuOcyfH1ca/XDS3LjpQUuMYU0DeuSaTqCEy7hcntNXykfvyx59On9p9IzfZoenDnWPrqB3anu8cn0mbmMGcREOHMll8jqDOFtTjI97RQmCC30EIV/K/g6QUf019Os6C+Y+aW05dtHwKzZTUQIk82WMC2NItqLl26XhRrU9Gu55tLTtAoTxb0CJwEQP5mWwI8izxe86XvCt0Go8mrLdYnbzeRsLzfOmxredvmlDOPntq+Yn0oziuCGOyHaU/0hbN+65KfFwK649MEq5WnoKV9sL++1MK5Fnm9QFCAuDwhfdHn6PwKpY3mLYLU5MQd9EwEPGgur0QOQfWsF2ctWTr+FZq54Q4NDJArsvV3dHCNiY6GyRWcB5A5z8PfTs8j6f3wEwfS/8OhdisM4R31+fSn3/1A2reBrXpDrZtXfP/3W/G/x4UAHvExU/vnOYLEfK4BFsiJcJZw+eCg5wZU4D/xpClRDMKIiNpw6ONar+fjUJHBXGDCMR92s51lfy4edI5HIAfXN4zSxDF4iGjckGY4vy54sWd8zsWJzumeBz08rwsIrNWMUs19yRjX82mLgxU0mF2T5rqVmf0K9EO70Rfrc+TFe24lt1a0GT9n4vRoJy3UhDnIPJagjidZk1JGfJIG8d3rgiAhc0ctEZTAu2Dcv9j6OuhhH7kfgLMuwM2I1TagTdU98iTaOZ2dderl5nuufyScjDZNCGw7ZSkpUFJgzSggJGszT8P/DT49U62n5whb/ZlHXkyfPjYHr2um+0en04ffyw4NDQRu5m9L5osgVgH8ySFCM8eRzP/lIk53jnBaB8BQ1RwrXyOqXVZWizBZ7bVEScIDGvCGWCeCP8hahBgey2QxlEqu5RaPXbYRU3NEBdGGOwjZoEeMnpVvypfcAzoC7vKZPX0CygXq97j1FO1YXV5Z+BAD4XqBnnXyi+tB9A2NJOw7arRd+XrHd86Ul3Xc4QZaSA+BWQ7osj44vG3yp5tR9h2PGhf2ql5Yjxh0rFO2aLP2LPi/FitesQY47kzj4Kn+Gguid4O2vdoxRL/RpJoyxp/53I4sEYzNPsbiEAOmSlOD5TUhc3vbXr0MGpAbGNOqEyM/eEY2WXwoeXP2UCpk+78NZvAN992aas0X0/MHjqTu2Cbyyqm18QwAQW+SW1cTJuAzaeoKZgkMBD1OmGs5lYczEtHWfGD9ngGaMZQaaq1Pv7sefOiBMB9hwAU/dgEX3TZwg442ASINXlUZExKKz7aSahcgpyt/hNdX2OEhsy2HxbkcB522aV/GVnfu2Jpoz8kY4IxjvNqMu4tpuaZKnhko2ysS4gZTURLiGodRWeIn6IQW7MEvKP4aRIp+LBbBFBNfGjm7g3nZsAxN/xX657ikB/XU+D07tGrqhLHSNygoX457NTSktMq7370fTnppRY4/sktFnV0YVpNrXyHhrwkl79m5MfvBkUxS5uHYlOxqpIr3fsZjQU2OIBC9/ctcask4yo8lBUoKXGsKhLCNaNaumQq4lUbgD28eGU1f+5bbU+ex59JTx06RomKTzl7M/Xn4iDzAOSyPx9LCd+d8g3rChUKhLuY3Al3s6en5aPE8zu/1KlquYE+CM3m6+y/rgA9/CM2+4EaRkKNcr/DfITyWfRXgneZVU9gVsLE2yLxlXPIt+hGskyKXlA27e4EleCB9jL2++TV67xpgxgTblUGFcOmvfrQu2oix1Rmj41GA91faDaE/gzh5ueuAPDLYnFUBdu2x4GzIjlgvnRPM2VkBQSgLoImhI2o2q10ya1J9NnXLgBGKrZtXlfaqbp8WFDNVl2PJa4lDzrVoEdHPjSvoyzTXnWRdPTnF7kFoHW9Fw1enDy36MMy79z1YsMSIUbt6+X+mmUfLci4FBkYjd8EbT+JfHWVP4SB/cKaV/vDpV9LtN21L9+3elCZiogM0eEBjKyceOB80ZZFAAmINERy/d3zIObnNeWqDqkxqH8NOh7SzTHSnqzlxhginFgV1MPxbl1MjKVFybI7JI/SL67uzADmvGg6A58MsuBHKsRsqTKCaxpiQapmYavwiOMrgyT0rhvDx68KgbLvjRKLOYALMkjleAqNRZ0lM5DymiuDWTarbmCARjdzOzL+8ZU6WKkO+4rrMNr0+Lj+38Lu5+WQiWbvGe8HAZDhoAX1zd42OTJA+VGGOtiNLc3wC19HobTaPCtpkPvZ3rjvNZ9P3wuw5d3K+k17D/PDQ60fTIwcOpy3Q+Js/9M5092gtDTOWLlGswTSjdq8ITlGWkgIlBdYpBRQEm0QsClIaAo92PU3CI5+fnU8PPf9quu+Wm9L9W8bTlhCsEYXhI/LlYfjRUAfhTZm1Au9ktpvYPWt0FEJzYIT8pi5/h98NkadMIMiv8CHMmvM5vYmCIQe5Fq5svfYJYZCUlJHPbqhNRKd5KuEvxnYqZNZYT6rw7Vm+BeChAnOUVlkX5NMdeHyAtBD6XQroGa8W9ZsXr1qZggXbmHlCAZ7wPfsemkXHSl0dAKnCpztdREyIACxAmXw5myM1eXZJ46FCQTVCpQPPpJ4QlKlTbhj1Um2XY3JayVwTsJreJUBthlDSZcgE+bTTpF/ckeDr1dAGur5k/iqoG6afAmXXRJUXbWjm12kG6N6p//fQqfTUwSNpKyz4G99zf7qTRWgMatVI9ByI8wpLqZG7QgJer5e7LYjMYgsTdPNIJd39wO2B0QRY6Hh4yAFiTjLO0nNhkgfzuWOn02mezjnQhqwiSyowDD6O8jDftYW9S4d5UnnQm+IPJod+WjKVGWbeS1OTaf/82WAKo05KfgF68TgDTZhMd20cS3dwvZO8zfkdGFVNiY+8d07E/eT4efbMWaQZgEpvss3Q6Wkm2giT/XYEzDsnGnx2gsNeAJV1JyLf55lgB+eb6aXjp4IZyBhkMUpFFRjIGAxhI5Pzzm0TvEfXPCVLSsFE2DIF0+zjx86kKTFgjzZ8Wigyubft2MRepph36Vceef7ZupTMXjw9mU7B/WaggUysRt+Fsdan7HgbUUu3jNTThMQP6dl+wNQ4v8mkfwKp/NUz7XT0ZCu9fnoGJnEmnVIq74ykmflT6dGXD6S99+5Nw2QJ1+whT26HdG00ckDMpV0uP5cUKCmwjiggv1VPL+AIHgSTmoBH3TdWS3vvvyONMKdHFQg1R+LvK+jwRN0p3K/z2WOT6Qj8rVkhmSw8RIAhqJmFv1Vbc+n+nVvTbvhTTcSHdq0p0w8gUQ1Q9vzUXHppWh7NFoV893rZ3Sx1aLu4l8j32+BPAjSBWZhY1WJRX5uF4LXpZnoFHi2/9bcQuKljnhebzqRbCRi7bXws1gtBUVYE0Dq8tU2fj85W0kvkVZuVewarkgjZ/lJHm7UNK9IdWzclwgLkivyceZrKA62erA7pUUDTMY5rGRlx/XCdGSLZMFpMr7tv28a0U2GdPjUFlDRUkUhYgM5ApydYI07TbcFYg+YFeioSugC9EdaTOwhKuIn7oThdFbAFj/Y8tkZjzM+emEzPH59Or8Po95/Gp3u2lU4Crlvt4XRm7kx69sXD6a57d7G2AfkAnd7zslwaBQbGtHohsuhrVVexrEaIkwVSoXbmLTRhPpxKN3yYxVfjlflW+vnn9qfHTrfSGbYOqfmAM5GU1sZx+tzTnknf+v63pG1biSZqGQ4ukFEh3Qpz7TG+/+JLL6ePHSZvXWNzqs8Np3oPEFUAGptaM+lr7tubbr59RxzXv0EzZ0xi5uocE+zRo6fSzz/6bDpa3xYTSJW0fiSCxC1IXl+ws5E+/I770m5mlhNPs0DW3NmToXTo7Ez6yYeeTq9VNsI0OOYEpW596saac6TqGEvf+/n3pU3Bus4typmnSfz4o4+9ll6ec/LLYHrnSDQ+b2Wif9/n351uph6lWQ8GHXsz9SQS4U+9eCQ9fuB0OluZCGYr2DVju4xxe/MU/i8PEIyxlY7l8QvuQr6VWwB+P/7M/vQ7x5swjK2yQgR2mCLA+WYa+sD9t6fPuX0P9dGgNwj62Hb2f4sbvHxY5feSAiUF1g0F1GUJ40IXhrWCaYwFQ6tCA1eJBjxUPhDYC56q7UPWIuzz7wBaox975pn0CEqoeXhsA03QBNqzOVxOziLQ3dE6kb79/Q8Swb4BnqewzsVqouBL7uhztDaRfuWFF9PHDkyxq8A4fLyZGmj2W/DeTg0ePX86ffODd6ctt+5Km1w3YC4BJXEJ0YAww25BTxw+kX4On74Tw5vIT6r1gAKI6mCWmZibTP/f3p3p6996NzsY6C+mP2DYPgBSQDtcZp47OZN+5lP70+v056y7UGAhyX7FKW1sTgFou+nbPvT2tA9HwnEsFNmfD0+yEMdfAAALAUlEQVThcFmppMPNbvqJR15Nj7dGSYgOb2zK+QGSYdiYTfsqM+k7P3B/2jKh1cK8qRnoCSpbSL3HockvvHA8PXxyjvWDfVhZCyMojLqHoeUOePQ3vufutBE3pDr9V8enFtE23O7yGPfnY68eSL/14tE0PbYz8rbqhzjanUl3NSrpC++6Jb1/3w76LjeWPiVPzg/Jpf1fArkevfQFkAWomdM1XsHGKVXlQcw2e0GUOisz2WBiRdobmkK5fLabJoaBR3ATgVBmOcANTKJO9hYobNi46QA6SlzZLOsDX5uvp/H5Cc4lxw7te63MoMMEcYtodH1MXEyCXKos5//hvwEDm2fiz1FvM2ybsi/fYCSKYUzWYTR94y3MrpwX4Mmr6WOYhe0Kkyl892Bg1RhXBlr6ZagL03wbPiVcLGiTMebCdyrwu/XZXj3MBbbBOVZu4Q1DBQDTiZvV//rY2cfFYl34YUT7KuC5A4zPnEGxvy2MIYzMVptbDKZukXlrHhknwe/E0DRMfSaNch9u3j6a3r5tR3oHUuqW8SoSO7SAjlxIHUp7Sp7SsRjPku6UH0sKlBRYNxTIvCJrmrSChKBZLxwinL+aU+VPOaW3HCwwnfwNPmMQQxOBtIGPVwvBuApP0ewp75CbopNCswa/pw63ahQARjiULIrrx3ibQNM3DoDTVqIsGGyD67t0po2Zt4XWKgAkQFIeKj+Tb1YAKVpRtIJo0dGPWp2VJVqC5Y22EN4x1VivFUdQAv1RaNf/JvsnY32h740q6wS23LY+wY4DHjnMdxKOhGVBjaXnR0CDQr3n8OqwFtRYi0Y5ZgCB3tTSpmKgG3xxuK4JONg1Y5COfkaQDlttpmOtNY8vGwAW8OzOGfrZye2HBdPmWg0ezqFY51xjopKgoRaWjcP1tIG1sDrEvraA6Lu2jqU347usJvBWNHkbONX71o78ECVflu6XWrin56ysl3r9ujr/SoaS/bJgDQHknPBZslMbpvtb24hGnlCf4TZq8uNMkKePnkynmFhnAXtdHmAZjVfqzzXORLxv15Z0E84ao4CjCmpkJ0AoxZH49IN7Gknv9fl2mqI+TX0ygpjIPNWjnHvn5pF0xwYyZXNAp98sZ9q/FtfU0rOT0+l5VNUdmIGTMxifDInJM87kug3fsLt3bARIOsnto9KtfcAsyqcjc+305KETaaqtaTVLszoHWw8b36QtBEG87abN7H6gFszBZS6mD6D+HFOo9j9+kCzrDpwizZZOwxHa+vw9m9NGN1gWkMWvjtOqOpinq+kPD59OxwhKmA0GkdX7TmrrGoUB3rt7S7oZsDbmddCx424NclP6MAsdXjp1Jh0m2nh0bEPaOlJL25RM4ZI6KNd1aIZLamaRuSkpVsKvpNfPHgCODpWlpEBJgXVGAYGBAqWCciFeyhnCkwtuIicTdjilFXUxcap113wIfzkGX3r8wPHYX1l/YM8NH7MeK6vV2ulNO7ek2xAAN8ifDGAI9R7n0O4Mwvozx6bSqzPtNA1Q050kMw9bdkeJlO7bzi4xE/XITymL0WKQe6pZE7Po5HyYFmcMGKAPupf48tso2r09Y8PpTfDocZrNAQwZzFUq07ie1NL/39657cZRRFF0fBlwpKBEECkyn0D+/z+Q+AIegAgRFASCJNie7LVPjwJ5iIzMg0tebVkz09NdXbWq6tSuU5d5+Vd+N/vlb7s/084cF3JUMEZAXSSMr7JU9cXls90TxGn+efp47GYe3eu8fPvDz7tfkzbaLX6liMUSXTSRULLL1u7F1893z7Iibl+inOW7aZGYQvTdT7/sXqWdYvEHizmgwBUI3keZh/jN8y93l48/z3xB2pgIxryesYguPN6kE//96993P/4RMfrFk91lbPTTtEfMODpnUUhC6y4B+PISXv0SfcLdjofWUVfIbeWl65RSwPGM4TZGcqAXtkHJ/CYrAu2sw5wnmU2KHGJFKJNL6byMS5kCzsTOmIxUlBPERMRJ7QKT+dt7ZJ5bCmp6RKyYfReVSKWg8FdipfQzlEslwVN2ml4Mw53te8XDRjVDTeKve8fk0lg45rNxw+yDFoNWYzZG5TqCjomorL/qqlU8egmXuWbX/Zzr84/5ImhkFsaA1bMs7OAP7x1PrmeSOpbrSUIFFaA+cbR3i5CllvK+JzA2iQezXxMu4oz5cRhnVnPhfaupzjkMMuKzaYrgRMzCg55ulqekt40ByHByOGJ8HjGskWvexvB+duy90v0lquRt/+CMAWmqPSQggXtIoKYDUUBdxabmM/POqMz/2j6j9Tv2uXYvtTv33MRmsa/ZHgGGccE7lXPYHawdm8G/yW14rvb5r4DAXsRO3GRxxRUjKrHz+wxvnrI6NE/H3mMxznMvtgt7i5eP6TJ7vP3x0GHRmMvMIgq2CbnKVBfGGrA8bGGFjaMNGPuTNCE6k7ZTdkegQ08vvtF9m/Yivry8ZyEYcSaOYz7H2cAQMN4DpqG0gx6PGO3RDR1YrNxmS8sqfzC6qocQLx6jJJOONAB1INCGsWk6KSINXRKX+Bwyps2K3GsW5mGjE19EIW0dwvA8Yo403GRqzN88Joz3CZu4HkeqaGqAc2CUJflzGrbd/inxJU9xkiC12dezxvqOx0MTcg6tbgVm5APiifJOgaIw5Wxe+E9fLwVzGv5DfeFTgU8wIu3lUFXxLjPcyE3T9zruc1ZvYc63x4dgzBABniKMACKLsPlBKVzkVPt2HBMmK06vulJoK988Olfg45r9lbiHi6kn874uek60F0mcETfHg4AQexlobKAcYyjzwkNTsRBs+YARTRw4SEdft1uojCz3b7R67hhWL5uDJBMMtqnp+XAN4R3D5iJ+YaPzO2APASo3oeRze5iJcx+US9CtRPUixDDI4B5/ZdjlYQcMYq5lVVmfmf/GnvCPeZp3H2LDlx4SkMB9IxAzMJW95ojGnlobC/GP892wFrvR+t2ve88Z9i+9wfl6hELtUYUUoxaxCu1LTpjcN3IRmxFrnI42qy5ZBMAIRWdw5X6EUa1tbP9RLGHf+BLbO4sOmGe9r42+qC3b4kcHlns7OkNgpAtR1LcVa5OAi6aH59Yp0ARjRMcuThJzPnHvtlCkK9+11cEGxi5ORxVBxbNzSZwKcUUQky0dEWVp8MaKky6CHwKNTe173BcNnwAGFw4N3m+TfXoNOzBg06MJt3iOoCYtCLTZ/oV5c4jGaVdgRX7WOZF2cNqp8ckVg8etCeiRuzUqL5SABCQgAQlI4L4TeGgeuToqPCQgAQlIQAISkIAE1iOgkFsvz4yxBCQgAQlIQAISKAGFnAVBAhKQgAQkIAEJLEpAIbdoxhltCUhAAhKQgAQkoJCzDEhAAhKQgAQkIIFFCSjkFs04oy0BCUhAAhKQgAQUcpYBCUhAAhKQgAQksCgBhdyiGWe0JSABCUhAAhKQgELOMiABCUhAAhKQgAQWJaCQWzTjjLYEJCABCUhAAhJQyFkGJCABCUhAAhKQwKIEFHKLZpzRloAEJCABCUhAAgo5y4AEJCABCUhAAhJYlIBCbtGMM9oSkIAEJCABCUhAIWcZkIAEJCABCUhAAosSUMgtmnFGWwISkIAEJCABCSjkLAMSkIAEJCABCUhgUQIKuUUzzmhLQAISkIAEJCABhZxlQAISkIAEJCABCSxKQCG3aMYZbQlIQAISkIAEJKCQswxIQAISkIAEJCCBRQko5BbNOKMtAQn8/wQOh8OtA+Xa/3L9xwHf5d6Pw/KzBCTwcAm8B/JDbR/o+it2AAAAAElFTkSuQmCC;" vertex="1" parent="1">
          <mxGeometry x="360" y="370" width="626" height="356" as="geometry" />
        </mxCell>
      </root>
    </mxGraphModel>
  </diagram>
</mxfile>
